<?xml version="1.0" encoding="utf-8"?>
<!-- Generator: Adobe Illustrator 19.0.0, SVG Export Plug-In . SVG Version: 6.00 Build 0)  -->
<svg version="1.1" id="Calque_1" xmlns="http://www.w3.org/2000/svg" xmlns:xlink="http://www.w3.org/1999/xlink" x="0px" y="0px"
	 viewBox="0 0 800 600" style="enable-background:new 0 0 800 600;" xml:space="preserve">
<style type="text/css">
	.st0{fill:url(#XMLID_92_);}
	.st1{fill:url(#XMLID_95_);}
	.st2{fill:#132B38;}
	.st3{fill:#1E3D57;}
	.st4{fill:#1C4154;}
	.st5{fill:#2F5778;}
	.st6{fill:#285173;}
	.st7{fill:#EEA886;}
	.st8{fill:#163342;}
	.st9{fill:#477EEB;}
	.st10{fill:#2D5196;}
	.st11{fill:#87BC46;}
	.st12{fill:#A09832;}
	.st13{fill:#79A83F;}
	.st14{fill:#727643;}
	.st15{fill:#4B4C37;}
	.st16{fill:#444532;}
	.st17{fill:#4D8B33;}
	.st18{fill:#B1C265;}
	.st19{fill:#79854C;}
	.st20{fill:#C7CA7F;}
	.st21{fill:#5C9E33;}
	.st22{fill:#518330;}
	.st23{fill:#6C9F44;}
	.st24{fill:#4A8A33;}
	.st25{fill:#689C2F;}
	.st26{fill:#5F7A25;}
	.st27{fill:#478B33;}
	.st28{fill:#61A23E;}
	.st29{fill:#497A2F;}
	.st30{fill:#31535F;}
	.st31{fill:#27434C;}
	.st32{fill:#81A358;}
	.st33{fill:#7AA348;}
	.st34{fill:#6D894A;}
	.st35{fill:#8FBC58;}
	.st36{fill:#86A85A;}
	.st37{fill:#B4BC5C;}
	.st38{fill:#7CA34D;}
	.st39{fill:#75934E;}
	.st40{fill:#B7D05E;}
	.st41{fill:#A1B25F;}
	.st42{fill:#989E4D;}
	.st43{fill:#868D35;}
	.st44{fill:#9CB839;}
	.st45{fill:#FFFFFF;}
</style>
<linearGradient id="XMLID_92_" gradientUnits="userSpaceOnUse" x1="650.7468" y1="430.3818" x2="597.371" y2="475.0841">
	<stop  offset="9.585490e-002" style="stop-color:#5D7D2E"/>
	<stop  offset="1" style="stop-color:#677D2E"/>
</linearGradient>
<path id="XMLID_89_" class="st0" d="M608.1,490.4c-6.9,1.1-12.8-0.2-18.1-2.2c0.2-3.3-0.1-7-1.6-10.7c-1.3-3.1-1.8-5.9-2-8.6
	c0.9-1.5,2.9-3.8,7-6.4c6.7-4.1,5-10.1,5-10.1c-0.9,1.4-5.2,2.7-9.9,7.4c-0.9,0.9-1.4,2-1.8,3c0.5-3.7,1.3-7.2,1.2-10.5
	c-0.1-2.5-0.5-4.2-1.1-5.6c0-4.7-3.7-8.6-7.1-8.7c-4.3-0.2-5.7-3.5-5.7-3.5c-0.5,13.3,10.1,15.6,11.8,15.9c0,0.9,0,1.8,0,2.8
	c-0.2,6.8-1.5,12-0.7,19.5c-2.2-3.4-6.5-5.1-9.3-4c-4,1.5-6.7-1-6.7-1c4.6,11.7,14.4,10.6,16.9,10.1c0.1,0.4,0.1,0.8,0.3,1.3
	c0.7,2.9,0.9,5.6,0.7,7.8c-10.6-4.7-18.9-11-28.9-4.2c-15.8,10.8-11.2,20.5-22.8,20.6l101.6-1.2C636.8,502.2,631,486.9,608.1,490.4z
	"/>
<linearGradient id="XMLID_95_" gradientUnits="userSpaceOnUse" x1="48.3406" y1="478.6668" x2="763.3315" y2="478.6668">
	<stop  offset="0" style="stop-color:#3076A1"/>
	<stop  offset="1" style="stop-color:#639C38"/>
</linearGradient>
<path id="XMLID_88_" class="st1" d="M48.3,474.6c0,0,82.7,19.3,168,6.5c149.5-22.4,279.1,39.1,407-9.1c88.6-33.4,140-21.4,140-21.4
	v58.2h-715V474.6z"/>
<g id="XMLID_97_">
	<g id="XMLID_127_">
		<path id="XMLID_16_" class="st2" d="M679.3,486.2c0,0,0.8,8.9,0.5,10.3c-0.2,1.5-7.8,4.6-9.1,6.7c-1.3,2.1,0.4,4.9,1.2,5
			c0.8,0,13.8,0.6,14.8-0.5c0.9-1,9.6-21.4,9.1-24.5c-0.5-3.1-3.2-6.5-12-6.5C675,476.6,679.3,486.2,679.3,486.2z"/>
	</g>
	<g id="XMLID_125_">
		<path id="XMLID_15_" class="st3" d="M655.9,440.3c0,0-7.5,4.4-10.5,6.8c-3,2.4-24.1,16.1-26.3,19.5c-2.2,3.4-1.3,15.9,0.5,17.4
			c1.8,1.5,9.7,2.4,12,2.9c2.3,0.5,45,3.4,45,3.4l5.9-14.5c0,0-6.6-3.1-13-3.2c-6.5-0.1-9.4-1.9-9.4-1.9s17.2-3.4,26.9-6.9
			c9.6-3.4,12-8.5,10.9-15c-1.1-6.5-3.5-16.8-7.8-20.1C685.8,425.4,655.9,440.3,655.9,440.3z"/>
	</g>
	<g id="XMLID_123_">
		<path id="XMLID_14_" class="st4" d="M690.5,486c0,0,0.8,8.9,0.5,10.3c-0.2,1.5-7.8,4.6-9.1,6.7c-1.3,2.1,0.4,4.9,1.2,5
			c0.8,0,13.8,0.6,14.8-0.5c0.9-1,10.9-21.7,10.4-24.8c-0.5-3.1-4.2-7.2-13-7.2C686.5,475.6,690.5,486,690.5,486z"/>
	</g>
	<g id="XMLID_121_">
		<path id="XMLID_13_" class="st5" d="M684.7,484.5c0,0,5.4,1.5,5.8,1.5c0,0,4.8-9.9,4.8-10.5l-6.1-1.6L684.7,484.5z"/>
	</g>
	<g id="XMLID_119_">
		<path id="XMLID_12_" class="st6" d="M656.9,437.4c0,0-8,3.6-11.2,5.7c-3.2,2-25.7,13.4-28.3,16.5c-2.6,3.1-3.1,15.7-1.4,17.3
			c1.7,1.6,9.4,3.5,11.6,4.2c2.2,0.7,59.4,9.4,59.4,9.4l7.5-15.9c0,0-13.9-3.8-20.4-4.5c-6.4-0.8-16.4-2-16.4-2s17.6-0.8,27.5-3.2
			c10-2.4,15.1-9.4,14.7-16c-0.4-6.6-4.6-14.9-7.8-19.3C689,425.2,656.9,437.4,656.9,437.4z"/>
	</g>
	<g id="XMLID_116_">
		<g id="XMLID_117_">
			<path id="XMLID_11_" class="st7" d="M608.5,368.1c0,0,2.4,6.8,4.3,6.2c1.6-0.5,4.2,5.9,4.7,6.9c0.5,1,3-0.7,4-0.7
				c0.9,0,8.2,4,10,2.4c1.8-1.6,6.4-12.2,6.1-16.5c-0.3-4.3-9.1-15.4-14.8-17.9C617,346,604.3,356.2,608.5,368.1z"/>
		</g>
	</g>
	<g id="XMLID_113_">
		<g id="XMLID_114_">
			<path id="XMLID_10_" class="st8" d="M609,369.5c0,0-6.4-3.6-5.9-11.7c0.5-8.1,14.1-9.2,15.3-9.8c5.1-2.8,8.9-2.1,13.9,6.9
				c6.6,12,4.5,9.8,4.5,9.8s-4.4-4-6.5-2.7c-2.2,1.5-5.5,4.3-5.5,4.3s-2.9-5.6-5.9-3.6C615.9,364.6,610.4,366,609,369.5z"/>
		</g>
	</g>
	<g id="XMLID_111_">
		<path id="XMLID_9_" class="st7" d="M637.2,364.8c0,0,3.2,5.7,6.7,6.8c3.5,1.1-7.7,11.6-7.7,11.6s-3.2-3.7-6.9-2.7
			C625.7,381.4,637.2,364.8,637.2,364.8z"/>
	</g>
	<g id="XMLID_108_">
		<g id="XMLID_109_">
			<path id="XMLID_8_" class="st7" d="M625.6,361.9c-0.4-0.8-2-3,1.6-3.8c3.6-0.8,4.9,6.3,4.6,6.7
				C631.5,365.3,629,368.5,625.6,361.9z"/>
		</g>
	</g>
	<g id="XMLID_104_">
		<g id="XMLID_105_">
			<g id="XMLID_106_">
				<path id="XMLID_7_" class="st7" d="M595.6,454.7c0,0-2.6,1.1-3.8,1.1c-1.2,0-8.6-0.7-9.5,0.6c-0.9,1.3-8,8.4-7,9.4
					c1,1.1,1.7,0.5,2.2,0c0.5-0.5,5.9-5.1,6.5-5.2c0,0-4.8,5.4-3.9,7c0.9,1.6,2.4,1.3,3.3,1.6c0.9,0.3,2.4,1.4,4,0.7
					c1.6-0.7,7.7-7.4,9.2-8.4c1.5-1,5.4-2.5,5.5-2.8C602.1,458.2,595.6,454.7,595.6,454.7z"/>
			</g>
		</g>
	</g>
	<g id="XMLID_102_">
		<path id="XMLID_6_" class="st9" d="M636.2,383.1c0,0-2.2,12.3-0.5,17.9c1.7,5.6,11,13.1,13.2,14.7c2.3,1.6,8.6,13.5,8.3,16.3
			c-0.2,2.8-0.3,5.4-0.3,5.4s37.4,11.9,43.5,2.2c0,0-17-34.6-18-38.4c-1-3.8-9.2-14.5-13.6-18.8c-6.7-6.6-25-10.9-25-10.9
			L636.2,383.1z"/>
	</g>
	<g id="XMLID_100_">
		<path id="XMLID_5_" class="st10" d="M647.5,414.8c0.4,0.4,1.6,1.4,1.9,1.7c0,0,1.3-6.2,2.7-13.3C652,403.4,647.9,414,647.5,414.8z
			"/>
	</g>
	<g id="XMLID_98_">
		<path id="XMLID_4_" class="st9" d="M636.3,393.7c0.9-1.7,2.7-11.2,10.6-9.6c7.9,1.6,8.8,10.2,6.6,15.7s-5,12.7-5.4,13.9
			c-0.4,1.2-9.9,19.3-11.2,20.4c-1.3,1-15.2,13.1-17.6,14.4c-2.4,1.3-20.1,12.2-20.1,12.2l-4.6-5.6c0,0,26-23.8,28.1-25.4
			c2.2-1.7,5.4-5.7,5.9-8.4C629,418.5,635,396.2,636.3,393.7z"/>
	</g>
</g>
<g id="XMLID_90_">
	<g id="XMLID_214_">
		<path id="XMLID_87_" class="st11" d="M431.6,440.9L431.6,440.9c0,0,16.5,7.8,12.2,4.2c-4.3-3.5,10.8-23.3,31.6-49.5
			c20.8-26.2,7.2-37.5-5.7-67.9c-5.1-12.1-14.1-16.6-22.7-16.3c-13,0.3-25.2,11.5-21.5,23.4c6,19.8,14.1,38.9-1,58.7
			C409.5,413.1,431.2,440.4,431.6,440.9z"/>
		<path id="XMLID_86_" class="st11" d="M476.5,334.5c10.1-4.9,22.3-22.6,12.2-26.9c-10.1-4.2-2.2-17-12.2-17
			c-10,0-15.1,15.4-9.3,23.9C467.2,314.6,466.4,339.4,476.5,334.5z"/>
		<path id="XMLID_85_" class="st11" d="M479,291c0,0,15.8-13.4,0-16.3c-15.8-2.8-11.5,14.1-10.1,16.3C470.4,293.2,479,291,479,291z"
			/>
		<path id="XMLID_84_" class="st12" d="M416.5,338c12.2-2.1,12.2-14.1,12.2-14.1s-9.7-17.7-18-9.5
			C402.5,322.5,404.3,340.1,416.5,338z"/>
		<path id="XMLID_83_" class="st13" d="M431.6,440.9L431.6,440.9c0,0,24.1-43.1,11.5-73.5c-8.8-21.3-1.4-44.2,3.8-55.9
			c-13,0.3-25.2,11.5-21.5,23.4c6,19.8,14.1,38.9-1,58.7C409.5,413.1,431.2,440.4,431.6,440.9z"/>
		<polygon id="XMLID_82_" class="st14" points="473.6,440.4 402.3,440.4 405.4,450.6 471,450.6 		"/>
		<polygon id="XMLID_81_" class="st15" points="458.4,508.8 464.3,462.2 465.8,450.6 411,450.6 418,508.8 		"/>
		<polygon id="XMLID_80_" class="st11" points="476.7,363.8 492.5,353.2 476.7,361.7 		"/>
		<polygon id="XMLID_79_" class="st11" points="458.7,294.2 467.3,301.8 468.1,300 		"/>
		<polygon id="XMLID_78_" class="st11" points="479.9,300.4 490.3,298.9 480.8,298.9 		"/>
		<polygon id="XMLID_77_" class="st11" points="469.5,266.2 472.6,276.5 473.8,276.5 		"/>
		<polygon id="XMLID_76_" class="st11" points="481.7,276.5 482.6,277.9 489.4,272.3 		"/>
		<polygon id="XMLID_75_" class="st11" points="476.7,275.1 478.6,275.8 476.7,269.1 		"/>
		<polygon id="XMLID_74_" class="st11" points="472,385.9 478.6,402.2 475.4,385.9 		"/>
		<polygon id="XMLID_73_" class="st14" points="412.2,323.8 398.6,314.6 411,325.2 		"/>
		<polygon id="XMLID_72_" class="st14" points="422.7,402.2 403.1,405.3 422.7,405.3 		"/>
		<path id="XMLID_71_" class="st16" d="M464.3,462.2l1.5-11.6H411l7,58.2h13.3C430.2,476.8,453.6,465.7,464.3,462.2z"/>
	</g>
	<g id="XMLID_196_">
		<path id="XMLID_70_" class="st17" d="M254.7,315.5c0,0-42.2-50.8-59.1-73.8c-16.9-23.1,35.4,108,39.8,121.8
			C239.7,377.3,257.5,389.3,254.7,315.5z"/>
		<path id="XMLID_69_" class="st18" d="M295,393.9c18.8-27.7,31.9-152.3,31.9-152.3c-32.8,26.8-63.8,147.1-63.8,147.1
			S276.3,421.6,295,393.9z"/>
		<path id="XMLID_68_" class="st19" d="M290.8,381.4c5.6-11.8-1.9-164.5-6.4-150.7c-4.5,13.8-30,71.1-30,71.1
			C250.6,336.5,285.2,393.2,290.8,381.4z"/>
		<path id="XMLID_67_" class="st20" d="M247.6,347.5c-9.9-17.8-108.2-113.3-108.2-113.3c0.9,29.5,61.9,99.7,61.9,99.7
			S257.5,365.3,247.6,347.5z"/>
		<path id="XMLID_66_" class="st21" d="M295,391.9c-113.5-41.2-220.4-19.8-220.4-19.8c12.2,18.5,164.2,19.8,164.2,19.8H295z"/>
		<path id="XMLID_65_" class="st22" d="M271.2,395.5C213.5,333.7,77.6,304,77.6,304c40.2,40.4,97.9,75.8,97.9,75.8
			S328.9,457.4,271.2,395.5z"/>
		<path id="XMLID_64_" class="st23" d="M282.9,388.8c-33.8-61.5-162.3-122.2-162.3-122.2c0,19.4,104.2,109.6,104.2,109.6
			S316.6,450.3,282.9,388.8z"/>
		<path id="XMLID_63_" class="st24" d="M281.9,394.9c25.3-4.6,119.1-95.1,119.1-95.1c-24.4,4.6-119.1,63.7-119.1,63.7
			S256.6,399.4,281.9,394.9z"/>
		<path id="XMLID_62_" class="st25" d="M326.9,395.3c31.9,1.3,134.1-61.3,134.1-61.3c-30.6,0-100.8,18.2-135.2,27.7
			c-12.9,3.6-23.9,12-30.5,23.5C277.1,417.1,299.2,394.1,326.9,395.3z"/>
		<path id="XMLID_61_" class="st25" d="M307.7,374.6c28.8-13.6,89.1-116.2,89.1-116.2c-27,14.2-80.2,62.8-106,87
			c-9.7,9.1-15.3,21.7-15.7,34.9C274.1,416.9,282.6,386.4,307.7,374.6z"/>
		<path id="XMLID_60_" class="st26" d="M331.6,383.9c31.5-5,119-86.4,119-86.4c-30,6-95.1,37.6-126.8,53.6c-12,6-21,16.5-25.1,29.1
			C287.2,415.1,304.2,388.2,331.6,383.9z"/>
		<path id="XMLID_59_" class="st27" d="M445.1,368.1c-9.5-0.7-70.9,1.9-97.3,3.2c-10.4,0.5-20.5,4.3-28.4,11
			c-11.4,9.7-8,16.9,7.4,20C347.6,406.3,457.3,369,445.1,368.1z"/>
		<path id="XMLID_58_" class="st28" d="M279.3,384.4c2.3-9.5,2.6-19.3,1.3-28.9c-4.5-32.9-20-134.7-42.8-150.1
			c0,0-10.3,131.9,11.3,176.3C265.2,414.9,274.9,402.6,279.3,384.4z"/>
		<path id="XMLID_57_" class="st29" d="M279.1,402.5C292,390.4,344.6,273,344.6,273c-49.2,28.3-71.1,85.7-71.1,85.7
			S266.2,414.6,279.1,402.5z"/>
		<polygon id="XMLID_56_" class="st30" points="365.5,441.1 368.2,425.7 156.2,425.7 167.5,508.8 353.2,508.8 		"/>
		<path id="XMLID_55_" class="st31" d="M365.5,441.1l2.8-15.4h-212l11.3,83.1h40.3C226.5,462.3,337.5,444.8,365.5,441.1z"/>
		<rect id="XMLID_54_" x="139.3" y="387.5" class="st30" width="250.9" height="38.3"/>
	</g>
	<g id="XMLID_149_">
		<g id="XMLID_194_">
			<polygon id="XMLID_53_" class="st32" points="387.1,470.4 379.4,358 380.7,357.9 388.4,470.3 			"/>
		</g>
		<g id="XMLID_192_">
			<polygon id="XMLID_52_" class="st32" points="367.6,468.1 348.9,163.3 350.2,163.3 369,468 			"/>
		</g>
		<g id="XMLID_190_">
			<rect id="XMLID_51_" x="376.1" y="119" class="st32" width="1.3" height="355.5"/>
		</g>
		<g id="XMLID_188_">
			
				<rect id="XMLID_50_" x="390.9" y="259.1" transform="matrix(0.9998 2.229298e-002 -2.229298e-002 0.9998 8.2473 -8.6387)" class="st32" width="1.3" height="212.9"/>
		</g>
		<g id="XMLID_186_">
			<path id="XMLID_49_" class="st33" d="M376,191.8c0,0-37.6-31.5-26.4-63c11.1-31.5,66.2-14.4,48.7,42.3
				C398.3,171.1,392.6,185.8,376,191.8z"/>
		</g>
		<g id="XMLID_184_">
			<polygon id="XMLID_48_" class="st34" points="387.5,175.9 386.1,175.8 389,142.1 390.8,137.1 			"/>
		</g>
		<g id="XMLID_182_">
			<polygon id="XMLID_47_" class="st34" points="369,176.7 367.6,176.7 368.7,123.4 369.9,131.9 			"/>
		</g>
		<g id="XMLID_180_">
			<polygon id="XMLID_46_" class="st34" points="362,168 355.5,131.4 357.8,137.1 363.3,167.8 			"/>
		</g>
		<g id="XMLID_178_">
			<path id="XMLID_45_" class="st35" d="M352.2,243.5c0,0-32.6-41.5-15.6-70.8c16.9-29.3,126-5.1,76.7,100.7
				C364,379.1,325.9,308,325.9,308L352.2,243.5z"/>
		</g>
		<g id="XMLID_176_">
			<polygon id="XMLID_44_" class="st36" points="380.8,319 379.5,318.7 409,209.2 412.6,201.3 			"/>
		</g>
		<g id="XMLID_174_">
			<polygon id="XMLID_43_" class="st36" points="371.4,308.6 370.1,308.5 375.8,185.1 377.4,178.2 			"/>
		</g>
		<g id="XMLID_172_">
			<polygon id="XMLID_42_" class="st36" points="358.3,268.1 352.7,179.9 354.5,187.3 359.6,268 			"/>
		</g>
		<g id="XMLID_170_">
			<path id="XMLID_41_" class="st37" d="M437.4,481.1c0,0-1.3,4.2-3.5,10.2c-0.6,1.7-1.4,3.5-2.2,5.5c-1.2,2.9-2.6,6-4.1,9.1
				c-0.5,1-1,1.9-1.5,2.9H325.4c-0.1-0.3-0.2-0.6-0.3-0.8c-0.6-1.7-1.1-3.5-1.6-5.4c-1.5-6-2-13.1-1.1-21.5H437.4z"/>
		</g>
		<g id="XMLID_168_">
			<polygon id="XMLID_40_" class="st37" points="317.6,481.1 441.3,481.1 444.5,468.1 314.3,468.1 			"/>
		</g>
		<g id="XMLID_166_">
			<path id="XMLID_39_" class="st38" d="M376.8,280.8c0,0-4.9-71.1-46.4-44.9c-41.5,26.2-51.7,128.9,46.4,160.1V280.8z"/>
		</g>
		<g id="XMLID_164_">
			<polygon id="XMLID_38_" class="st39" points="383.3,349.2 341.3,249.3 339.2,240.9 384.5,348.7 			"/>
		</g>
		<g id="XMLID_162_">
			<path id="XMLID_37_" class="st39" d="M390.1,356.2c-3.8-0.1-10-4.7-19-14.1c-7-7.3-15.6-17.4-25.7-30.1
				c-17-21.6-27.5-36.5-27.6-36.7l-3.8-7.6c0.2,0.2,15.5,22,32.5,43.5c28.3,35.8,39.3,43.5,43.6,43.7L390.1,356.2z"/>
		</g>
		<g id="XMLID_160_">
			<path id="XMLID_36_" class="st39" d="M396.4,369.6c-8.6,0-26.3-9.5-52.6-28.1c-19.5-13.8-36.7-27.9-36.8-28l5.4,2.6
				c6.5,5.2,64,52.2,84,52.2V369.6z"/>
		</g>
		<g id="XMLID_158_">
			<path id="XMLID_35_" class="st39" d="M337.7,365.1c1,0.6,7.3,1.6,23.5,4.3c9,1.5,31,5.1,40.5,5.3l0,1.3
				c-9.7-0.2-32.1-3.9-41.3-5.5c-7.5-1.3-15-2.7-20.8-3.8c-9.2-1.8-9.5-2.2-9.7-2.4L337.7,365.1z"/>
		</g>
		<g id="XMLID_156_">
			<path id="XMLID_34_" class="st40" d="M390.1,436.8c0,0-34.3-35.5-26.2-90.1c8-54.6,70.5-54.5,70-1.5
				C433.4,398.2,422.1,413,390.1,436.8z"/>
		</g>
		<g id="XMLID_154_">
			<polygon id="XMLID_33_" class="st41" points="392.8,432.5 391.6,432.2 408.7,320.6 411.1,313.1 394,425.2 426.9,333.1 
				427.1,336.5 			"/>
		</g>
		<g id="XMLID_152_">
			<polygon id="XMLID_32_" class="st41" points="389.7,433.4 371.4,347 371.2,340.4 389.4,425.4 384.6,317.7 386.5,328.7 391,433 
							"/>
		</g>
		<g id="XMLID_150_">
			<path id="XMLID_31_" class="st42" d="M437.4,481.1c0,0-1.3,4.2-3.5,10.2c-0.4,0.1-0.8,0.2-1.2,0.3c-4.2,0.9-9.7,2.1-15.9,3.6
				c-12.8,3.2-28.5,7.7-41.4,13.6h-49.9c-0.1-0.3-0.2-0.6-0.3-0.8c-0.6-1.7-1.1-3.5-1.6-5.4c-1.5-6-2-13.1-1.1-21.5H437.4z"/>
		</g>
	</g>
	<g id="XMLID_129_">
		<path id="XMLID_30_" class="st43" d="M119.5,275.5l1.9,21C121.6,289.8,120.9,282.8,119.5,275.5z"/>
		<g id="XMLID_133_">
			<g id="XMLID_146_">
				<path id="XMLID_29_" class="st44" d="M122.1,428.4l-1.1-0.1c0-0.4,2-38.5,1.5-83.3c-0.5-41.3-3.4-97-14.1-127.3l1-0.3
					c10.8,30.5,13.7,86.2,14.2,127.6C124.2,389.8,122.1,428,122.1,428.4z"/>
			</g>
			<g id="XMLID_144_">
				<path id="XMLID_28_" class="st44" d="M137.4,428.4c-0.1-2.4-12.9-245.5-29-318.6l1-0.2c16.1,73.2,28.9,316.4,29,318.8
					L137.4,428.4z"/>
			</g>
			<g id="XMLID_142_">
				<path id="XMLID_27_" class="st44" d="M131.5,436.5c-0.1-2.2-11-216.5-2.5-259.7l1,0.2c-8.5,43.2,2.4,257.3,2.5,259.5
					L131.5,436.5z"/>
			</g>
			<g id="XMLID_140_">
				<path id="XMLID_26_" class="st44" d="M130.8,431.7h-1.1c0-1.2,0.1-121.1,10-175.8l1,0.2C130.9,310.7,130.8,430.5,130.8,431.7z"
					/>
			</g>
			<path id="XMLID_25_" class="st44" d="M216.3,209c0,0-10.9-72.9-38.1-38.4c-18.8,23.9-31,57.6-36.8,76.2
				c-2.5,8.1-4.1,16.6-4.6,25.1l-1.2,20.4C194.6,140.7,216.3,209,216.3,209z"/>
			<path id="XMLID_24_" class="st44" d="M230.1,121.5c0,0,10.9-69.8-50.9-38.7c-59.2,29.8-52.6,119.4-52.6,119.4
				c3.5-14.9,10-54.9,31.1-80.8C213.7,53,230.1,121.5,230.1,121.5z"/>
			<path id="XMLID_23_" class="st44" d="M168.5,344.9c-35.2-6.8-37.2,22.9-37.2,22.9v10.9C134.4,359.9,168.5,344.9,168.5,344.9z"/>
			<path id="XMLID_22_" class="st44" d="M120,191.7c-0.1-0.4-0.1-0.7-0.2-1.1C103.4,98.1,69.8,64.3,48.3,52v-6.7h33.8
				c25.3,19.5,33.9,91.1,36.7,126.4c0,0,0,0.1,0,0.1C119.7,183.9,120,191.7,120,191.7z"/>
			<path id="XMLID_21_" class="st44" d="M53.1,147.5c0,0,55.2,70.5,66.4,128l-1.2-13.5C118.2,262.1,116,159.9,53.1,147.5z"/>
			<path id="XMLID_20_" class="st44" d="M76.7,301c0,0,43.6,44.6,46.5,54C123.2,354.9,105.7,303.6,76.7,301z"/>
		</g>
		<path id="XMLID_19_" class="st37" d="M174.1,408.6l-0.1,2.1l-0.4,8.9l-0.1,3.2l-0.3,7l-0.3,6.9l-0.3,6.8l-2.1,49.3l-0.4,9.9
			l-0.2,5.3c0,0,0,0,0,0l0,0.9H94l-12.6-74.9l-1.9-11.2l-1-5.9l-1.4-8.3H174.1z"/>
		<path id="XMLID_18_" class="st42" d="M174,410.7l-0.4,8.9l-0.1,3.2l-0.3,7l-0.3,6.9c-0.2,0-0.4,0-0.6,0.1c-0.4,0-0.8,0.1-1.2,0.1
			c-3.6,0.4-7.7,1.2-12.2,2.4c-9.8,2.8-21.1,8.2-30.4,18.4c-3.8,4.1-7.2,9-10.1,14.8c-4.7,9.4-8.1,21.3-9.2,36.3H94l-12.6-74.9
			l-1.9-11.2l-1-5.9l43.2-2.8l1.1-0.1l3.4-0.2l3.7-0.2l0.5,0l0.5,0l0.5,0l5.1-0.3l1-0.1l1.7-0.1l3.4-0.2L174,410.7z"/>
		<polygon id="XMLID_17_" class="st37" points="179.1,394.4 73,394.4 73,422.7 183.2,422.7 		"/>
	</g>
	<path id="XMLID_93_" class="st45" d="M321.4,355.1c-22.2-24.8-49.9-5.8-63.2,3.3c-1.9,1.3-3.8,2.6-5.1,3.4l-3.2-23.9l5.8-22.2
		l-101.4-0.3l29.1,35.5L161,508.8h112L268,471c4.3-7.3,11.5-16.9,19.1-26.8C310.3,413.4,339.4,375.1,321.4,355.1z M266.8,462.4
		L254,367.6c1.8-0.7,4.2-2.4,7.6-4.6c12.9-8.8,36.8-25.3,55.7-4.2c14.9,16.7-13.8,54.5-34.7,82.1C276.4,448.9,271,456.1,266.8,462.4
		z"/>
	<path id="XMLID_1_" class="st45" d="M167.5,507.8c-0.2,0.3-0.3,0.7-0.5,1h-23.6c-28.9-19-37.9-62.1-37.9-62.1l25-6.4l3.9-1
		l-26.9-58.6c-4.5-9.8-10.2-19.1-17-27.6c-10.5-13-23-31.7,0.6-21.3c17.4,7.6,31.1,33.8,40.4,58c9.3,24.2,14.3,46.6,14.3,46.6
		l20.6-5.3C178.5,472.8,172.9,496.4,167.5,507.8z"/>
</g>
</svg>
