<?xml version="1.0" encoding="utf-8"?>
<!-- Generator: Adobe Illustrator 19.0.0, SVG Export Plug-In . SVG Version: 6.00 Build 0)  -->
<svg version="1.1" id="Calque_1" xmlns="http://www.w3.org/2000/svg" xmlns:xlink="http://www.w3.org/1999/xlink" x="0px" y="0px"
	 viewBox="0 0 400 400" style="enable-background:new 0 0 400 400;" xml:space="preserve">
<style type="text/css">
	.st0{fill:#FFFFFF;stroke:#666666;stroke-width:2;stroke-miterlimit:10;}
	.st1{fill:none;}
	.st2{fill:#666666;}
	.st3{font-family:'MyriadPro-Bold';}
	.st4{font-size:30px;}
	.st5{fill:#B3B3B3;}
</style>
<ellipse id="XMLID_47_" class="st0" cx="272.7" cy="81.5" rx="39" ry="38.5"/>
<ellipse id="XMLID_43_" class="st0" cx="205.9" cy="208.5" rx="155.1" ry="148.5"/>
<ellipse id="XMLID_48_" class="st0" cx="63.9" cy="142.3" rx="25.3" ry="25.3"/>
<rect id="XMLID_62_" x="50.8" y="130.4" class="st1" width="26.8" height="23.8"/>
<text id="XMLID_14_" transform="matrix(1 0 0 1 55.8633 151.7086)" class="st2 st3 st4">1</text>
<path id="XMLID_1_" class="st5" d="M249,173.8c3.3,0,6.6-0.9,9.4-2.6l27-16v-7.5L255,165.5c-2.3,1.3-4.9,2-7.6,2l-40.2-0.5
	c-2-0.7-3.6-1.2-4.2-1.4c-12.6-2.8-22.4-1.7-29.1,0.1c-5,1.3-10.4,0.8-15.1-1.3l-36.5-16.7v66.8l3.8,2.1c5.6,3,10,7.8,12.8,13.5
	l-2.1,1.7c-5.8,4.2-7,12.3-3.2,18c2.1,2.8,5.1,4.6,8.5,5.2c0.4,0,1,0.1,1.4,0.1c1.2,0.1,2.4-0.1,3.5-0.2c0.1,2.9,0.7,5.4,2.4,7.7
	c2.3,3.2,5.9,4.6,9.8,4.8c1,0.1,2,0.1,2.8,0.2c-0.4,3,0.5,6.2,2.4,8.7c2.1,2.8,5.1,4.6,8.5,5.2c0.4,0,1,0.1,1.4,0.1
	c3,0.2,6-0.7,8.3-2.4l1.3-1c0.3,1.8,0.8,3.5,2,5c1.7,2.3,4.3,3.9,7.3,4.5c0.4,0,0.8,0,1.2,0.1c2.4,0.1,4.9-0.6,7.1-2.1h0.2l1.5,2.1
	c2.6,3.8,8.1,4.7,11.9,2.1c3.2-2.3,4.4-6.7,3-10.3l0.3,0.4c2.5,3.7,7.3,5.3,11.4,3.6c4.6-1.9,6.4-6.8,5.2-11.1
	c3.1,3.4,8.4,4.1,12.2,1.5l0.2-0.2c3.8-2.6,4.9-7.7,2.9-11.7c3.3,3,8.6,3.5,12.4,0.9c4.4-3.2,5.6-9.5,2.4-14l-4.8-6.8l10.3-12
	c2.7-3.2,6-5.9,9.6-8l5.1-2.9v-8l-7,4c-4,2.3-7.6,5.2-10.6,8.7l-11.1,12.9c-3.3-3-8.6-3.5-12.4-0.9c-4.4,3.2-5.6,9.5-2.4,14l0.2,0.4
	h-0.2c-3.1-2.2-7.4-2.4-10.8-0.2l-0.2,0.2c-3,2.1-4.4,5.7-3.7,9.2l-1.1,0.8c-3-1.6-6.7-1.6-9.6,0.5c-2.7,1.9-4.1,5.3-3.9,8.4
	l-2.9,1.9c-2.2-0.5-4.7,0-6.6,1.3c-2.3,1.7-3.7,4.5-3.6,7.2l-1.5,0.9c-0.9,0.8-2.3,1.1-3.5,0.8s-2.4-0.9-3.2-2
	c-0.8-0.9-1.1-2.3-0.8-3.5s0.9-2.4,2-3.2l16-12c0.8-0.6,1.3-1.4,1.3-2.4c0.1-1.8-1.5-3.4-3.3-3.4c-0.7,0-1.3,0.2-1.9,0.5l-25.5,18.5
	c-1.5,0.9-3.1,1.5-5,1.2c-1.8-0.3-3.4-1.2-4.3-2.7c-2.1-2.8-1.5-7,1.5-9.1l30.4-21.7c0.7-0.6,1.1-1.4,1.1-2.5c0-1.7-1.4-3.2-3.1-3.3
	c-1,0-1.8,0.3-2.5,1.1l-29.7,21.5c-0.8,0.4-1.3,1-1.9,1.5c-3.6,2.3-8.9,1.8-10.8-0.8c-1.9-2.7-1.5-6.4,0.9-8.7l3-2.1l33.1-22.5
	c0.8-0.6,1.3-1.4,1.3-2.4c0.1-1.1-0.5-2.1-1.4-2.8c-1.2-0.8-2.3-0.9-3.6-0.1l-35.4,24.1c-0.2,0.4-0.6,0.6-0.9,0.8l-3.4,2.5
	c-2.8,2.1-7,1.5-9.1-1.5c-2.1-2.8-1.5-7,1.5-9.1l66.7-49.1c5.4,3.1,9.3,9.5,9.3,9.5c6.6,20.5,14.7,20.7,19.7,18.2
	c2.6-1.3,3.7-4.3,2.8-7.1c-2.6-7.9-4.1-23.3-4.1-23.3c-1.8-4-7.7-8.2-14.3-11.6l21.4,0.3L249,173.8z"/>
</svg>
