<?xml version="1.0" encoding="utf-8"?>
<!-- Generator: Adobe Illustrator 19.0.0, SVG Export Plug-In . SVG Version: 6.00 Build 0)  -->
<svg version="1.1" id="Calque_1" xmlns="http://www.w3.org/2000/svg" xmlns:xlink="http://www.w3.org/1999/xlink" x="0px" y="0px"
	 viewBox="0 0 400 400" style="enable-background:new 0 0 400 400;" xml:space="preserve">
<style type="text/css">
	.st0{fill:none;stroke:#666666;stroke-width:2;stroke-miterlimit:10;}
	.st1{fill:#FFFFFF;stroke:#666666;stroke-width:2;stroke-miterlimit:10;}
	.st2{fill:none;}
	.st3{fill:#666666;}
	.st4{font-family:'MyriadPro-Bold';}
	.st5{font-size:30px;}
	.st6{fill:#B3B3B3;stroke:#FFFFFF;stroke-width:0.5;stroke-linecap:round;stroke-linejoin:round;}
</style>
<ellipse id="XMLID_43_" class="st0" cx="205.9" cy="199.5" rx="155.1" ry="148.5"/>
<ellipse id="XMLID_48_" class="st1" cx="63.9" cy="133.3" rx="25.3" ry="25.3"/>
<rect id="XMLID_30_" x="50.8" y="121.4" class="st2" width="26.8" height="23.8"/>
<text id="XMLID_14_" transform="matrix(1 0 0 1 55.8638 142.7086)" class="st3 st4 st5">2</text>
<polygon id="XMLID_1_" class="st6" points="165.2,245 143,234.1 121.4,246.2 124.9,221.7 106.7,204.9 131.1,200.6 141.5,178.2 
	153,200.1 177.6,203 160.3,220.7 "/>
<polygon id="XMLID_2_" class="st6" points="226.5,193.4 204.3,182.5 182.7,194.6 186.2,170.1 168,153.3 192.4,149.1 202.8,126.6 
	214.3,148.5 238.9,151.4 221.7,169.1 "/>
<polygon id="XMLID_4_" class="st6" points="292.7,246.4 270.5,235.4 248.9,247.6 252.4,223.1 234.3,206.3 258.7,202 269,179.5 
	280.6,201.4 305.1,204.3 287.9,222.1 "/>
</svg>
