<?xml version="1.0" encoding="utf-8"?>
<!-- Generator: Adobe Illustrator 19.0.0, SVG Export Plug-In . SVG Version: 6.00 Build 0)  -->
<svg version="1.1" id="Calque_1" xmlns="http://www.w3.org/2000/svg" xmlns:xlink="http://www.w3.org/1999/xlink" x="0px" y="0px"
	 viewBox="0 0 400 400" style="enable-background:new 0 0 400 400;" xml:space="preserve">
<style type="text/css">
	.st0{fill:#FFFFFF;stroke:#666666;stroke-width:2;stroke-miterlimit:10;}
	.st1{fill:#F2F2F2;stroke:#666666;stroke-width:2;stroke-miterlimit:10;}
	.st2{fill:#B3B3B3;stroke:#666666;stroke-width:2;stroke-miterlimit:10;}
	.st3{fill:#CCCCCC;stroke:#666666;stroke-width:2;stroke-miterlimit:10;}
	.st4{fill:#666666;stroke:#666666;stroke-width:2;stroke-miterlimit:10;}
	.st5{fill:#FFFFFF;stroke:#666666;stroke-width:3;stroke-miterlimit:10;}
	.st6{fill:none;}
	.st7{fill:#666666;}
	.st8{font-family:'MyriadPro-Bold';}
	.st9{font-size:30px;}
	.st10{fill:#CCCCCC;}
</style>
<ellipse id="XMLID_47_" class="st0" cx="272.7" cy="81.5" rx="39" ry="38.5"/>
<ellipse id="XMLID_43_" class="st0" cx="205.9" cy="208.5" rx="155.1" ry="148.5"/>
<rect id="XMLID_7_" x="51.8" y="178.7" class="st0" width="69.8" height="26.6"/>
<ellipse id="XMLID_48_" class="st0" cx="63.9" cy="142.3" rx="25.3" ry="25.3"/>
<path id="XMLID_9_" class="st0" d="M122.3,182.2c0,0-9.3,4.3,4.9,0.1c14.2-4.2,18.8-7.1,20.9-4.1c2.1,2.9-14.5,8-14.5,8
	s18.6-0.4,22.8,0s12.1,5.9,2.9,6.3c-9.2,0.4-28.7,0-28.7,0s33.7-1.3,35.8,0.2c2.1,1.5,8.8,6.1,0,5.7c-1.1-0.1-2.6-0.1-4.2-0.1
	c-0.4,0-0.8,0-1.3,0c-11.3-0.1-30.4,0.2-30.4,0.2s27.5-1.1,31.6,1.9c4.2,2.9,3.8,4.8-4.2,4.8c-7.9,0-27.1,0-27.1,0
	s15.8-0.4,19.1,3.7c3.3,4.2,4.6,7.1-3.3,5.4c-7.9-1.7-26.4-11.3-26.4-11.3L122.3,182.2z"/>
<path id="XMLID_8_" class="st0" d="M295.4,219.2c0,0,9.3,4.3-4.9,0.1c-14.2-4.2-18.8-7.1-20.9-4.1c-2.1,2.9,14.5,8,14.5,8
	s-18.6-0.4-22.8,0c-4.2,0.4-12.1,5.9-2.9,6.3c9.2,0.4,28.7,0,28.7,0s-33.7-1.3-35.8,0.2c-2.1,1.5-8.8,6.1,0,5.7
	c1.1-0.1,2.6-0.1,4.2-0.1c0.4,0,0.8,0,1.3,0c11.3-0.1,30.4,0.2,30.4,0.2s-27.5-1.1-31.6,1.9c-4.2,2.9-3.8,4.8,4.2,4.8s27.1,0,27.1,0
	s-15.8-0.4-19.1,3.7c-3.3,4.2-4.6,7.1,3.3,5.4c7.9-1.7,26.4-11.3,26.4-11.3L295.4,219.2z"/>
<rect id="XMLID_1_" x="141.1" y="142.2" class="st1" width="105.9" height="145.2"/>
<rect id="XMLID_2_" x="247.3" y="142.2" class="st2" width="35.1" height="145.2"/>
<polygon id="XMLID_4_" class="st3" points="247.3,287 264.8,272.8 282.4,287 "/>
<polyline id="XMLID_3_" class="st3" points="263,142 247,142 247.3,287 265,272.8 265,142 "/>
<rect id="XMLID_5_" x="51.8" y="217.3" class="st0" width="59.6" height="26.6"/>
<path id="XMLID_6_" class="st0" d="M113.3,223.2c0,0-9.3,4.3,4.9,0.1c14.2-4.2,18.8-7.1,20.9-4.1c2.1,2.9-14.5,8-14.5,8
	s18.6-0.4,22.8,0s12.1,5.9,2.9,6.3c-9.2,0.4-28.7,0-28.7,0s33.7-1.3,35.8,0.2c2.1,1.5,8.8,6.1,0,5.7c-1.1-0.1-2.6-0.1-4.2-0.1
	c-0.4,0-0.8,0-1.3,0c-11.3-0.1-30.4,0.2-30.4,0.2s27.5-1.1,31.6,1.9c4.2,2.9,3.8,4.8-4.2,4.8c-7.9,0-27.1,0-27.1,0
	s15.8-0.4,19.1,3.7c3.3,4.2,4.6,7.1-3.3,5.4c-7.9-1.7-26.4-11.3-26.4-11.3L113.3,223.2z"/>
<rect id="XMLID_12_" x="278.1" y="174.7" class="st0" width="81.8" height="26.6"/>
<path id="XMLID_11_" class="st0" d="M277.4,178.2c0,0,9.3,4.3-4.9,0.1c-14.2-4.2-18.8-7.1-20.9-4.1c-2.1,2.9,14.5,8,14.5,8
	s-18.6-0.4-22.8,0c-4.2,0.4-12.1,5.9-2.9,6.3s28.7,0,28.7,0s-33.7-1.3-35.8,0.2c-2.1,1.5-8.8,6.1,0,5.7c1.1-0.1,2.6-0.1,4.2-0.1
	c0.4,0,0.8,0,1.3,0c11.3-0.1,30.4,0.2,30.4,0.2s-27.5-1.1-31.6,1.9c-4.2,2.9-3.8,4.8,4.2,4.8c7.9,0,27.1,0,27.1,0
	s-15.8-0.4-19.1,3.7c-3.3,4.2-4.6,7.1,3.3,5.4c7.9-1.7,26.4-11.3,26.4-11.3L277.4,178.2z"/>
<rect id="XMLID_10_" x="299.1" y="213.3" class="st0" width="60.7" height="26.6"/>
<ellipse id="XMLID_13_" class="st4" cx="178.6" cy="199.5" rx="4.8" ry="5.8"/>
<ellipse id="XMLID_15_" class="st4" cx="210.6" cy="199.5" rx="4.8" ry="5.8"/>
<path id="XMLID_42_" class="st5" d="M174.3,231.7c26.3,1,39-11,39-11"/>
<rect id="XMLID_34_" x="50.8" y="130.4" class="st6" width="26.8" height="23.8"/>
<text id="XMLID_14_" transform="matrix(1 0 0 1 55.8633 151.7086)" class="st7 st8 st9">3</text>
<g id="XMLID_21_">
	<path id="XMLID_16_" class="st1" d="M200,124.6h-11.8H142c-3.3,0-6-2.7-6-6V95.7c0-3.3,2.7-6,6-6H200c3.3,0,6,2.7,6,6v22.9
		C205.9,121.9,203.3,124.6,200,124.6z"/>
	<polygon id="XMLID_20_" class="st1" points="181,125 195,125 188,133.1 	"/>
	<rect id="XMLID_19_" x="141.1" y="95.6" class="st10" width="58.9" height="4"/>
	<rect id="XMLID_22_" x="141.1" y="105.2" class="st10" width="58.9" height="4"/>
	<rect id="XMLID_23_" x="141.1" y="113" class="st10" width="58.9" height="4"/>
</g>
<g id="XMLID_24_">
	<path id="XMLID_29_" class="st1" d="M228.5,132.8h8.7h34c2.4,0,4.4-2,4.4-4.4v-16.9c0-2.4-2-4.4-4.4-4.4h-42.7
		c-2.4,0-4.4,2-4.4,4.4v16.9C224.1,130.9,226,132.8,228.5,132.8z"/>
	<polygon id="XMLID_28_" class="st1" points="242.4,133 232.1,133 237.3,139 	"/>
	<rect id="XMLID_27_" x="228.4" y="111.5" class="st10" width="43.4" height="3"/>
	<rect id="XMLID_26_" x="228.4" y="118.5" class="st10" width="43.4" height="3"/>
	<rect id="XMLID_25_" x="228.4" y="124.3" class="st10" width="43.4" height="3"/>
</g>
</svg>
