<?xml version="1.0" encoding="utf-8"?>
<!-- Generator: Adobe Illustrator 19.0.0, SVG Export Plug-In . SVG Version: 6.00 Build 0)  -->
<svg version="1.1" id="Calque_1" xmlns="http://www.w3.org/2000/svg" xmlns:xlink="http://www.w3.org/1999/xlink" x="0px" y="0px"
	 viewBox="0 0 400 400" style="enable-background:new 0 0 400 400;" xml:space="preserve">
<style type="text/css">
	.st0{fill:#FFFFFF;stroke:#FFFFFF;stroke-width:2;stroke-miterlimit:10;}
	.st1{fill:#F2F2F2;stroke:#FFFFFF;stroke-miterlimit:10;}
	.st2{fill:#FFFFFF;}
</style>
<path id="XMLID_16_" class="st0" d="M189.8,165.9h-27.3H55.9c-7.6,0-13.8-9.4-13.8-21V64.4c0-11.6,6.2-21,13.8-21h133.9
	c7.6,0,13.8,9.4,13.8,21v80.5C203.6,156.5,197.4,165.9,189.8,165.9z"/>
<polygon id="XMLID_20_" class="st0" points="146,167 178.3,167 162.1,195.5 "/>
<rect id="XMLID_19_" x="53.7" y="63.9" class="st1" width="136.1" height="14.1"/>
<rect id="XMLID_22_" x="53.7" y="97.6" class="st1" width="136.1" height="14.1"/>
<rect id="XMLID_23_" x="53.7" y="125" class="st1" width="136.1" height="14.1"/>
<path id="XMLID_29_" class="st0" d="M255.6,194.9h20.1h78.5c5.6,0,10.1-6.9,10.1-15.4v-59.3c0-8.5-4.5-15.4-10.1-15.4h-98.6
	c-5.6,0-10.1,6.9-10.1,15.4v59.3C245.5,188,250,194.9,255.6,194.9z"/>
<polygon id="XMLID_28_" class="st0" points="287.9,195 264.1,195 276,216 "/>
<rect id="XMLID_27_" x="255.6" y="119.7" class="st1" width="100.3" height="10.4"/>
<rect id="XMLID_26_" x="255.6" y="144.6" class="st1" width="100.3" height="10.4"/>
<rect id="XMLID_25_" x="255.6" y="164.8" class="st1" width="100.3" height="10.4"/>
<path id="XMLID_1_" class="st2" d="M177,305.5l21.7,1.1L185,323.5c2.2,3.5,4.7,6.7,7.5,9.7l19.7-9.1l-4.3,21.3
	c3.5,2,7.3,3.7,11.1,5.1l13.3-17.2l6.1,20.8c0.8,0,1.7,0.1,2.5,0.1c3.3,0,6.6-0.2,9.7-0.7l3.7-21.4l15.1,15.6
	c3.7-1.8,7.2-3.9,10.5-6.3l-6.6-20.7l20.6,6.8c2.4-3.3,4.6-6.8,6.4-10.4l-15.5-15.2l21.4-3.5c0.5-3.4,0.8-6.9,0.8-10.5
	c0-0.6,0-1.2,0-1.8l-20.8-6.3l17.3-13.1c-1.3-3.9-3-7.6-5-11.2l-21.3,4.1l9.3-19.6c-3-2.8-6.2-5.4-9.6-7.6l-17,13.5l-0.9-21.7
	c-3.9-1.1-7.9-1.9-12-2.3l-8.8,19.9l-10.9-18.8c-4.1,0.8-8,2-11.7,3.6l1.5,21.7l-18.4-11.6c-3.2,2.6-6.1,5.5-8.7,8.6l11.4,18.5
	l-21.7-1.7c-1.6,3.7-2.8,7.6-3.7,11.7l18.7,11.1l-20,8.5C175.3,297.6,176,301.6,177,305.5z M205,288c0-19.9,16.1-36,36-36
	s36,16.1,36,36c0,19.9-16.1,36-36,36S205,307.9,205,288z"/>
<path id="XMLID_14_" class="st2" d="M99,345.6l14.4,0.8l-9.1,11.1c1.5,2.3,3.1,4.4,5,6.4l13-6l-2.9,14.1c2.3,1.3,4.8,2.5,7.4,3.4
	l8.8-11.4l4,13.8c0.5,0,1.1,0,1.7,0c2.2,0,4.3-0.2,6.4-0.5l2.5-14.2l10,10.3c2.5-1.2,4.8-2.6,7-4.2l-4.4-13.7l13.6,4.5
	c1.6-2.2,3-4.5,4.2-6.9l-10.2-10.1l14.2-2.3c0.4-2.3,0.5-4.6,0.5-6.9c0-0.4,0-0.8,0-1.2l-13.7-4.2l11.5-8.7c-0.9-2.6-2-5.1-3.3-7.4
	l-14.1,2.7l6.1-13c-2-1.9-4.1-3.6-6.4-5l-11.2,8.9l-0.6-14.4c-2.6-0.7-5.2-1.2-8-1.5l-5.8,13.1l-7.2-12.4c-2.7,0.6-5.3,1.4-7.8,2.4
	l1,14.3l-12.2-7.7c-2.1,1.7-4,3.6-5.8,5.7l7.5,12.2l-14.3-1.1c-1,2.5-1.9,5.1-2.4,7.7l12.4,7.3l-13.2,5.6
	C97.9,340.4,98.3,343,99,345.6z M117.5,334c0-13.2,10.7-23.9,23.9-23.9c13.2,0,23.9,10.7,23.9,23.9c0,13.2-10.7,23.9-23.9,23.9
	C128.2,357.8,117.5,347.1,117.5,334z"/>
</svg>
