<?xml version="1.0" encoding="utf-8"?>
<!-- Generator: Adobe Illustrator 19.0.0, SVG Export Plug-In . SVG Version: 6.00 Build 0)  -->
<svg version="1.1" id="Calque_1" xmlns="http://www.w3.org/2000/svg" xmlns:xlink="http://www.w3.org/1999/xlink" x="0px" y="0px"
	 viewBox="0 0 50 50" style="enable-background:new 0 0 50 50;" xml:space="preserve">
<style type="text/css">
	.st0{fill-rule:evenodd;clip-rule:evenodd;fill:url(#XMLID_4_);}
	.st1{fill:#FFFFFF;}
</style>
<g id="XMLID_1_">
	
		<radialGradient id="XMLID_4_" cx="148.7132" cy="-434.272" r="62.0887" gradientTransform="matrix(0.3619 0 0 0.2984 -27.1436 154.8934)" gradientUnits="userSpaceOnUse">
		<stop  offset="0" style="stop-color:#B3E304"/>
		<stop  offset="1" style="stop-color:#93BA07"/>
	</radialGradient>
	<path id="XMLID_23_" class="st0" d="M24.9,46.9c0,0-0.9-1.2-1.2-1.6c-1.1-1.5-2.5-3.3-3.6-5.4l-0.1,0.4l-2,0
		c-0.2-0.2-0.4-0.3-0.6-0.5c-0.4-0.4-0.9-0.7-1.3-1.1c-2.9-2.7-4.8-5.9-5.8-9.3c-0.6-2.2-0.5-4.6,0.4-7.2c0.8-2.3,2-4.5,3.1-6.4
		l0.2-0.4c0.9-1.6,1.8-3.2,2.4-4.8c0.4-1.1,0.5-2.1,0.5-3.1c-0.1-0.6-0.3-1.3-0.6-1.9L16,5.3l1.8-2.3l0.2,0c0.1,0,0.3,0.1,0.4,0.1
		c2.2,0.6,4.3,1.6,6.4,3.1c4.1,3,7,6.6,8.6,10.6c2,4.9,1.4,9.6-1.8,14c0.6-0.2,1.2-0.5,1.8-0.7c0.4-0.2,0.9-0.3,1.3-0.5
		c0.3-0.1,0.6-0.2,0.9-0.3c0.7-0.2,1.3-0.5,1.8-0.7c1-0.4,1.5-1,1.8-1.7l2.8-0.3l0.1,0.2c0.1,0.2,0.2,0.4,0.3,0.6
		c0.6,1.1,0.9,2.4,0.9,3.8c0.1,2-0.3,3.9-1.2,5.6c-1.4,3-4.1,4.9-7.9,5.7l-1,0.2c-0.9,0.2-1.7,0.3-2.5,0.6c-1.7,0.4-2.1,1.2-2.3,2.4
		c0-0.2,0-0.3,0-0.4l-1.3,2.2l-1.2,0L24.9,46.9z"/>
	<path id="XMLID_20_" class="st1" d="M17.4,4.6c0.2,0,0.3,0.1,0.5,0.1c2.2,0.6,4.1,1.6,5.9,2.9c3.7,2.7,6.5,6,8.1,9.9
		c1.8,4.4,1.2,8.6-1.6,12.6c-1,1.4-2.1,2.6-3.1,4c-0.7,1-1.5,2-2.1,3c-1.2,2.2-0.9,4.3,0.4,6.4c0.3,0.5,0.7,1,1.1,1.6
		c0.3-0.9,0.5-1.8,0.7-2.6c0.7-2.1,1.8-4,3.5-5.6c1-0.9,2.2-1.6,3.5-2.2c1-0.5,2-1,3-1.5c1-0.6,1.8-1.3,2.4-2.3c0,0-0.1,0-0.1,0
		c0,0,0,0,0,0c-1.1,1.1-2.5,1.9-4.1,2.6c-0.7,0.3-1.4,0.6-2.1,0.8c-3.1,1.2-5.2,3.2-6.4,5.8c-0.1,0.2-0.2,0.5-0.3,0.7
		c0,0-0.1,0-0.1,0c0-0.5,0-1.1,0-1.6c0.1-1,0.4-2,0.9-3c0.7-1.5,1.8-2.6,3.5-3.4c1.3-0.6,2.8-1.1,4.1-1.6c0.9-0.4,1.9-0.7,2.8-1.1
		c1.2-0.6,2.2-1.4,2.6-2.6c0.2,0.3,0.3,0.5,0.4,0.7c0.5,1,0.7,2,0.8,3.1c0.1,1.7-0.2,3.3-1,4.8c-1.2,2.6-3.5,4.1-6.7,4.8
		c-1.2,0.3-2.4,0.5-3.6,0.8c-2.2,0.6-3.1,1.8-3.4,3.7c0,0.1,0.1,0.3,0.2,0.4c-0.4,0-0.7,0-1.2,0c-0.4-0.5-0.8-1-1.2-1.6
		c-1.8-2.4-3.5-4.9-4.7-7.7c-0.9-2.2-1.6-4.5-1.8-6.8c-0.2-2,0-4,0.7-5.9c0.6-1.9,1.4-3.7,2-5.5c0.6-1.8,1.1-3.6,1-5.4
		c-0.1-1-0.2-2-0.7-3c0,0.1,0,0.1,0,0.2c0.3,2.4-0.2,4.6-1.1,6.9c-0.8,2-1.7,3.9-2.6,5.9c-0.7,1.7-1.2,3.4-1.4,5.1
		c-0.2,1.4,0,2.8,0.2,4.2c0.4,2.3,1.3,4.5,2.4,6.6c0,0,0,0.1,0.1,0.1c0,0-0.1,0-0.1,0.1c-0.6-0.5-1.2-1-1.8-1.5
		c-2.6-2.5-4.5-5.3-5.3-8.5c-0.6-2.1-0.3-4.2,0.4-6.3c0.7-2.1,1.8-4.1,2.9-6.1c1-1.8,2-3.5,2.7-5.4c0.4-1.2,0.7-2.5,0.5-3.7
		C18.3,6.6,18,5.8,17.6,5C17.5,4.9,17.5,4.8,17.4,4.6 M18.1,1.5l-3.5,4.6l0.1,0.2c0.1,0.1,0.1,0.2,0.1,0.3c0.2,0.4,0.4,0.9,0.4,1.3
		c0.1,0.7-0.1,1.5-0.4,2.4c-0.5,1.5-1.4,3-2.3,4.5l-0.2,0.4c-1.1,2-2.4,4.2-3.2,6.7c-1,2.9-1.1,5.6-0.4,8.1c1,3.7,3.1,7.1,6.2,10
		c0.5,0.4,0.9,0.8,1.4,1.2c0.2,0.1,0.4,0.3,0.5,0.4l2.3,0.1c1.1,1.8,2.2,3.3,3.2,4.6c0.3,0.4,0.6,0.8,0.9,1.1l0.4,0.5l2.7,1.2l0.5,0
		l0.7,0l2.7-4.6c0.1,0.4,0.2,0.9,0.1,1.4c0.1-0.7,0.1-0.9,1.1-1.1c0.8-0.2,1.6-0.4,2.4-0.5c0.3-0.1,0.7-0.1,1-0.2
		c5.3-1.1,7.8-4.2,8.9-6.5c1-2,1.4-4.1,1.3-6.4c-0.1-1.7-0.4-3.1-1.1-4.5c-0.1-0.3-0.3-0.5-0.4-0.7l-0.1-0.2l-5.7,0.6
		c-0.1,0.2-0.2,0.5-1,0.8c-0.5,0.2-1.1,0.5-1.7,0.7c1.5-3.7,1.4-7.7-0.2-11.6C33.1,12,30,8.2,25.6,5c-2.2-1.6-4.5-2.7-6.9-3.4
		c-0.1,0-0.3-0.1-0.5-0.1L18.1,1.5L18.1,1.5z"/>
</g>
</svg>
