<?xml version="1.0" encoding="utf-8"?>
<!-- Generator: Adobe Illustrator 19.0.0, SVG Export Plug-In . SVG Version: 6.00 Build 0)  -->
<svg version="1.1" id="Calque_1" xmlns="http://www.w3.org/2000/svg" xmlns:xlink="http://www.w3.org/1999/xlink" x="0px" y="0px"
	 viewBox="0 0 800 600" style="enable-background:new 0 0 800 600;" xml:space="preserve">
<style type="text/css">
	.st0{fill-rule:evenodd;clip-rule:evenodd;fill:url(#XMLID_8_);}
	.st1{fill:#FFFFFF;}
	.st2{fill:#8D8E6F;}
	.st3{font-family:'SegoePrint';}
	.st4{font-size:94.9051px;}
</style>
<g id="XMLID_5_">
	<g id="XMLID_1_">
		
			<radialGradient id="XMLID_8_" cx="470.5131" cy="184.1467" r="58.1115" gradientTransform="matrix(1.7456 0 0 1.883 -229.8609 -116.0042)" gradientUnits="userSpaceOnUse">
			<stop  offset="0" style="stop-color:#B3E304"/>
			<stop  offset="1" style="stop-color:#93BA07"/>
		</radialGradient>
		<path id="XMLID_30_" class="st0" d="M587.5,362l-1.8-3c-1.3-2.3-2.8-4.7-4.2-7.1c-7.4-12.8-16.7-29.9-22.7-48.7
			c-4.9-15.2-7.8-29.4-9-43.4c-1-12.6,0.1-25.4,3.4-37.8c1.9-7.5,4.1-15,6.2-22.3c1.2-4.2,2.4-8.4,3.6-12.6
			c3.6-12.8,5.1-23.5,4.7-33.5c-0.7,8.3-2.5,17-5.4,26c-2.3,7.3-4.8,14.6-7.3,21.7c-1.8,5.1-3.6,10.4-5.3,15.6
			c-3.5,10.7-5.8,21.5-6.7,32c-0.7,7.8-0.3,16.3,1.1,26c2,13.5,5.7,27,11.5,41.4c0.1,0.2,0.2,0.4,0.2,0.6l0.1,0.2l-0.4,1.7l-0.4,0.3
			l-2.3-0.1c-0.9-1-1.8-2-2.7-3c-2-2.1-4.1-4.4-6-6.7c-13.1-16.2-21.9-34.5-26-54.5c-2.5-12.3-2-25.5,1.7-40.4
			c3.5-13.9,9.2-27.2,14.3-38.9l1-2.3c4.4-10.1,8.9-20.6,11.9-31.5c2.2-8.2,3.1-15.7,2.6-23.1c-0.3-5.2-1.5-10.4-3.6-15.5
			c-0.2-0.4-0.3-0.8-0.5-1.3l-0.4-1l1.9-2.1l0.8,0.2c0.6,0.2,1.1,0.3,1.6,0.5c10,3.5,19.4,9.5,28.8,18.5
			c18.7,17.9,32,39.2,39.5,63.4c8.6,27.8,5.9,54.9-8,80.4c-2.6,4.8-5.4,9.4-8.2,14c-2.2,3.6-4.5,7.3-6.6,11.1
			c-3.5,6.2-7.1,12.5-9.8,19.1c-5.3,12.6-4.7,25.9,1.8,39.3c1,2.1,2.1,4.1,3.3,6.3c0.1-0.4,0.2-0.9,0.3-1.3
			c0.8-3.9,1.5-7.5,2.5-11.1c3.7-14.5,9.4-26.3,17.4-36.2c5-6.2,11.4-10.4,17-14l1.6-1c2.1-1.3,4.1-2.6,6.2-3.9
			c-0.1,0-0.2,0.1-0.2,0.1c-1.1,0.6-2.2,1.2-3.3,1.8c-2.2,1.2-4.4,2.4-6.7,3.6c-14.1,7.1-24,18.8-30.2,35.9c-0.4,1-0.7,1.9-1,2.9
			l-0.5,1.5l-1.6,1.1l-0.4,0l-1.5-1.6c0-1,0-2,0-3.1c0-2.3-0.1-4.6,0.1-7c0.4-6.1,1.8-12.5,4.3-19.4c3.6-9.9,9.5-17.4,17.5-22.2
			c4.5-2.7,9.2-5,13.8-7.2c2.1-1,4.2-2.1,6.3-3.1c1.4-0.7,2.7-1.4,4.1-2c3.1-1.5,6.3-3.1,9.3-4.9c6.1-3.7,10-8.8,12-15.6l3-0.3
			c0.3,0.5,0.5,1,0.8,1.5c0.5,1,1,1.9,1.3,2.9c2.3,5.9,3.6,12.5,3.8,20.1c0.3,11.1-1.3,21.5-4.9,31.1c-6.1,16.2-17.4,26.8-33.6,31.3
			c-1.6,0.4-3.2,0.9-4.8,1.3c-4.1,1.1-8.4,2.3-12.5,3.7c-9.4,3.3-14,9.9-15.4,22.1c0,0.1,0.3,0.6,0.4,0.9c0.2,0.3,0.3,0.7,0.5,1
			l-1.4,2.2l-5.6,0.3L587.5,362z"/>
		<path id="XMLID_27_" class="st1" d="M546.8,100.2c1,0.3,1.7,0.5,2.3,0.7c10.7,3.7,19.9,10.2,28.3,18.2c18.1,17.2,31.4,38,39,62.7
			c8.5,27.6,5.8,54.1-7.9,79.2c-4.6,8.5-10,16.6-14.8,25c-3.5,6.3-7.1,12.6-9.9,19.2c-5.8,13.7-4.6,27.4,1.9,40.6
			c1.6,3.3,3.5,6.5,5.5,10.1c1.3-5.9,2.3-11.3,3.6-16.6c3.3-13.2,8.7-25.3,17.1-35.6c4.7-5.7,10.6-9.8,16.6-13.6
			c4.9-3.1,9.8-6.1,14.5-9.5c5-3.6,8.9-8.4,11.7-14.2c-0.2,0-0.3-0.1-0.3-0.1c0,0,0,0,0,0c-5.3,7.2-12.3,12.1-19.8,16.1
			c-3.3,1.8-6.6,3.7-9.9,5.3c-15.1,7.6-25,20.3-31,36.8c-0.5,1.5-1,2.9-1.6,4.4c-0.1,0-0.3,0-0.5,0c0-3.3-0.2-6.6,0-9.9
			c0.5-6.5,2-12.8,4.3-18.9c3.3-9.2,8.8-16.6,16.8-21.3c6.4-3.9,13.3-6.9,20-10.3c4.5-2.3,9.1-4.4,13.5-7c6-3.6,10.5-8.8,12.7-16.5
			c0.8,1.7,1.5,2.9,2.1,4.3c2.5,6.2,3.5,12.8,3.7,19.6c0.3,10.5-1.2,20.7-4.8,30.5c-6,16.1-17.1,26-32.6,30.3
			c-5.8,1.6-11.7,3-17.3,5c-10.5,3.7-15,11.3-16.5,23.4c-0.1,0.8,0.6,1.8,1,2.7c-1.7,0.1-3.5,0.2-5.6,0.3c-1.8-3.1-3.9-6.6-5.9-10.1
			c-8.9-15.4-17-31.2-22.6-48.4c-4.5-14-7.7-28.3-8.9-43.1c-1-12.6,0.1-25.1,3.3-37.3c3-11.7,6.6-23.2,9.8-34.9
			c3.1-11.1,5.2-22.5,4.8-34.2c-0.3-6.3-1.2-12.6-3.2-18.7c-0.1,0.4-0.2,0.8-0.1,1.1c1.6,14.9-0.7,29.3-5.2,43.3
			c-4,12.5-8.4,24.8-12.6,37.3c-3.5,10.5-5.8,21.3-6.8,32.3c-0.8,8.8-0.2,17.6,1.1,26.3c2.1,14.5,6.2,28.3,11.6,41.7
			c0.1,0.3,0.2,0.5,0.3,0.8c-0.1,0.1-0.3,0.2-0.4,0.3c-2.9-3.2-5.9-6.3-8.6-9.6c-12.7-15.6-21.5-33.5-25.6-53.9
			c-2.7-13.3-1.5-26.6,1.7-39.7c3.3-13.5,8.7-26,14.2-38.6c4.8-11.1,9.8-22.2,13-34c2.1-7.7,3.2-15.6,2.6-23.6
			c-0.4-5.5-1.6-10.9-3.7-15.9C547.4,101.9,547.2,101.3,546.8,100.2 M547.7,97.2l-3.9,4.2l0.4,1c0.2,0.5,0.4,0.9,0.5,1.3
			c2,4.9,3.1,9.9,3.5,15c0.5,7.2-0.4,14.6-2.5,22.6c-2.9,10.8-7.5,21.2-11.8,31.3l-1,2.3c-5.1,11.7-10.9,25.1-14.4,39.1
			c-3.8,15.1-4.3,28.5-1.8,41.1c4.2,20.3,13,38.9,26.3,55.2c1.9,2.4,4,4.6,6,6.8c0.9,1,1.8,2,2.7,3l4.5,0.2l0.1-0.1l0.3-0.2l0.9-3.5
			l-0.1-0.2c-0.1-0.2-0.2-0.5-0.3-0.7c-5.7-14.2-9.4-27.6-11.4-41c-1.4-9.5-1.7-17.9-1.1-25.6c0.9-10.4,3.1-21,6.6-31.6
			c1.7-5.2,3.5-10.5,5.3-15.6c1.3-3.8,2.6-7.6,3.9-11.5c-0.8,3-1.7,6-2.6,8.9c-2.1,7.3-4.3,14.8-6.2,22.3
			c-3.3,12.6-4.4,25.5-3.4,38.3c1.1,14.2,4.1,28.5,9,43.8c6.1,19,15.4,36.2,22.9,49.1c1.4,2.4,2.8,4.8,4.1,7c0.6,1,1.2,2.1,1.8,3.1
			l2.9,1.6l2.4-0.1l3.2-0.2l2.8-4.3c-0.2-0.4-0.4-0.8-0.5-1.2c-0.1-0.1-0.1-0.3-0.2-0.4c1.4-11.4,5.6-17.3,14.3-20.4
			c4-1.4,8.2-2.6,12.3-3.7c1.6-0.4,3.2-0.9,4.8-1.3c16.8-4.7,28.4-15.6,34.7-32.3c3.6-9.8,5.3-20.4,5-31.7
			c-0.2-7.9-1.5-14.6-3.9-20.7c-0.4-1-0.9-2-1.4-3c-0.2-0.5-0.5-1-0.7-1.5l-5.9,0.5c-1.8,6.4-5.5,11.2-11.3,14.7
			c-2.9,1.8-6,3.3-9.2,4.8c-1.3,0.7-2.7,1.3-4.1,2c-2.1,1.1-4.2,2.1-6.3,3.1c-4.6,2.2-9.4,4.6-13.9,7.3c-8.3,5-14.4,12.7-18.1,23
			c-2.6,7-4,13.5-4.4,19.8c-0.2,2.4-0.1,4.8-0.1,7.1c0,1,0,2,0,3l3,3.2l0.2,0l0.2,0l2-1.3c-0.8,2.5-1.5,5-2.2,7.7
			c-0.7,2.7-1.3,5.4-1.9,8.2c-0.4-0.8-0.8-1.6-1.2-2.4c-6.3-13-6.9-25.8-1.8-38c2.7-6.5,6.3-12.8,9.7-18.8l0-0.1
			c2.1-3.7,4.4-7.4,6.6-11c2.8-4.5,5.6-9.2,8.2-14c14.1-25.9,16.8-53.4,8.1-81.7c-7.5-24.5-20.9-46-39.9-64.1
			c-9.6-9.2-19.2-15.3-29.4-18.9c-0.6-0.2-1.1-0.3-1.7-0.5C548.2,97.3,548,97.2,547.7,97.2L547.7,97.2z"/>
	</g>
	<g id="stem">
		<g id="XMLID_7_">
			<path id="XMLID_14_" class="st2" d="M757.5,458.1c0,0-0.3-0.7-1-2.1c-0.7-1.3-1.8-3.3-3.5-5.7c-3.3-4.8-8.7-11.5-17-18.5
				c-8.2-7-19.3-14.2-33-20.1c-13.8-5.8-30.2-10.5-48.4-12.9c-9.1-1.3-18.7-2.1-28.7-2.5c-2.5-0.1-5-0.1-7.5-0.2c-2.5,0-5.1,0-7.7,0
				c-5.2,0.1-10.4,0.2-15.7,0.5c-10.6,0.5-21.5,1.5-32.6,2.9c-11.2,1.4-22.7,2.7-34.4,4c-23.3,2.6-47.5,5-72.1,7.3
				c-12.3,1.1-24.7,2.2-37.1,3.2c-12.4,1-24.9,1.9-37.5,2.7c-25,1.6-50.1,2.9-74.7,3.7c-24.7,0.8-49,1.1-72.5,0.8
				c-23.5-0.2-46.3-1.2-67.8-2.9c-21.5-1.7-41.8-4.1-60.4-7.7c-9.3-1.8-18.1-3.9-26.4-6.4c-8.2-2.5-16-5.4-22.8-9.3
				c-3.4-1.9-6.6-4-9.2-6.6c-2.7-2.5-5-5.6-5.9-9.1c-0.4-1.7-0.5-3.5-0.2-5.2c0.3-1.7,0.9-3.3,1.7-4.6c1.6-2.8,3.7-4.9,5.9-6.7
				c4.4-3.5,8.8-5.7,12.7-7.4c3.9-1.7,7.4-2.9,10.2-3.8c2.8-0.9,5-1.4,6.5-1.8c1.5-0.4,2.2-0.6,2.2-0.6s-0.8,0.2-2.2,0.6
				c-1.4,0.4-3.6,1.1-6.4,2.1c-2.8,1-6.1,2.3-9.9,4.1c-3.8,1.9-8.1,4.2-12.1,7.8c-2,1.8-3.9,3.9-5.2,6.4c-0.7,1.3-1.1,2.7-1.3,4.1
				c-0.2,1.4-0.1,2.9,0.4,4.4c0.9,2.9,2.9,5.6,5.5,7.8c2.6,2.3,5.6,4.2,8.9,5.9c6.7,3.4,14.3,6.1,22.4,8.3
				c8.2,2.2,16.9,4.1,26.1,5.6c18.4,3,38.6,5,60,6.2c21.4,1.2,44,1.6,67.4,1.5c23.4-0.1,47.6-0.8,72.2-1.9
				c24.6-1.1,49.5-2.6,74.4-4.5c12.5-0.9,24.9-1.9,37.3-3c12.4-1,24.8-2.1,37-3.3c24.5-2.3,48.6-4.9,71.9-7.5
				c11.6-1.3,23.1-2.7,34.3-4c11.3-1.3,22.5-2.3,33.3-2.7c10.9-0.5,21.5-0.4,31.7,0.2c10.2,0.6,20.1,1.7,29.5,3.3
				c18.8,3.4,35.7,8.7,49.6,15.7c7,3.5,13.2,7.2,18.7,11.1c5.5,3.9,10.2,8,14.1,11.9c7.9,7.9,12.8,15.2,15.6,20.4
				C756.7,455,757.5,458.1,757.5,458.1z"/>
		</g>
		<g id="XMLID_4_">
			<path id="XMLID_17_" class="st2" d="M639.8,431.6c0,0-1.2-0.1-3.4-0.2c-2.2-0.1-5.5-0.3-9.6-0.3c-1,0-2.1,0-3.3,0
				c-1.1,0-2.3,0-3.6,0c-2.5,0.1-5.2,0.2-8.1,0.3c-2.9,0.2-5.9,0.4-9.1,0.6c-3.2,0.2-6.6,0.5-10.1,0.8c-7.1,0.6-14.7,1.4-22.8,2.3
				c-8.1,0.9-16.6,1.8-25.4,2.8c-8.8,0.9-17.9,2-27.2,2.9c-9.3,0.9-18.7,1.8-28.1,2.8c-9.4,0.8-18.9,1.6-28.1,2.4
				c-9.3,0.8-18.4,1.5-27.3,2.1c-8.9,0.6-17.4,1.2-25.5,1.7c-8.1,0.5-15.8,0.9-22.9,1.3c-3.5,0.2-6.9,0.4-10.2,0.6
				c-3.2,0.1-6.3,0.3-9.2,0.4c-5.8,0.2-10.8,0.5-14.9,0.6c-8.3,0.3-13,0.5-13,0.5s4.7-0.4,13-1.1c8.3-0.7,20-1.6,34.2-2.8
				c7.1-0.6,14.7-1.2,22.8-1.9c8.1-0.7,16.6-1.5,25.5-2.2c8.8-0.8,18-1.6,27.2-2.4c9.3-0.8,18.7-1.7,28.1-2.5
				c18.8-1.8,37.7-3.6,55.3-5.2c8.8-0.9,17.4-1.6,25.5-2.3c8.1-0.7,15.8-1.3,22.9-1.7c3.5-0.2,6.9-0.5,10.2-0.5
				c3.2-0.1,6.3-0.2,9.2-0.2c2.9,0,5.6,0,8.1,0c1.2,0,2.4,0,3.6,0.1c1.1,0.1,2.2,0.1,3.3,0.2c4.2,0.1,7.4,0.6,9.6,0.8
				C638.6,431.5,639.8,431.6,639.8,431.6z"/>
		</g>
	</g>
	<text id="XMLID_3_" transform="matrix(0.9508 0 0 1 118.002 349.1738)" class="st1 st3 st4">AgriZara</text>
</g>
</svg>
