<?xml version="1.0" encoding="utf-8"?>
<!-- Generator: Adobe Illustrator 19.0.0, SVG Export Plug-In . SVG Version: 6.00 Build 0)  -->
<svg version="1.1" id="Calque_1" xmlns="http://www.w3.org/2000/svg" xmlns:xlink="http://www.w3.org/1999/xlink" x="0px" y="0px"
	 viewBox="0 0 400 400" style="enable-background:new 0 0 400 400;" xml:space="preserve">
<style type="text/css">
	.st0{fill:#FFFFFF;stroke:#666666;stroke-width:2;stroke-miterlimit:10;}
	.st1{fill:none;}
	.st2{fill:#666666;}
	.st3{font-family:'MyriadPro-Bold';}
	.st4{font-size:30px;}
	.st5{fill:#97BF0D;stroke:#FFFFFF;stroke-width:0.5;stroke-linecap:round;stroke-linejoin:round;}
</style>
<ellipse id="XMLID_47_" class="st0" cx="272.7" cy="81.5" rx="39" ry="38.5"/>
<ellipse id="XMLID_43_" class="st0" cx="205.9" cy="208.5" rx="155.1" ry="148.5"/>
<ellipse id="XMLID_48_" class="st0" cx="63.9" cy="142.3" rx="25.3" ry="25.3"/>
<rect id="XMLID_34_" x="50.8" y="130.4" class="st1" width="26.8" height="23.8"/>
<text id="XMLID_14_" transform="matrix(1 0 0 1 55.8633 151.7086)" class="st2 st3 st4">2</text>
<g id="XMLID_5_">
	<g id="boeny" transform="translate(325.8691,405.7803)" inkscape:label="boeny">
		<path id="path14" inkscape:connector-curvature="0" class="st5" d="M-152.2-239.5l0.1-0.2l0.1-0.1l0.2-0.1l0.2-0.1l0.4-0.1
			l0.2-0.1l-0.1-0.1l0.9-0.4l0.4-0.3l0.3-0.4l0.5-0.9l0.3-0.4l0.3-0.3l0.4-0.2l1-0.4l0.6-0.4l0.1,0.1l0,0.2l0,0.5l0.3,0.9l0,0.1
			l0,0.1l0,0.1l-0.1,0.3l0,0.3l0,0.2l0.1,0.1l0.2,0l0.2-0.1l0.2-0.2l0.1-0.2l0.2-0.2l0.5-0.2l0.2-0.2l0.1-0.3l0-0.1l-0.3-0.1
			l-0.2-0.2l-0.1-0.3l0-0.2l0.1-0.1l2.5-0.3l0.1,0l0.1-0.1l0.2-0.1l0.1,0.4l0.1,0.2l0.1,0l0,0.1l0,0.2l-0.2,0.5l0,0.2l0.3-0.1
			l0.1,0.3l0.1,0l0.2-0.3l-0.2-0.8l0-0.2l0.2-0.3l0.1-0.2l0,0l0-0.4l0-0.1l0.1-0.1l0-0.1l0-0.2l-0.1-0.2l-0.2-0.1l-0.1-0.1l0.1-0.2
			l0.5-0.5l0.5-0.3l0.2,0l0.3,0.1l0.2,0.1h0.2l0.2,0l0.6,0.4l0.3-0.1l0.9-0.6l0.2-0.1l0.2,0l0.2,0l0.3,0l0.1,0.1l0,0.5l0,0.3
			l0.1,0.1l0.1,0.1l0.2,0.1l0.1,0l0.3,0l0.1,0l0.4,0.2l0.4,0v-0.1l-0.2-0.2l-0.1-0.3l0.1-0.2l0.1-0.1l0.1-0.2l0-0.3l-0.4,0.2
			l-0.4,0.3l-0.2,0.1l0.1-0.4l0.2-0.4l0.3-0.3l0.4-0.3l0.4-0.2l0.4-0.1l0.4-0.1l0.8,0l0.4,0.1l0.2,0.1l0.1,0.1l0,0.2l0,0.2l0.1,0.2
			l0.1,0.1l-0.2,0.3l-0.1,0.3l-0.1,0.2l-0.3,0.2l0.3,0.3l0.2,0.3l0.2,0.3l0.5,1.1l0.2,0.3l0.3,0.3l0-0.2l0-0.2l0-0.2l0.1-0.1l0.1,0
			l0.2,0.3l0.1,0.1l0.3-0.1l0.1-0.3l0-0.3l-0.1-0.3l0.4,0l0.3,0.3l0.3,0.4l0.3,0.2l0.2-0.1l-0.2-0.4l-0.4-0.7l-0.3-0.1l-0.6-0.6
			l-0.4-0.1l-0.5,0l-0.1,0l-0.3-0.2l0-0.1l0.2-0.1l0.2-0.2l0.4-0.6l0.1-0.3l-0.2-0.2l-0.2,0l-0.2,0h-0.2l-0.1-0.1l0.1-0.3l0.2-0.4
			l0.2-0.6l0.3-0.3l0.7-0.6l1-1.1l0.4-0.3l0,0.1l0,0.1l0,0.1l0,0.1l0.2-0.1l0.4-0.4l0.7-0.5l0.2-0.2l0.4-0.2l0.4,0l0.4,0l0.4-0.1
			l-0.2-0.1l-0.5-0.1l-0.1-0.2l0.2-0.2l0.9-0.2l1.6-1.2l1.2-1.1l0.7-0.2l0.4-0.2l0.2-0.1l0.1,0.1l0,0.1l0,0.1l0,0.4l0,0.1l0.2,0.4
			l0.1,0.2l0.2,0.1l0.2,0.1l0.5,0.2l0.3,0.2l0,0.2l-0.2,0.2l-0.2,0.4l-0.2,0.2l-0.2,0.2l-0.2,0.2l-0.7,1.4l-0.2,0.5l0,0.4l0.2,0
			l0.1-0.2l0.1-0.5l0.2-0.2l0.3-0.1l0.6-0.1l0.5-0.2l0.5-0.3l0.5-0.1l-0.5,3l0.6,2.6l0.6,3.4l1.2,1.8l1,1.4l0.2,1.4l-1.2,1.4
			l-1.2,1.2l1.7,1.4l0.8,1.2l-0.6,0.8l-1.4-0.6l-1.7-0.8l-1.9-0.2l-2.3,0.2l-2.1,0.4l-0.7,2.7l-1.2,2.8l-1.7,0.4l-1,1.2l-1,0.6
			l-0.8,1.8l-1,0.6l-1.7-1.4l-1.2-1.6l-0.6-1h-3.3l-1.7-0.8l-2.9,0.6l-0.8-1.4l-1.6-0.4l-1.4-1.6l-0.2-1.4l-1.6-0.8l-1.9-1.6l-1-1.8
			l-0.2-2L-152.2-239.5z"/>
	</g>
	<g id="sofia" transform="translate(410.6113,435.3765)" inkscape:label="sofia">
		<path id="path18" inkscape:connector-curvature="0" class="st5" d="M-201.8-281.3l0.5,0.2l0.6-0.2l0.2-0.2l0.1-0.3l-0.1-0.1
			l-0.1,0l-0.1,0l-0.1,0l-0.1-0.1l-0.1-0.1l-0.3-0.5l-0.2-1l0-0.1l-0.1,0l-0.2,0l-0.1,0l-0.4,0.2l0-0.2l0-0.2l0.1-0.4l-0.2,0l-0.2,0
			l-0.1-0.1l-0.1-0.3l-0.3-0.2l-0.1-0.1l0-0.4l0.1-0.3l0.4-0.6l0.5-0.5l0.7-0.4l0.6-0.5l0.3-0.9l0.2-0.3l0.8-0.7l0.3-0.2l0.3-0.1
			l0.4,0l0.2-0.2l0-0.4l-0.1-0.3l-0.3,0l-0.2,0.1l-0.1,0.3l-0.2,0.1l-0.2,0l-0.1-0.1l-0.2-0.4h0.1l0.5-0.7l1.9-2.1l0.2-0.2l0.1,0.1
			l0.1,0.2l0.1,0.2l0.3,0.4l0,0.2l-0.1,1l0.1,0.2l0.1,0.1l0.1,0l0.1,0.1l0,0.2l0,0l-0.2,0.4l-0.9,1l-0.2,0.4l-0.2,0.5l-0.2,2
			l0.1,0.2l0.2,0.1l0.2,0l0.5-0.3l0.2-0.1l0.3-0.4l0.1-0.4l0.2-0.4l0.4-0.4l0.2,0.1l0.1-0.1l0-0.4l0.1-0.3l1.1-2.1l0.1-0.5l0.1-0.2
			l0.5-0.5l0-0.1l0-0.3l0.1-0.1l0.1-0.1l0.3-0.1l0.1-0.1l0.3-0.4l0.1-0.2l0.1-0.2l0.1-0.2l0.2-0.1l0.2-0.2l0.1-0.3l0.7,0.9l0.3,0.3
			l0.2,0.1l0.5,0.1l0.2,0.1l0.1,0.2l0,0.4l0,0.2l0.2-0.3l0-0.4l-0.1-0.3l-0.2-0.2l0.4-0.3l0.4,0l0.3,0.3l0.1,0.5l0,1.1l0.1,0.3
			l0.3-0.4l0.1-0.5l0-0.7l-0.1-0.6l-0.3-0.3l-0.2-0.1l-0.2-0.2l-0.3-0.4l-0.3-0.2l-0.2,0l-0.5,0.3l-0.2,0.1l-0.2,0l-0.2,0l-0.2-0.2
			l-0.1-0.2l-0.1-0.2l-0.1-0.1l-0.4,0.6l-0.2,0.2l-0.2,0.1l-0.1-0.1l-0.3-0.6l-0.1-0.2l0-0.1l0.2-0.2l0-0.1l0-0.2l-0.1-0.1l-0.1-0.1
			l-0.3-0.6l0-0.1l0.1-0.1l0,0l-0.2-0.1l0,0l0-0.7l0.1-0.5l0.2-0.5l0.3-0.4l0.4-0.2l0.1-0.1l0-0.3l0-0.5l0.1-0.2l0.1-0.2l0.4-0.1
			l0.7,0.5l0.5,0l0.2-0.1l0.3,0l0.1,0l0.1-0.2l0.1-0.3l0.1-0.3l0-0.2l-0.1-0.4l-0.2-0.4l-0.2-0.4l-0.3-0.2l0.2-0.2l0.3,0.1l0.6,0.5
			l0.1,0.1l0.1,0.1l0.1,0.1l0.1,0.1l0,0.2l-0.1,0.2l-0.1,0.1l-0.1,0.2l-0.1,0.4l-0.2,0.8l-0.1,0.4l0,0.1l0,0.2l0.1,0.2l0.2,0
			l0.1-0.1l0-0.2l0-0.2l0-0.1l0.1-0.1l0.2-0.1l0.2-0.1v-0.1l-0.1-0.1l-0.1-0.2l-0.1-0.2l0-0.2l0.1-0.4l0.4-0.6l0.1-0.3v-0.4l0-0.4
			l-0.1-0.3l-0.1,0l0,0l0,0l0.1-0.1l0.1,0l0.1-0.1l0-0.1l0-0.1l-0.2-0.2v-0.1l0-0.1l0.3-0.1l0.1,0l0.1,0l0.1-0.1l0,0l0,0l0-0.1
			l0-0.1l0-0.1l-0.1-0.2l0-0.1l0-0.1l0-0.1l0.1,0l0.6-0.3l0.1,0l0.3-0.3l0.1-0.1l0.6-0.3l0.5-0.4l0.1-0.1l0.1,0l0.1,0l0.1,0l0,0.1
			l0,0.1l0,0.1l0,0.1l-0.1,0.1l-0.3,0.3l0,0.1l-0.2,0.3l-0.4,0.3l0,0.1l0,0.1l-0.1,0.4v0.2l0,0.1l0,0.1l0.1,0.1l0.1,0.1l0.2,0l0.1,0
			l0.1,0l0.1-0.1l0.1-0.1l0.1,0l0.1,0l0.2,0.2l0.4,0.5l0.1,0.1l0.6,0.3l0.1,0.1l0.3,0.2l0.2,0.1l0.4,0.2l0.2,0.1l0.1,0l0.1,0
			l0.2-0.1l0.4-0.1l0.2-0.1l0.4-0.2l0.1-0.1l0.2-0.2l0.1,0l0.1,0l0.1,0l0.1,0.1l0.2,0.1l0.6,0.7l0.1,0.1l0.2,0.1l0.5,0.2l0.1,0
			l1,0.8l0.1,0l0.1,0l0.1,0l0.1,0l0.1,0l0.2-0.1l0.1,0h0.2l0.1,0l0.1,0l0.1-0.1l0.1,0l0.1,0l0.1,0.1l0.3,0.5l0,0.1l0,0.2l0,0.1
			l0.1,0l0.1,0l0.1,0l0.1-0.1l0-0.1l0.1-0.1l0.4-0.3l0.3-0.1l0.1,0l0.1-0.1l0.4-0.6l0.1-0.1l0.1,0l0.1,0l0.2,0l0.2-0.1l0.1,0l0.1,0
			l0.2,0.1l0.1,0.1l0.1,0l0.3,0l0.1,0l0.1,0l0.8,0.5l0.1,0l0.1,0l0.1,0l0.1,0.1l0.1,0.3l0.2,0.6l0,0.1l0.1,0.1l0.1,0.1l0.1,0.1
			l0.1,0.2l0.1,0.1l0.4,0.3l0.5,0.6l0.5,0.3l0.1,0.1l0.1,0.1l0.2,0.4l0.3,0.4l0.3,0.3l0.1,0l0.2,0.1l0.2,0.1l0.1,0l0.2,0.2l0.1,0
			l0.2,0.1l0.1,0l0.2,0.2l0,0.1l0,0.1l0,0.2l0,0.1l-0.1,0.1l-0.2,0.1l-0.1,0.1l0,0.1l-0.1,0.1l0,0.1l0,0.1l0,0.1l0.3,0.2l0.3,0.4
			l0.1,0.2l0.1,0.2l0.6,1.3l0,0.1l0,0.1l0,0.1l0,0.2l0,0.1l0,0.1l0.3,0.8l0.1,0.1l0.1,0.1l0.2,0.1l0.2,0.1l0.1,0.1l0.1,0.1l0.8,1
			l0.1,0.2l0.2,0.6l-0.1,0l-0.1,0l-0.1,0l-0.1,0l-0.1,0.1l-0.3,0.4l-0.1,0.1l-0.1,0l-0.1,0l-0.1,0l-0.1,0l-0.1,0l0,0l-0.4-0.3
			l-0.1,0l-0.1,0l-0.1,0l-0.1,0.1l0,0.2l0,0.1l0,0.1l0.1,0.4l0,0.2l0,0.2l0,0.1l-0.1,0.4l0,0.1v0.1l0,0.1l0,0.1l0,0.1l0,0.1l0,0.2
			l0,0.3l0,0.1l-0.1,0.1l-0.1,0.1l-0.1,0l-0.1,0l-0.2,0l-0.2,0l-0.2-0.1l-0.1,0l-0.1,0l-0.1,0l0,0.1l0,0.1v0.1l0,0.1l0,0.1l0.1,0.1
			l0,0.1l0,0.1l0,0.1l0,0.1l0,0.1l-0.1,0.2l0,0.1l-0.1,0.1l-0.1,0.1l-0.1,0l-0.1,0l-0.3-0.1l-0.1,0l-0.1,0l-0.1,0l-0.1,0.1l-0.1,0.2
			l-0.1,0l-0.2,0.1l-0.4,0.3l-0.1,0l-0.1,0l-0.2,0l-0.1,0l-0.1,0l-0.1,0l-0.1,0l-0.1,0.1l-0.1,0.1l-0.1,0.1l-0.1,0.1l-0.1,0.1
			l-0.1,0.1l-0.1,0.1l-0.3,0.1l-0.4,0.2l-0.1,0l-0.1,0l-0.1,0l-0.2,0h-0.1l-0.1,0l-0.2,0l-0.4,0.1l-0.2,0l-0.1,0.1l-0.1,0.1l0,0.2
			v0.1l0,0.1l0.1,0.1l0,0.1l0,0.2l0,0.1l0,0.1l0.1,0.1l0,0.1l0.1,0l0.1,0l0.1,0l0.1,0l0.1,0l0.1,0l0.2,0l0.1,0l0.1,0l0.1,0l0.1,0
			l0.1,0l0.1,0l0.1,0h0.1l0,0.1l0,0.1l0,0.1l-0.1,0.1l-0.2,0.2l-0.3,0.2l-0.1,0.1l0,0.1l0,0.2l0,0.1l0,0.1l0,0.1l0,0.1l0,0.1v0.1
			l-0.3,2l-0.2,0.7l0,0.2v0.1l0,0.1l0,0.1l0,0.1l0.2,0.3l0.1,0.1l0.1,0.3l0.1,0.3l0.2,0.9l0,0.2l0,0.1l0,0.1l-0.2,0.4l-0.2,0.3
			l-0.4,0.4l-0.1,0.1l-0.1,0.2l-0.2,0.5l0,0l-0.1,0.6l-0.2,0.5l0,0.1l0,0.1l0.1,0.1l0.1,0l1.4,0.7l0.5,0.1l0.6,0l0.2,0l0.2,0.1
			l0.1,0l0.1,0.1l0,0.1l0,0.1l0,0.1l0,0.2l0,0.1l0.1,0.2l0,0.1l0,0.1l0,0.1l-0.1,0.2l-0.9,1.7l-0.1,0.2l0,0.2l0,0.1l0,0.1l-0.2,0.4
			l-0.3,0.2l-0.6,0.3l-0.1,0l-0.1,0l-0.1,0l-0.1,0l-0.1,0.1l-0.1,0.2l0,0.1l0,0.2l0,0.1l-0.1,0.2l-0.2,0.3l-0.2,0.4l-0.1,0.1
			l-0.1,0.1l-0.1,0.1l-0.1,0.1l-0.1,0.1l-0.1,0.2l0,0.1l0,0.1l0.1,0.1l0.1,0.2l0,0.1l0,0.1l-0.1,0.1l-0.1,0.1l-0.1,0l-0.8,0.1
			l-0.1,0l-0.1,0l-0.3-0.1l-0.1,0l-0.3,0l-0.2,0l-0.1,0l-0.1,0l-0.1,0l-1.3,0.9l-0.3,0.3l-0.1,0.1l-0.1,0.1l-0.1,0l-0.1,0l-0.1,0
			l-0.1,0l-0.1,0l-0.1-0.1l-0.5-0.7l-0.1-0.3l-0.1-0.2l0-0.2v-0.2l0-0.1l0-0.2l0.1-0.2l0.2-0.4l0.1-0.2l0-0.1l0-0.1l0-0.1l0-0.1
			l-0.2-0.2l-0.1-0.1l0-0.1l0-0.1l0-0.1l0-0.2l0-0.4l0-0.1l0-0.1l-0.1-0.1l0-0.1l0-0.2l0-0.1l-0.1,0l-0.1-0.1l-0.1-0.1l0-0.1l0-0.2
			l0-0.1l-0.1-0.1l-0.3-0.2l-0.3-0.1l-0.3-0.1l-0.2-0.1l-0.3-0.2l-0.4-0.6l-0.2-0.2l-0.1-0.1l-0.1,0l-0.1,0l-0.4,0.1l-0.2,0l-0.1,0
			l-0.2,0l-0.1,0l0-0.1l0-0.1l0-0.3l0-0.1l-0.1-0.1l-0.1,0l-0.3-0.1l-0.1,0l-0.1,0l-0.1-0.1l-0.2-0.1l-0.1-0.1l-0.2-0.3l-0.2-0.2
			l-0.1,0l-0.1,0l-0.1,0l-0.2,0l-0.1,0l-0.1,0l-0.1,0l-0.2,0l-0.7,0.1l-0.1,0l-0.2,0.1l-0.1,0l-0.3,0.1l-0.1,0l-0.1,0l-0.1,0l-0.1,0
			l-0.1,0l-0.4,0l-0.1,0l-0.1,0l-0.1-0.1l-0.1,0l-0.1,0l-0.1,0l-0.2,0l-0.2,0l-0.2-0.1l-0.1,0h-0.1l-0.1,0l-0.1,0.1l-0.1,0l0,0
			l-0.1,0l-0.1-0.1l-0.1,0l-0.1,0l0,0.1l0,0.2l0,0.1l-0.1,0.1l-0.1,0.1l-0.2,0.1l-0.1,0.1l-0.1,0.1l-0.1,0.2l0,0.1v0.1l0.1,0.6
			l0,0.2l0,0.1l-0.1,1l0,0.1l-0.1,0.3l0,0.1l0,0.4l-2.4-0.6l-1.4-0.6l-0.8-0.6h-1.7l-1.4-0.8l-1.4-0.8l-0.2-1.4l-1-1.4l-1.2-1.8
			l-0.6-3.4l-0.6-2.6L-201.8-281.3z"/>
	</g>
	<g id="diana" transform="translate(454.8291,515.7871)" inkscape:label="diana">
		<path id="path22" inkscape:connector-curvature="0" class="st5" d="M-227.7-395.1l0.1,0.1l0.2,0.1l0.2,0.2l0,0.2l-0.1,0.1
			l-0.2,0.1l-0.2,0l-0.2,0l-0.1,0l-0.1-0.1l0-0.1v0l-0.1,0l-0.2,0.1l-0.6-0.1l-0.2-0.1l-0.2-0.2h-0.1v0.2l-0.1,0l0,0l0,0l-0.1,0
			l-0.1-0.2l-0.1-0.3l-0.1-0.7l0.1-0.3l0.1-0.3l0-0.2l-0.2-0.1l0.2-0.2l0.2,0.1l0.2,0.1l0.2-0.1l0.1,0.1l0.1,0.1l0.2,0l0.1-0.1
			l0-0.1l-0.1-0.1l-0.1-0.1l-0.1-0.1l0-0.3l0.1-0.2l0.2-0.1l0.3,0l0.3,0.1l0.1,0.2l0,0.3l-0.2,0.3l0.1,0.1l0.2,0.3l0.1,0.4l0,0.2
			l0.2,0.1l-0.1,0.3l-0.2,0.3L-227.7-395.1z M-232.3-383.9l-0.5-0.2l-0.3-0.2l-0.6-0.5l1.2-0.6v-0.2l-0.7-0.5l-0.6-0.3l-0.2-0.1
			l-0.4-0.8l-0.2-1l0.1-0.9l0.7-0.3l-0.2-0.2l-0.2-0.1l-0.1-0.1l0-0.4l0-0.3l0.1-0.5l0.2-0.3l0.3,0.1l0.2,0l0.1-0.4l0.1-0.7l0.1-0.1
			l0.2-0.1h0.2l0.1,0.2l-0.1,0.1l-0.2,0.1l-0.1,0.2l0.1,0.2l0.1,0l0.2,0l0.1,0l-0.1,0.2l0,0.2l0.1,0.1l0.2-0.1l0.1-0.1l0-0.1
			l0.1-0.1l0.2-0.1l-0.3-0.3l0-0.1l0.6,0l0.2,0.2l0.1,0.4l0.1,0.4l0.1,0.3l0.4-0.2l0.2,0.1l0.1,0.3l0.1,0.4l0.3,0.7l0,0.3v0.1l0,0.1
			l0,0.1l0.2,0.1l0,0.1l-0.2,0.2l0.2,0.3l0.4,0.3l0.5,0.2l0.3,0.1l0.4-0.1l0.4-0.3l0.2-0.4l-0.3-0.4l0.1-0.2l0-0.8l0.1-0.3l0.3-0.5
			l0.1-0.2l-0.3-0.6l-0.1-0.3l0.3-0.1l0.2,0.1l0.5,0.7l0.1-0.3l0.1-0.3l0.2-0.2l0.2-0.2l0.2-0.1l0.3,0l0.3,0l0.2,0l0-0.1l0-0.2
			l0-0.1l0.4,0.3l0.2,0.1l0.1,0l0-0.1l-0.3-0.6l-0.1-0.4l-0.3-0.4l-0.1-0.2l0-0.2l0-0.2l0.1-0.4l0.2,0.1l0.1,0.1l0.1,0.2l0.2,0.2
			l0,0.3l0.3,0.2l0.8,0.3l0.1,0l0.2,0l0.2-0.1l0.2,0l0.2,0l0.2,0.1l0.2,0l0.6-0.2l0.6-0.3l0.5-0.4l0.4-0.5l-0.3-0.3l0.2-0.5l0.6-0.7
			l-0.1-0.2l-0.2-0.4l0-0.2l0-0.5l0-0.3l0.3-1.3l0.2-0.4l0.4-0.6l0.1-0.2l0.1-0.3l0-0.2l0.1-0.2l0.2-0.2l0.2-0.2l0.2-0.1l-0.1-0.4
			l0.2-1l0-0.4l-0.1-0.2l-0.3-0.4l-0.1-0.2l-0.1-0.2l-0.1-0.2l-0.1-0.7l-0.1-0.2l-0.2-0.3l-0.1-0.1l-0.1,0l-0.1,0l-0.1-0.2l0-0.2
			l0.1-0.1l0.1-0.1l0.1-0.1l0-0.1l-0.1-0.2l0-0.1l0.2-0.4l0,0l-0.1-0.2l-0.2,0l-0.2,0.1l-0.2,0.1l0-0.5l-0.1-0.3l-0.5-0.5l-0.2-0.6
			l-0.1-0.2l0,0.3l-0.6-0.3l0.2-0.2l0.3-0.4l0.2,0l0.2,0.1l0.2,0l0.4,0l0.5,0.1l0.3,0.3l0.5,0.9l0.2,0.1l0.2-0.1l0.2-0.2l0.1-0.2
			l0.1-0.2l0-0.8l0-0.1l0.2-0.3l0-0.1l0-0.2l0-0.1l0.1-0.2l0.2-0.2l0.2-0.1l0.2,0.1l0.1-0.3l0.2-0.1l0.2-0.1l0.2-0.2l0.2,0.3
			l0.2-0.2l0.2-0.4l0.2-0.2l0.3,0.2l0.2-0.1l0.2-0.3l0.1-0.3l0-0.1l-0.1-0.1l0-0.1l0-0.2l0.1-0.2l0.1-0.1l0.1-0.1l0.1-0.1l0.2,0
			l0-0.1l-0.1-0.2l-0.1-0.2l-0.1,0l-0.1,0l-0.2,0l-0.1-0.1l-0.1-0.1l-0.1-0.1l-0.1-0.1l-0.2,0l-0.6,0l0.2-0.3l0.6-0.2l0.2-0.3
			l0.2,0.2l0.5,0.7l0.1-0.1l0.1,0.1l0-0.3l-0.1-0.3l-0.2-0.3l-0.3-0.1l0.1-0.2l0.1-0.1l0.1-0.1l0.1-0.1l0.2-0.1l0,0l0-0.1l-0.1-0.1
			l0-0.1l0-0.1l0.5-0.5l0.3-0.2l0.3,0.1l0.2,0.1l0.4,0.5l0.1,0.2l0,0.5l0.1,0.2l0.3,0.4l0,0.4l0,0.4l0.1,0.5l0.3,0.6l0,0.2l-0.1,0
			l-0.6-0.7l-0.1,0l-0.1,0.1l-0.1,0.2l-0.1,0.1l-0.2-0.1l-0.2-0.2l-0.1-0.2l0-0.2l-0.2,0.1l-0.1,0.1l-0.1,0.2l0,0.2l0.2,0.1l0,0.2
			l-0.3,0.5l0.2,0l0.3,0l0.3,0.1l0.1,0.1l-0.1,0.1l-0.2,0.2l0,0.1l0,0.1l0.1,0.1l0.1,0.1l0.1-0.1l0.2-0.3l0.1-0.1l0.1,0.1l0.2,0.2
			l0,0.1l-0.1,0.1l0,0.1l0.2,0l0.3,0l0.1,0l0.1-0.1l0.1-0.3l-0.2-0.4l0.1-0.2l0.3-0.2l0.2,0.1l0.4,0.7l0,0.2l0,0.2l0,0.2l0.1,0.2
			l0.2,0.2l0.1,0.2l0,0.3l0.1-0.2l0.1-0.1l0.2-0.1l0.2,0l0.2,0l0.1,0.1l0.1,0.1l0.3,0.3l0.1,0.2l0,0.2l-0.1,0.1l-0.2-0.1l-0.2-0.1
			l-0.2,0l-0.2,0.2l0.4,0.3l0.2,0.2l0.2,0l0.3-0.4l0.4,1l0.1,0.3l0,0.4l0,0.2l-0.1,0l-0.1-0.2l0-0.2l0-0.4l-0.1,0.4l0.2,0.9
			l-0.1,0.4l-0.1,0.2l-0.1,0.2l0,0.2l0,0.2l0.1,0.3l0.1,0l0.1-0.1l0.2,0l0.2,0.2l0.3,0.3l-1.4,1.5l-1.4,1.4l-1,1.4l1.2,0.2l0.2,1.2
			l-0.8,1.4l-0.2,2.8l-1,1l1,3.2l-0.8,3.2l-0.4,1.2l-0.2,1.4l-1.6,0.4l-0.8,2.6l-1.3,1.4l-0.1,0l-0.8-0.5l-0.1,0l-0.1,0l-0.3,0
			l-0.1,0l-0.1-0.1l-0.2-0.1l-0.1,0l-0.1,0l-0.2,0.1l-0.2,0l-0.1,0l-0.1,0l-0.1,0.1l-0.4,0.6l-0.1,0.1l-0.1,0l-0.3,0.1l-0.4,0.3
			l-0.1,0.1l0,0.1l-0.1,0.1l-0.1,0l-0.1,0l-0.1,0l0-0.1l0-0.2l0-0.1l-0.3-0.5l-0.1-0.1l-0.1,0l-0.1,0l-0.1,0.1l-0.1,0l-0.1,0h-0.2
			l-0.1,0l-0.2,0.1l-0.1,0l-0.1,0l-0.1,0l-0.1,0l-0.1,0l-1-0.8l-0.1,0l-0.5-0.2l-0.2-0.1l-0.1-0.1l-0.6-0.7l-0.2-0.1l-0.1-0.1
			l-0.1,0l-0.1,0l-0.1,0l-0.2,0.2l-0.1,0.1l-0.4,0.2l-0.2,0.1l-0.4,0.1l-0.2,0.1l-0.1,0l-0.1,0l-0.2-0.1l-0.4-0.2l-0.2-0.1l-0.3-0.2
			l-0.1-0.1l-0.6-0.3l-0.1-0.1l-0.4-0.5l-0.2-0.2l-0.1,0l-0.1,0l-0.1,0.1l-0.1,0.1l-0.1,0l-0.1,0l-0.2,0l-0.1-0.1l-0.1-0.1l0-0.1
			l0-0.1v-0.2l0.1-0.4l0-0.1l0-0.1l0.4-0.3l0.2-0.3l0-0.1l0.3-0.3l0.1-0.1l0-0.1l0-0.1l0-0.1l0-0.1l-0.1,0l-0.1,0l-0.1,0l-0.1,0.1
			l-0.5,0.4l-0.6,0.3l-0.1,0.1l-0.3,0.3l-0.1,0l-0.6,0.3l-0.1,0l0,0.1l0,0.1l0,0.1l0.1,0.2l0,0.1l0,0.1l0,0.1l0,0l0,0l-0.1,0.1
			l-0.1,0l-0.1,0l-0.3,0.1l0,0.1v0.1l0.2,0.2l0,0.1l0,0.1l-0.1,0.1l-0.1,0L-232.3-383.9L-232.3-383.9L-232.3-383.9z"/>
	</g>
	<g id="sava" transform="translate(503.4922,542.0684)" inkscape:label="sava">
		<path id="path26" inkscape:connector-curvature="0" class="st5" d="M-256.2-432.3l0.3,0.3l0.1,0.3l0,0.2l0.2,0.3l0,0.2l0,0.2
			l-0.2,0.3l-0.1,0.2l0.1-0.1l0.1,0l0.1,0l0.1,0.1l0.1-0.2l0.1-0.1l0.1-0.1l0.1-0.4l0.1-0.1l0.2,0l0.2,0.1l-0.1,0.2l0,0.1l0.2,0.1
			l0.2,0.1l0.2,0.1l0.4,0.4l0.1,0.1l-0.1,0.4l0,0.1l0.2,0.4l0.1,0.2l0.2,0.1l0.2,0l0.2,0l0.1,0.1l0,0.3l-0.1,0.1l-0.2,0l-0.1,0.1
			l0.2,0.3l0.2,0.1l0.2,0.1l0.2,0.1l0.1,0.3l0.1,0.2l0.4,0.4l0.1,0.2l0,0.9l-0.1,1.3l0,0.2l0.1,0.3l0,0.3l0.1,0.2l0.4,0.6l0,0.3
			l-0.1,0.7l0.1,0.2l0.2,0.1l0.2-0.1l0.2-0.1l0.2,0l0.1,0.2l0,0.3l-0.1,0.5l0,0.4l0.2,0.9l0.2,0.4l0.1,0.1l0.2,0.1l0.1,0.1l0,0.1
			l0,0.3l0,0.1l0.1,0.3l0,0.1l0,0.1l0.1,0l0.1,0l0.1,0l0.1,0l0,0.1l0,0.1l0,0.1l0,0.2l-0.1,0.5l0.1,0.3l0.1,0.2l0.4,0.8l0.1,0.5
			l0.2,3.2l0.3,1.2l0,0.5l0,0.6l-0.1,0.4l0,0.3l0,0.6l0,0.3l0.1,0.2l0.4,0.4l0.3,0.5l0,0.5l-0.2,1.2l-0.1,0.5l0,0.2l0,0.3l0.2,0.8
			l0.1,1.8l0.4,0.9l0,0.6l-0.1,0.5l-0.3,0.2l0.1,0.2l0.4,0.2l0.2,0.1l0.1,0.2l0.1,0.3l0.2,1l1.1,2.5l0.3,0.4l0.8,0.9l0.2,0.3
			l0.1,0.5l0.2,0.2l0.2,0.1l0.2,0.1l0.2,0.4l0.1,0.5l0.1,1l0,0.1l-0.1,0.3l-0.1,0.2l0,0.1l0,0.1l0,0.2l0,0.1l-0.1,0.4l0,0.2l0,0.2
			l0,0.1l0,0.1l-0.1,0.1l-0.2,0.2l-0.1,0.1l-0.1,0.6l-0.3,0.8l0,0.3l-0.1,0.4l-1.4,2.6l-0.1,0.5l0.2,0.1l-0.1,0.2l-1.1,1.5l-0.4,0.9
			l-0.2,0.2l-0.2,0.1l-0.2,0l-0.2,0l-0.2,0.2l-0.3-0.8l-0.3-0.3l0,0l-0.1-0.1l-0.6-1.9l0-0.3l0-0.1l-0.1-0.1l-0.1-0.2l-0.1-0.2
			l-0.1-0.2l-0.1-0.3l-0.1-0.5l-0.2-0.6l-0.3-0.6l0-0.1l0-0.1l0.2-0.6l0-0.1l0-0.4l0-0.1l0-0.1l0.3-0.7l0-0.1l0-0.1l0-0.1l-0.1-0.2
			l-0.6-0.9l-0.1-0.2l0-0.1l0-0.1l0-0.2l0.1-0.4l0-0.1l0.2-0.3l0-0.1l0-0.1l-0.1-0.2l-0.1-0.2l-0.3-0.4l-0.1-0.2l0-0.1l0.1-0.1
			l0.1-0.1l0.1,0l0.1-0.1l0.4-0.2l0.1,0l0.1,0l0.1-0.1l0-0.1l0-0.1l0-0.1l-1-1.3l-0.3-0.6l-0.1-0.1l-0.1,0l-0.1,0l-0.1,0l-0.1,0
			l-0.1,0l-0.2,0.1l-0.1,0l-0.2,0l-0.8-0.1l-0.2,0l-0.2,0l-0.1,0l-1.3,0.5l-0.1,0l-0.1-0.1l-0.2-0.2l-0.3-0.5l-0.1-0.2l-0.3-0.4
			l-0.9-0.8l-0.2-0.6l-0.1-0.2l-0.8-1l-0.1-0.1l-0.1-0.1l-0.2-0.1l-0.2-0.1l-0.1-0.1l-0.1-0.1l-0.3-0.8l0-0.1l0-0.1l0-0.2l0-0.1
			l0-0.1l0-0.1l-0.6-1.3l-0.1-0.2l-0.1-0.2l-0.3-0.4l-0.3-0.2l0-0.1l0-0.1l0-0.1l0.1-0.1l0-0.1l0.1-0.1l0.2-0.1l0.1-0.1l0-0.1l0-0.2
			l0-0.1l0-0.1l-0.2-0.2l-0.1,0l-0.2-0.1l-0.1,0l-0.2-0.2l-0.1,0l-0.2-0.1l-0.2-0.1l-0.1,0l-0.3-0.3l-0.3-0.4l-0.2-0.4l-0.1-0.1
			l-0.1-0.1l-0.5-0.3l-0.5-0.6l-0.4-0.3l-0.1-0.1l-0.1-0.2l-0.1-0.1l-0.1-0.1l-0.1-0.1l0-0.1l-0.2-0.6l-0.1-0.3l-0.1-0.1l-0.1,0
			l-0.1,0l1.3-1.4l0.8-2.6l1.6-0.4l0.2-1.4l0.4-1.2l0.8-3.2l-1-3.2l1-1l0.2-2.8l0.8-1.4l-0.2-1.2l-1.2-0.2l1-1.4l1.4-1.4
			L-256.2-432.3z"/>
	</g>
	<g id="analajirofo" transform="translate(515.4502,383.5649)" inkscape:label="analajirofo">
		<path id="path30" inkscape:connector-curvature="0" class="st5" d="M-263.2-208.1l0.1-0.2l0-0.3l0.1-0.2l0.1-0.2l0.2-0.1l0.6-0.3
			l-0.1,0.4l-0.6,1.2l-0.4,1.2l-0.8,1.7l-0.6,0.7l-0.4,1l-0.3,0.4l-0.1-0.4l0.1-0.4l0.4-0.8l0.1-0.2l0-0.2l0-0.5l0.1-0.3l0.1-0.2
			l0.4-0.4L-263.2-208.1z M-260.5-221.9l-0.4,0.1l-0.8-0.7l-0.3-0.3l-0.1-0.5l-0.1-0.8l0-0.1l-0.2-0.1l-0.2-0.2l-0.2-0.2l-0.1-0.2
			l-0.1-0.2l-0.1-0.3l0-0.3l0-0.3l0.1-0.3l0.1-0.2l0-0.2l-0.2-0.2l-0.1-0.1l-0.1,0l-0.1,0l-0.1,0l-0.1,0l-0.4-0.6l0-0.2l0.1-0.5
			l0-0.3l-0.1-0.8l0-0.1l0.1-0.1l0-0.1l-0.1-0.1l-0.1,0l-0.3,0l-0.4,0.2l-0.6,0.1h-1l-0.5,0.2l-0.3,0.3l-0.9,1.3l0,0.4l0.3,0.9
			l0,0.2l0,0.2l-0.2,0.4h0l0.1,0.2l0.2,0.2l0.2,0.2l0.1,0.5l0.2,0.5l0.1,0.8l0.2,0.5l0.2,0.4l0,0.2l-0.1,0.3l-0.1,0.3l-0.5,0.8
			l-0.1,0.5l0,0.5l0.1,0.5l0.2,0.5l0.4,0.4l1,0.4l0.4,0.3l0.4,0.5l0.1,0.5l-0.3,1.5l0,0.6l0.1,0.6l0.3,0.2l0.2,0.1l0,0.2l-0.1,0.6
			l-0.1,0.2l0,0.1v0.6l-0.1,0.2l-0.8,1.4l-0.4,0.5l-0.7,0.6l0,0.7l0.1,0.3l0.2,0.4l0.3,0.3l0.3,0.2l0.4,0.1l0.4,0l-0.5,0.3l-0.5,0.2
			l-0.9,0.1l-0.4,0.2l-0.8,0.1l-0.3,0.1l-0.2,0.2l-0.2,0.3l-1,2.1l-0.7,2l-0.8,1.9l-0.2,1.2l0.1,0.2l0.5,0.8l0.3,1.6l-2.2,0.2
			l-0.6,1.2v1.2l-1.9,0.6l-2.3,0.2l-2.1,0.4l-0.4-1.4l-1.6-0.8l-0.4-0.8l1.4-1l0.8-2.1l-1-1.2l0.8-1.8l-0.4-2.6l1-2.4v-1.4l0.4-1.8
			l0.8-0.1l0.1,0l0.1-0.1l0.1-0.1l0-0.1l0-0.1l-0.1-0.2l-0.1-0.1l0-0.1l0-0.1l0.1-0.2l0.1-0.1l0.1-0.1l0.1-0.1l0.1-0.1l0.1-0.1
			l0.2-0.4l0.2-0.3l0.1-0.2l0-0.1l0-0.2l0-0.1l0.1-0.2l0.1-0.1l0.1,0l0.1,0l0.1,0l0.1,0l0.6-0.3l0.3-0.2l0.2-0.4l0-0.1l0-0.1l0-0.2
			l0.1-0.2l0.9-1.7l0.1-0.2l0-0.1l0-0.1l0-0.1l-0.1-0.2l0-0.1l0-0.2l0-0.1l0-0.1l0-0.1l-0.1-0.1l-0.1,0l-0.2-0.1l-0.2,0l-0.6,0
			l-0.5-0.1l-1.4-0.7l-0.1,0l-0.1-0.1l0-0.1l0-0.1l0.2-0.5l0.1-0.6l0,0l0.2-0.5l0.1-0.2l0.1-0.1l0.4-0.4l0.2-0.3l0.2-0.4l0-0.1
			l0-0.1l0-0.2l-0.2-0.9l-0.1-0.3l-0.1-0.3l-0.1-0.1l-0.2-0.3l0-0.1l0-0.1l0-0.1v-0.1l0-0.2l0.2-0.7l0.3-2v-0.1l0-0.1l0-0.1l0-0.1
			l0-0.1l0-0.1l0-0.2l0-0.1l0.1-0.1l0.3-0.2l0.2-0.2l0.1-0.1l0-0.1l0-0.1l0,0h-0.1l-0.1,0l-0.1,0l-0.1,0l-0.1,0l-0.1,0l-0.1,0
			l-0.1,0l-0.2,0l-0.1,0l-0.1,0l-0.1,0l-0.1,0l-0.1,0l-0.1,0l0-0.1l-0.1-0.1l0-0.1l0-0.1l0-0.2l0-0.1l-0.1-0.1l0-0.1v-0.1l0-0.2
			l0.1-0.1l0.1-0.1l0.2,0l0.4-0.1l0.2,0l0.1,0h0.1l0.2,0l0.1,0l0.1,0l0.1,0l0.4-0.2l0.3-0.1l0.1-0.1l0.1-0.1l0.1-0.1l0.1-0.1
			l0.1-0.1l0.1-0.1l0.1-0.1l0.1,0l0.1,0l0.1,0l0.1,0l0.2,0l0.1,0l0.1,0l0.4-0.3l0.2-0.1l0.1,0l0.1-0.2l0.1-0.1l0.1,0l0.1,0l0.1,0
			l0.3,0.1l0.1,0l0.1,0l0.1-0.1l0.1-0.1l0-0.1l0.1-0.2l0-0.1l0-0.1l0-0.1l0-0.1l0-0.1l-0.1-0.1l0-0.1l0-0.1v-0.1l0-0.1l0-0.1l0.1,0
			l0.1,0l0.1,0l0.2,0.1l0.2,0l0.2,0l0.1,0l0.1,0l0.1-0.1l0.1-0.1l0-0.1l0-0.3l0-0.2l0-0.1l0-0.1l0-0.1l0-0.1v-0.1l0-0.1l0.1-0.4
			l0-0.1l0-0.2l0-0.2l-0.1-0.4l0-0.1l0-0.1l0-0.2l0.1-0.1l0.1,0l0.1,0l0.1,0l0.4,0.3l0,0l0.1,0l0.1,0l0.1,0l0.1,0l0.1,0l0.1-0.1
			l0.3-0.4l0.1-0.1l0.1,0l0.1,0l0.1,0l0.1,0l0.9,0.8l0.3,0.4l0.1,0.2l0.3,0.5l0.2,0.2l0.1,0.1l0.1,0l1.3-0.5l0.1,0l0.2,0l0.2,0
			l0.8,0.1l0.2,0l0.1,0l0.2-0.1l0.1,0l0.1,0l0.1,0l0.1,0l0.1,0l0.1,0.1l0.3,0.6l1,1.3l0,0.1l0,0.1l0,0.1l-0.1,0.1l-0.1,0l-0.1,0
			l-0.4,0.2l-0.1,0.1l-0.1,0l-0.1,0.1l-0.1,0.1l0,0.1l0.1,0.2l0.3,0.4l0.1,0.2l0.1,0.2l0,0.1l0,0.1l-0.2,0.3l0,0.1l-0.1,0.4l0,0.2
			l0,0.1l0,0.1l0.1,0.2l0.6,0.9l0.1,0.2l0,0.1l0,0.1l0,0.1l-0.3,0.7l0,0.1l0,0.1l0,0.4l0,0.1l-0.2,0.6l0,0.1l0,0.1l0.3,0.6l0.2,0.6
			l0.1,0.5l0.1,0.3l0.1,0.2l0.1,0.2l0.1,0.2l0.1,0.1l0,0.1l0,0.3l0.6,1.9L-260.5-221.9L-260.5-221.9z"/>
	</g>
	<g id="atsinanana" transform="translate(497.5,354.8887)" inkscape:label="#g32">
		<path id="path34" inkscape:connector-curvature="0" class="st5" d="M-252.7-167.5l0.4,2.4l0.1,1.1l-0.2,1.1l-0.5,1.9l-0.8,2.5
			l0,0.3l0,0.3l0.1,0.2l0.1,0.1l0.2,0.2l0.1,0.1l0,0.2l-0.1,0.1l-0.2,0.1l-0.2,0.1l-0.5,0.9l-0.4,3.2l-0.1,0.2l-0.3,0.4l-0.1,0.2
			l-0.4,1.1l-0.9,1.9l-0.8,3l-1.2,2.8l-0.6,0.9l-1.4,5.1l-2,5l-0.5,2.6l0,0.4l0,0.6l-0.5,1.5l-0.1-0.2l-0.2-0.3l-0.2-0.1l-0.1,0.2
			l0.1,0.2l0.4,0.5l0.1,0.2l0,0.2l-1.3,2.7l-0.9,2.4l-0.4,1.2l-0.1-0.1l-1.3-0.4l-1.1,0l-0.8-0.2l-0.1-0.1l-0.1-0.1l-0.1-0.1l0-0.1
			l0-0.1v-0.2l0-0.1l-0.1-0.2l0-0.1l-0.1-0.1l-0.3-0.2l-0.1-0.1l-0.1-0.1l-0.1,0l-0.2,0l-0.5,0.1l-0.1,0l-0.1,0l-0.2,0l-0.2-0.1
			l-0.3-0.2l-0.3-0.2l-0.1-0.1l-0.3-0.6l0-0.1l-0.1-0.1l-0.1,0l-0.1,0l-0.1,0l-0.1,0l-0.1,0l-0.1,0l-0.1,0.1l0,0.1l0,0.1v0.1l0,0.1
			l0.1,0.1l0,0.1l0,0.1l-0.1,0.1l0,0.1l0,0.1l0,0.2l0,0.1l-0.2,0.2l0,0.1l-0.1,0.2l0,0.1l0,0.1l-0.5,0.8l-0.1,0.2l0,0.1l0,0.1l0,0.1
			l0.1,0.2l0,0.1l0,0.1l-0.1,0.1l-0.1,0l-0.1,0l-0.1,0l-0.1-0.1l-0.2-0.1l-0.3-0.2l-0.3-0.2l-0.1,0l-0.1,0l-0.2,0l-0.2,0l-0.1,0
			l-0.2,0.1l-0.2,0.2l-0.1,0l-0.1,0l-0.1,0l-0.1,0l-0.1,0l-0.2,0l-0.2,0l-0.1,0l-0.1,0l-0.1,0l-0.1,0l-0.3,0.2l-0.1,0l-0.1,0l-0.4,0
			l-0.2,0l-0.1,0l-0.1,0l-0.1-0.1l-0.1-0.1l-0.1-0.1l0-0.1l0-0.1l-0.1-0.1l-0.1-0.1l-0.1-0.1l-0.2-0.2l-0.1,0l-0.1,0l-0.2-0.1
			l-0.1-0.1l-0.1-0.1l-0.1-0.2l0-0.1l-0.1-0.1l0-0.1l0-0.1l-0.1-1.4l0.1-0.4l0.3-1.1l0.2-0.5l0.1-0.2l0-0.3l0-0.8l0.1-0.8l0.1-0.3
			l0.4-0.8l0.1-0.2l0-0.1l0-0.6l0-0.1l0-0.1l0.1-0.1l0-0.1l0.1-0.1l0.3-0.2l0.2-0.2l0.1-0.1l0.5-0.8l2.2-0.4l1.2-0.8l1.2,1l2.5,0.2
			l0.6-3.7h1.4l-0.6-3.1l2.7-0.8l0.2-2.5l1.4-0.4v-3.1l-1.4-3.7l-0.8-2.5v-3.3l0.6-2.2l1.9-0.4l1.9-1.2l-0.2-1.6l-1.4-1.6l-1-1.2
			l1-0.4h1.9l0.6-1.6l2.1-0.4l2.3-0.2l1.9-0.6v-1.2l0.6-1.2L-252.7-167.5z"/>
	</g>
	<g id="vatovavy-fitovinany" transform="translate(465.4385,240.1504)" inkscape:label="#g36">
		<path id="path38" inkscape:connector-curvature="0" class="st5" d="M-233.9-5.2l-0.8,2.6l-1.5,5.9l-0.2,0.3l-0.2,0.3l-0.1,0.3
			l0.1,0.2l0.2-0.2l0.1,0.1l0,0.2l0,0.3l-0.1,0.2l-0.3,0.5l-0.1,0.3l-0.1,0.6l-0.1,0.6l-0.6,1.3l-0.1,0.2l0,0.5l-0.3,1.4l-0.2,0.6
			l-0.2,0.4l-2,6.3l-2,4.6l-2,4.6l-0.2,1.1L-245,29l-0.3,1.9l-1.6-1.4h-1.9l-1.9-0.8l-0.6-1.9l-1.4-0.8l-0.6,0.6l-1.4-0.2l-2.5-1.3
			l-0.8-1.3l1.7-1l2.3-1.3l-0.6-1.3l0.6-1.3l0.6-2.5l1-4.8l-0.6-1.5l-0.4-1.2l0.8-1.9l0.6-3.1l0.2-2.7l0.8-0.8l1.2-0.2l0.2-1
			l0.2-2.3l1.2-0.4l1.4-1.4l0.1,0l0.1,0l0.2,0l0.4,0l0.1,0l0.1,0l0.3-0.2l0.1,0l0.1,0l0.1,0l0.1,0l0.2,0l0.2,0l0.1,0l0.1,0l0.1,0
			l0.1,0l0.1,0l0.2-0.2l0.2-0.1l0.1,0l0.2,0l0.2,0l0.1,0l0.1,0l0.3,0.2l0.3,0.2l0.2,0.1l0.1,0.1l0.1,0l0.1,0l0.1,0l0.1-0.1l0-0.1
			l0-0.1l-0.1-0.2l0-0.1l0-0.1l0-0.1l0.1-0.2l0.5-0.8l0-0.1l0-0.1l0.1-0.2l0-0.1l0.2-0.2l0-0.1l0-0.2l0-0.1l0-0.1l0.1-0.1l0-0.1
			l0-0.1l-0.1-0.1l0-0.1v-0.1l0-0.1l0-0.1l0.1-0.1l0.1,0l0.1,0l0.1,0l0.1,0l0.1,0l0.1,0l0.1,0.1l0,0.1l0.3,0.6l0.1,0.1l0.3,0.2
			l0.3,0.2l0.2,0.1l0.2,0l0.1,0l0.1,0l0.5-0.1l0.2,0l0.1,0l0.1,0.1l0.1,0.1l0.3,0.2l0.1,0.1l0,0.1l0.1,0.2l0,0.1v0.2l0,0.1l0,0.1
			l0.1,0.1l0.1,0.1l0.1,0.1l0.8,0.2l1.1,0l1.3,0.4L-233.9-5.2z"/>
	</g>
	<g id="atsimo-atsinanana" transform="translate(438.0459,152.833)" inkscape:label="#g40">
		<path id="path42" inkscape:connector-curvature="0" class="st5" d="M-217.8,118.3l-0.4,2.5l-0.3,1l-0.1,1.6l-0.5,1.9l-0.6,1.6
			l-0.4,2.4l-1.8,5.6l-0.2-0.2l-0.1-0.2l-0.1,0l-0.2,0.2l-0.2,0.4l0.1,0.1l0.3,0l0.3,0.1l0.1,0.4l-0.8,3.6l-0.8,2.3l-0.3,0.5
			l-0.1,0.1l-0.2,0.2l-0.1,0.1h0l-0.2,0.1l0,0l-0.1,0.1l0,0l0.1,0.1l0,0.1l0,0l-0.1,0.4l-0.3,0.6l0,0.1l0,0l-0.8-0.6l-2-1.1
			l-0.4-0.3l-0.2-0.1l-1.1-0.3l-0.2,0l-0.1,0.1l0,0.4l0.1,0.5l0,0.1l0,0.1l-0.1,0.1l-0.1,0.1l-0.4,0.1l-0.2,0l-0.5-0.2l-0.2,0
			l-0.1,0.1l0,0.2l0,0.2l0,0.2l0,0.2l0.1,0.3l0.2,0.4l0.1,0.2l0,0.2l0,0.2l-0.1,0.1l-0.2,0.3l-0.1,0.1l-0.1,0.3l-0.1,0.1l-0.1,0.1
			l-0.1,0.1l-0.3,0.1l-0.4,0.1l-0.2,0l-0.3,0l-0.2-0.1l-0.1-0.1l-0.1-0.2l0-0.2l0-0.3l0.1-0.4l0.1-0.3l0-0.2l0-0.2l-0.1-0.2
			l-0.5-0.7l-0.1-0.1l-0.1-0.1l-0.2-0.1l-0.3-0.1l-0.9,0l-0.3-0.1l-0.1-0.1l-0.1-0.6l-0.1-0.2l-0.2-0.3l0-0.1l0-0.3l0-0.1l-0.1-0.1
			l-0.1-0.1l-0.6-0.4l-1.2-0.4l-0.9-0.2l-0.2-0.1l-0.1-0.1l-0.1-0.1l-0.1-0.1l-0.1-0.3l-0.1-0.1l-0.1-0.1l-0.3-0.2l-0.6-0.5
			l-0.1-0.2l-0.1-0.2l0-0.1l0-0.2l0.3-0.7l0.3-0.6l0.2-0.5l0.1-0.1l0.2-0.2l2.9,0.8l1.4-0.2l1.2-1.3l0.4-3.2l-0.4-3.6l-0.4-2.5
			l0.2-1.1l1.4-0.2l1.7,0.8l1.6,1.1h1.2v-1.3v-2.1l-0.2-2.5l-1.4-2.7l-1-3.8l-0.8-1.5l1.2-1.7l0.8,1.3l2.5,1.3l1.4,0.2l0.6-0.6
			l1.4,0.8l0.6,1.9l1.9,0.8h1.9L-217.8,118.3z"/>
	</g>
	<g id="anosy" transform="translate(421.0801,90.6436)" inkscape:label="#g44">
		<path id="path46" inkscape:connector-curvature="0" class="st5" d="M-207.9,206.2l-0.9,2.5l-0.1,0.1l-0.2-0.1l-0.3-0.2l-0.1,0.1
			l0.2,0.9l-0.4,2.7l-1.3,3.3l-0.4,0.6l0,0.3l0,0.5l-0.1,0.3l-0.8,0.6l-0.2,0.5l0.1,1.1l-0.2,0.4l-0.2-0.2l-0.1-0.2l-0.1-0.3l0-0.3
			l-0.1,0.2l0,0.2l0,0.3l0,0.3l-0.1,0.3l-0.1,0.1l-0.5,0.2l-0.3,0.2l-0.4,0.4l-0.7,0.9l-0.2,0.1l-0.1-0.1l-0.2-0.4l-0.2,0l0,0l0,0
			l-0.9,0.7l-0.3,0.3l-0.2,0.1l-0.5,0.2l-0.2,0.1l-0.2,0.3l-0.2,0.1l-0.1,0l-0.2-0.1l-0.2,0l-0.2,0.2l-0.1,0.1l-1.1,0.3l-0.2,0
			l-0.5-0.2l-1.6-0.2l-1.8,0.1l-2.3,0.6l-1.4-2.4l-3.1-1.7v-2.6l-0.4-1.7l0.6-2.3v-1.9l-1.7-1.5l-0.8-1.9l0.8-2.5l-1.2-1.1l-2.1-0.6
			l-1.8,0.1l-0.6-2.1l0.8-3l-1-2.1l-2.9,0.2l0-2l1.9-3.1l-0.6-3l0,0l0.1-0.2l0.2-0.3l0-1.4l0.3-2l0.2-0.3l3-1.8l3-1.2l0.7-0.2l0.2,0
			l1,0.1l0.7,0l0.4,0.1l1.1,0.7l0.3,0.3l0.3-0.1l0.3,0.3l1.1,0.7l0.1,0.1l0.3,0.4l0.9,2l0.1,0.2l0.1,0.3l0,0.1l0,0.2l0,0.1l0,0
			l0.3,0.4l0,0.1l0,0.1l0.1,0.3l0.2,0.3l0.3,0.5l0,0.1l0.1,0.2l0.1,0.1l0.1,0.1l1.1,0.6l0.1,0.1l0.1,0.1l0.1,0.2l0.1,0.8l0,0.1
			l-0.1,0.2l-0.2,0.3l0,0.2v0.2l0,0.2l0.1,0.2l0.1,0.3l0,0.2l0,0.2l-0.1,0.1l-0.1,0.2l-0.1,0.3l-0.1,0.1l-0.1,0.1l-0.3,0.2l-0.1,0.1
			l0,0.1l0,0.2l0.1,0.2l0.1,0.4l0.1,0.2l0.3,0.4l0.2,0.3l0.1,0.2l0.2,0.6l0.1,0.3l0,0.2l0,0.2l0,0.1l0,0.1l0,0.1l-0.1,0.1l-0.1,0.1
			l-0.2,0.2l-0.1,0.1l-0.2,0.5l-0.3,0.6l-0.3,0.7l0,0.2l0,0.1l0.1,0.2l0.1,0.2l0.6,0.5l0.3,0.2l0.1,0.1l0.1,0.1l0.1,0.3l0.1,0.1
			l0.1,0.1l0.1,0.1l0.2,0.1l0.9,0.2l1.2,0.4l0.6,0.4l0.1,0.1l0.1,0.1l0,0.1l0,0.3l0,0.1l0.2,0.3l0.1,0.2l0.1,0.6l0.1,0.1l0.3,0.1
			l0.9,0l0.3,0.1l0.2,0.1l0.1,0.1l0.1,0.1l0.5,0.7l0.1,0.2l0,0.2l0,0.2l-0.1,0.3l-0.1,0.4l0,0.3l0,0.2l0.1,0.2l0.1,0.1l0.2,0.1
			l0.3,0l0.2,0l0.4-0.1l0.3-0.1l0.1-0.1l0.1-0.1l0.1-0.1l0.1-0.3l0.1-0.1l0.2-0.3l0.1-0.1l0-0.2l0-0.2l-0.1-0.2l-0.2-0.4l-0.1-0.3
			l0-0.2l0-0.2l0-0.2l0-0.2l0.1-0.1l0.2,0l0.5,0.2l0.2,0l0.4-0.1l0.1-0.1l0.1-0.1l0-0.1l0-0.1l-0.1-0.5l0-0.4l0.1-0.1l0.2,0l1.1,0.3
			l0.2,0.1l0.4,0.3l2,1.1L-207.9,206.2L-207.9,206.2z"/>
	</g>
	<g id="androy" transform="translate(376.638,46.5474)" inkscape:label="#g48">
		<path id="path50" inkscape:connector-curvature="0" class="st5" d="M-181.9,268.6l-3.1,1.4l-1.9,1l-2.2,1.2l-1.5,1.5l-0.3,0.2
			l-0.3,0.1l-0.3,0l-0.8,0.7l-1.1,0.2l-4.4,0.2l-0.2,0.1l-0.2,0.1l-0.2,0.1l-0.3-0.1l-0.1-0.2l-0.1-0.7l-0.1-0.3l-0.5-0.4l-1.7-0.6
			l-0.5-0.3l-0.2-0.2l-0.2-0.5l-0.3-0.2l-1.1-0.9l-1-0.5l-0.6-0.2l0.8-2.6l2.7-2.4l2.1-2.1l0.6-2.6l-0.4-3v-2.1l0.8-1.9l0.4-3.2
			l0.8-2.3l1-1.3l2.9-0.6l0.6,2.1l1.8-0.1l2.1,0.6l1.2,1.1l-0.8,2.5l0.8,1.9l1.7,1.5v1.9l-0.6,2.3l0.4,1.7v2.6l3.1,1.7L-181.9,268.6
			z"/>
	</g>
	<g id="atsimo-andrefana" transform="translate(320.27,42.1934)" inkscape:label="#g52">
		<path id="path54" inkscape:connector-curvature="0" class="st5" d="M-148.9,274.8l-1.6-0.2l-1.6-0.1l-2.3-0.5l-0.3-0.2l-0.2-0.7
			l-0.5-0.6l-0.1-0.4l0.3,0.1l0.3,0.2l0.5,0.6l0.3,0.2l0.3,0l0.1-0.2l-0.1-0.4l-0.2,0l-0.2-0.1l-0.4-0.4l-0.3-0.2l-0.2-0.1l-0.2-0.1
			l-0.3,0l-0.5-0.2l-0.9-1l-0.5-0.3l-0.5,0l-0.2,0l-1.2-0.8l-0.2-0.4l-0.1-1.3l-0.2-0.6l-1.1-1.5l-0.2-0.6l0.1-1.5l-0.1-0.6
			l-0.2-0.3l-0.7-0.7l-0.1-0.1l-0.1-0.1l-0.1-0.1l0-0.2l0-0.3l-0.1-0.1l-0.5-0.5l-1.1-0.7l-0.5-0.5l-0.5-1.2l-0.3-2.5l0.2-2.9
			l-0.3-1.6l0-0.2l0.1-0.3l0-0.2l0-0.2l-0.2-0.5l-0.1-0.7l-0.1-0.3l-0.2-0.3l0.2-0.3l0-1.2l0.1-0.5l0.3-0.3l1-0.5l0.3-0.4l0-0.3
			l-0.2-0.4l0-0.3l0.2-0.2l0.1-0.1l0.1-0.3l0-0.1l-0.1-0.2l-0.2-0.2l-0.4-0.3l-0.3-0.4l-0.7-0.6l-0.1-0.1l-0.1,0l-0.1,0l-0.1-0.1
			l0-0.1l-0.1-0.4l-0.2-0.6l-0.1-1.5l-0.2-1.3l-0.2-0.7l-0.4-0.5l-1.1-0.8l-0.2-0.2l-0.3-0.5l-0.2-0.2l-0.3-0.2l-0.5-0.6l-0.3-0.5
			l-0.2-0.4l-0.1-0.2l-0.1-0.7l-0.2-0.5l-0.1-0.9l-0.2-0.5l-0.1-0.6l-0.1-0.1l-0.2-0.3l-0.1-0.2l-0.1-0.4l0-0.4l0.1-0.8l-0.2-1.5
			l-0.2-0.8l-0.4-0.8l0-0.2l0-0.2l0-0.2l-0.1-0.4l-0.2-0.4l0-0.4l0.3-0.3l0.4,0l0.3,0.3l0.1-0.3l0-0.3l-0.1-0.3l0-0.3l-0.5,0
			l-0.2-0.7l0-1.5l0-0.2l0.2-0.3l0-0.2v-0.4l0-0.2l0.1-0.1l0.1-0.1l0.1-0.1l0,0l0.1,0l0.1,0l0-0.1l-0.1-0.5l0-0.2l0.1-0.2l0.1-0.2
			l0.1-0.2l0.2,0.2l0,0.3l-0.1,0.6l0.3-0.5l0.1-0.8l0-0.8l0.1-0.6l0.2-0.3l1-1.3l0.3-0.2l0.3,0l0.3,0.2V209l0.1-0.4l0.3-0.8l0.1-0.4
			l0.1,0.3l0.1,0l0.3-0.3v0.1l0.2,0.2l0.6,0.4l0.2,0.2l0.1,0.2l0.1,0.9l0.2,0.2l0.7,0.4l0.2,0.2l0.1,0.3l0.2,0.3l0.3,0.4l0.4,0.3
			l0.1,0.2l0,0.2l0,0.3l0,0.2l0.3,0.5l0.1,0.3l0,0.4l0.1,0.4l0.5,0.4l0.1,0.2l0.1,0.2l0.1,0.3l0.3,0.5l0.4,0.4l0.1,0.2l0.1,0.4
			l0.1,0.1l0.2,0.1l0.2,0l0.2,0l0.2,0.1l0.1,0.1l0.2,0.2l0.1,0.1l0.3,0.1l0.3-0.1l0.6-0.1l0.3-0.1l0.4-0.5l0.3-0.3l0.5-0.3l0.6-0.2
			l0.6,0l0.5,0.3l0.2,0.5l0.1,0l0.3-0.3l0.1-0.2l0.1,0l0.2,0.1l0.1,0.1l0.1,0.4l0.5-0.3l0.5-0.1l1.2,0l0.8-0.4l0.6-0.1l0.4-0.3
			l0.4-0.2l1.4-2.2v-4.2l0.8-1.9l2.1,0.2l1,1l1.7,0.2l1.2-1.2l1.6-1.9l3.3-1.2l1.9-2.1l1.6-0.4l1.8-0.3l-0.1,1.5l0,0.1l0,0.1l0,0.1
			l-0.2,0.4l-0.1,0.1l-0.2,0.2l0,0.1l0,0.1l0,0.1l0.3,1.7l0,0.2l0,0.4l0,0.1l0,0.1l0,0.1l-0.1,0.1l-0.1,0l-0.1,0l-0.3,0l-0.1,0
			l-0.1,0l-0.1,0l-0.2,0l-0.2,0.1l-0.2,0.1l-0.1,0.1l0,0.1l-0.1,0.1l-0.1,0l-0.1,0l-0.1,0l-0.1,0.1l0,0.1l0,0.1l-0.1,0.2l0,0.1
			l-0.1,0l-0.2,0l-0.1,0l-0.1,0.1l0,0.1l0,0.1l0,0.3l0,0.1l0,0.1l0,0.1l0,0.1l-0.6,0.7l0,0.1l0,0.1l0,0.1l0.1,0.5l0,0.2l0,0.1
			l-0.1,0.4l0,0.1l0,0.1l0.3,1.1l0,0.1l0,0.1l0,0.1l0,0.1l-0.1,0.1l-0.3,0.1l0,0.1l0,0.1l0,0.1l0,0.2l0,0.2l0,0.1l0,0.1l-0.1,0.1
			l-0.1,0l-0.1,0l-0.2,0l-0.2,0l-0.5,0l-0.1,0l-0.1,0l-0.1,0l-0.1,0l-0.1,0.1l0,0.1l0,0.1l0,0.1l-0.4,2.1l0,0.1l-0.1,0.1l-0.1,0
			l-0.1,0l-0.2,0l-0.1,0l-0.1,0l-0.1,0.1l0,0.1l0,0.1l0,0.2l0,0.1l-0.1,0.1l-0.1,0l-0.6,0.1h-0.6l-0.2,0l-0.2,0.1l-0.1,0l-0.1,0.1
			l0,0.1l0,0.1l0.1,0.2l0.1,0.2l0.3,0.5l0.2,0.4l0.1,0.2l0.1,0.1l0,0.1l0.1,0.7l0,0.1l0,0.1l-0.1,0.2l0,0.1l0,0.1l0,0.1l0.1,0.2
			l0.2,0.3l0.1,0.2l0,0.1l0,0.1l0,0.1l-0.1,0.1l-0.2,0.2l0,0.1l0,0.1l0.1,0.2l0,0.1l0,0.1l-0.1,0.2l0,0.1l-0.1,0l-0.2,0l-0.1,0
			l-0.1,0.1l0,0.1l-0.1,0.3l-0.1,0.2l0,0.1l0,0.2l0,0.2l0,0.1l0,0.1l0.1,0.3l0,0.1l0,0.1l0,0.1l-0.1,0l-0.2,0.1l-0.1,0l0,0.1
			l-0.1,0.3l0,0.1l0,0.2l0,0.1l0,0.1l-0.1,0.1l-0.1,0.1l-0.2,0.1l-0.4,0.1l-0.2,0.1l-0.1,0.1l-0.1,0.1l0,0.1l0,0.1l0,0.1l0,0.1
			l0,0.1l-0.1,0.1l-0.1,0.1l-0.7,1.2l-0.1,0.4l0,0.2l0,0.4l-0.1,0.2l-0.1,0.2l-0.4,0.6l0,0.1l0,0.1l0,0.1l0,0.1l0,0.1l0.1,0.4l0,0.1
			l0,0.1l0,0.1l0,0.1l-0.1,0.2l0,0.1l0,0.1l0,0.2l0,0.1l0,0.1l0,0.1l-0.1,0.1l-0.1,0.2l-0.2,0.7l-0.1,0.3l0,0.1l0,0.1l0,0.3l0,0.2
			l0,0.1l0,0.1l0.1,0.1l0.1,0.1l0.1,0.2l0,0.1l0,0.3l0,0.1l0,0.1l0,0.1l0,0.1l0,0.1l0.1,0.1l0.2,0.2l0.5,0.5l0.1,0.1l0.1,0.1l0.2,0
			l0.1,0l0.6-0.1l0.1,0l0.3,0l0.1,0l0.3-0.1l0.1,0l0.1,0.1l0,0.1l0.1,0.2l0.1,0.2l0.1,0.1l0.1,0.1l0.1,0.3l0,0.1l0.1,0.1l0.1,0.1
			l0.2,0l0.3,0l0.2,0l0.3,0.1l0.1,0l0.1,0l0.1,0l0.2-0.2l0.6,3l-1.9,3.1l0,2l2.9-0.2l1,2.1l-0.8,3l-2.9,0.6l-1,1.3l-0.8,2.3
			l-0.4,3.2l-0.8,1.9v2.1l0.4,3l-0.6,2.6l-2.1,2.1l-2.7,2.4L-148.9,274.8z"/>
	</g>
	<g id="menabe" transform="translate(276.0093,204.6025)" inkscape:label="#g56">
		<path id="path58" inkscape:connector-curvature="0" class="st5" d="M-123,45l0.4-0.2l0.2-0.3l0.1,0l0.9,0l0.6-0.2l0.3,0.1l0.3,0.1
			l0.3,0.1l0.4-0.1l0.4-0.4l0.4-0.4l0.2-0.4l0.1-0.5l0.6-1.6l0.6-3.2l1-1.9l0.3-0.3l0.5-0.1l0.3-0.2l0.8-1.6l0.2-0.7l0.1-0.8
			l0.2-0.7l0.4-0.5l0,0.1l0,0.1l0.1,0.2l0.4-0.9l0.2-0.3l0.7-0.5l0.2-0.2l-0.1-0.5l0.2-0.6l1.1-2.3l0.3-0.5l0.9-0.9l0.4-0.5l0.3-0.5
			l0.2-0.6l0.1-0.5l0-0.7l-0.1-0.5l-0.3,0l-0.1-0.5l-0.1-0.1l-0.1-0.1l-0.2,0l-0.1,0l-0.2-0.2l-0.2-0.3l-0.2-0.3l-0.1-0.3l0.1-0.2
			l0.3-0.6l0.1-0.2l0.1-0.2l0.1-0.3l0-0.6l0-0.2l-0.1-0.1l0-0.2l0-0.2l0.1-0.1l0.3-0.2l0.1-0.1l0.1-0.3l0-0.3l0.1-0.2l0.3-0.1
			l0.2-0.3l-0.1-0.6l-0.3-1.1l-0.2-0.5l-0.3-0.5l-0.7-0.7l-0.1-0.2l-0.1-0.5l-0.3-0.5l-1.1-1.5l0,0l0.3,0.1l0.7,0.2l0.5,0.1l0.3,0.1
			l0.1,0l0.2,0l0.3-0.1l0.2,0l0.2,0l0.1,0l0.1,0l0.1,0l0.1,0.1l0.1,0.1l0.2,0.2l0.6,0.9l0.1,0.1l0.1,0.1l0.4,0.1l0.2,0l0.4-0.1
			l0.3,0.1l0.2,0l0.3,0l0.3,0.1l0.1,0l0.3-0.1l0.2,0l0.5,0.2l0.3,0.2l0.2,0.1l0.4,0.1l0.2,0l0.2,0l0.5-0.1l0.2-0.1l0.2-0.2l0.1-0.3
			l0.1-0.2l0.2-0.1l0.2-0.1l0.2,0l0.2,0l0.3,0.1l0.4,0.1l0.1,0.1l0.1,0l0.2,0l0.2-0.1l0.4-0.1l0.3,0l0.2-0.1l0.1-0.1v-0.2l-0.1-0.1
			l-0.1-0.1l-0.7-0.5l-0.1-0.1l-0.1-0.1l-0.1-0.2l0-0.1l0-0.2l0-0.2l0.2-0.3l0.1-0.2l0.1-0.2l0-0.2l-0.1-0.2l-0.1-0.2l-0.1-0.2
			l-0.2-0.8l-0.1-0.3l0-0.2l-0.1-0.2l-0.1-0.1l-0.1,0l-0.1-0.1l-0.1-0.1l-0.1-0.1l0-0.1l0-0.2l0.1-0.2l0.2-0.4l0.1-0.2l0-0.2
			l-0.1-0.5l-0.1-0.1l-0.1-0.1l-0.1-0.1l-0.3-0.3l-0.2-0.4l0-0.2l0.1-0.2l0-0.2l-0.1-0.1l-0.2-0.2l-0.1-0.1l0-0.2l0-0.3l-0.1-0.3
			l-0.3-1.5l-0.1-0.2l-0.1-0.1l-0.4-0.5l-0.1-0.1l-0.1-0.3l-0.1-0.1l-0.6-0.8l-0.1-0.1l-0.1-0.1l0-0.2l0.1-0.1l0.3-0.4l0.1-0.1
			l0.6-0.5l0.4-0.2l0.4-0.1l0.2-0.1l0.1-0.1l0.1-0.1l0.1-0.1l0.2-0.2l0.2-0.2l0.1-0.1l0.2-0.2l0.1-0.1l0.1-0.1l0.1,0l0.4,0.3
			l0.5,0.2l0.2,0.1l0.1,0.1l0.1,0.1l0.1,0l0.2-0.1l0.3-0.2l0.6-0.3l0.2,0l0.2,0l0.4,0.1l0.2,0.1l0.2,0.1l0.2,0.2l0.2,0.1l1.4,0.6
			l0.2,0l0.2-0.1l0.3-0.2l0.1-0.1l0.1-0.1l0.1,0l0.2,0l0.3,0.1l0.1,0.1l0.1,0.1l0,0.1l0.1,0.1l0.1,0.1l0.1,0l0.1-0.1l0.1-0.1
			l0.1-0.1l0.1-0.1l0.3-0.1l0.3,0.1l0.1,0.1l0.4,0.7l0.1,0.2l0,0.1l-0.2,0.2l0,0.1l0,0.1l0,0.1l0,0.5l0.2,2l-0.1,0.8l0,0.1l-0.1,0.1
			l-0.1,0.1l-0.3,0.2l-0.1,0.1l-0.1,0.1l0,0.1l-0.1,0.2l0,0.1l-0.1,0.1l-0.2,0.1l-0.1,0.1l-0.1,0.1L-92,1.7l0,0.1L-92.3,2l-0.1,0.1
			l-0.1,0.1l-0.1,0.1l0,0.1l0,0.1l0.1,0.2l0,0.2l0.1,0.8l0.1,0.4l0,0.1l0.1,0.5l0,0.1l0,0.1l0,0.1l-0.1,0.2l-0.1,0.1l-0.1,0.3l0,0.1
			l0,0.1l0.1,0l0.3,0.1l0.1,0l0.1,0.1l0.1,0.1l0.1,0.2l0.3,0.7l0,0.1l0.1,0.1l0.1,0.1l0.3,0.2l0.1,0.1l0.1,0.1L-91,8l0.1,0.1
			l0.1,0.1l0.3,0.1l0.1,0.1l0.1,0.1l0,0.1l0,0.1l-0.1,0.2l0,0.1l0,0.2l0,0.1l0,0.1l0.2,0.2l0.2,0.3l0.1,0.3l0,0.1l0.1,0.1l0.3,0.3
			l0.2,0.2l0.1,0.1l0.1,0l0.1,0l0.1,0l0.1,0l0.1,0l0.2-0.1l0.2-0.1l0.3-0.1l0.1,0l0.1,0l0.1,0.1l0,0.1l0,0.2l0,0.1l0.1,0.3l0.1,0.3
			l0.2,0.5l0,0.1l0,0.2l0,0.5l-0.1,0.4l0,0.5l0,0.1l0,0.1l-0.1,0l-0.2,0.1l0,0l0,0l0,0.1l0,0.9l0,0.1l0,0.1l0,0.1l0,0.1l0,0.2l0,0.1
			l0,0.1l0.1,0.1l0.1,0.1l0.1,0.1l0.1,0.6l0.3,0.8l0,0.2l0,0.2l0,0.2l0.1,0.4l0,0.1l-0.1,0.6l0,0.1l0,0.1l-0.1,0.1l-0.1,0.1
			l-0.1,0.1l-0.1,0.1l-0.1,0.1l0,0.1l0,0.3l0,0.1l-0.1,0.1l-0.4,0.5l0,0.1l0,0.4l0,0.1l0,0.1l-0.1,0.2l0,0.1l0,0.1l0.1,0.2l0.1,0.1
			l0.1,0.1l0.1,0.1l0.2,0.1l0.1,0.1l0,0.1l0,0.1l0,0.1l-0.1,0.2l0,0.1l0,0.2l0,0.1l0,0.1l-0.1,0.1l-0.1,0.1l-0.1,0.1l0,0.1l0,0.1
			l0,0.1l0,0.3l0,0.1l0,0.1l0,0.1l0,0.1l0.1,0.2l0,0.1l0,0.2l0,0.2l0,0.1l0.1,0.2l0.1,0.3l0.2,0.9l0,0.3l0,0.1l0.3,1.1l0,0.2v0.1
			l0,0.1l-0.1,0.2l0,0.2l0,0.1l0,0.1l0.1,0.7l0,0.1l0,0.2l0,0.1l0,0.1l-0.2,0.3l0,0.1l0,0.1l0,0.3l0,0.2l0,0.1l0,0.1l0,0.1l0,0.1
			l0.4,1.8l0.1,0.8l0,0.1l0,0.1l0,0.1l-0.1,0.1l-0.1,0l-0.3,0l-0.1,0l-0.1,0.1l0,0.1l0,0.1l0,0.3l0,0.1l0,0.1l-0.1,0.1l0,0.1
			l-0.1,0.5l0,0.1l0,0.2l0,0.2l0,0.2l0,0.2l0.1,0.4l0,0.2l0,0.2l0,0.2L-90,39l-1.6,0.4l-1.9,2.1l-3.3,1.2l-1.6,1.9l-1.2,1.2
			l-1.7-0.2l-1-1l-2.1-0.2l-0.8,1.9v4.2l-1.4,2.2l-0.4,0.2l-0.3,0.3l-0.6,0.1l-0.8,0.4l-1.2,0l-0.5,0.1l-0.5,0.3l-0.1-0.4l-0.1-0.1
			l-0.2-0.1l-0.1,0l-0.1,0.2l-0.3,0.3l-0.1,0l-0.2-0.5l-0.5-0.3l-0.6,0l-0.6,0.2l-0.5,0.3l-0.3,0.3l-0.4,0.5l-0.3,0.1l-0.6,0.1
			l-0.3,0.1l-0.3-0.1l-0.1-0.1l-0.2-0.2l-0.1-0.1l-0.2-0.1l-0.2,0l-0.2,0l-0.2-0.1l-0.1-0.1l-0.1-0.4l-0.1-0.2l-0.4-0.4l-0.3-0.5
			l-0.1-0.3l-0.1-0.2l-0.1-0.2l-0.5-0.4l-0.1-0.4l0-0.4l-0.1-0.3l-0.3-0.5l0-0.2l0-0.3l0-0.2l-0.1-0.2l-0.4-0.3l-0.3-0.4l-0.2-0.3
			l-0.1-0.3l-0.2-0.2l-0.7-0.4l-0.2-0.2l-0.1-0.9l-0.1-0.2l-0.2-0.2l-0.6-0.4l-0.2-0.2V45z"/>
	</g>
	<g id="melaky" transform="translate(303.2461,290.6865)" inkscape:label="#g60">
		<path id="path62" inkscape:connector-curvature="0" class="st5" d="M-138.9-76.7l-0.3-0.4l-0.3-0.5l-0.1-0.6l0.1-1l0.2-0.5v-1l0,0
			l-0.1-0.1l0-0.1l0-0.1l0.1-0.1l0-0.1l0.1-0.4l0-0.2l-0.1-0.5l-0.4-1.1l-0.7-2l-1.1-1.5l-1-1.5l-0.1-0.5l0-3.2l-0.6-3.2l0-1.1
			l0.5-2l0.1-0.7l-0.1-0.2l-0.4-0.3l-0.2-0.7l-1-1.4l-0.1-0.4l0-0.5l0.1-1l0.2-0.5l0.8-1.3l0.3-0.7l0.1,0l0.2,0.1l0.1-0.1l0.1-0.5
			l1.2-1.8l0.3-0.3l0.1-0.2l0-0.2l0-0.8l0.4,0l0.4-0.6l0.5-1.4l0.1-0.2l0.4-0.4l0.1-0.1l0.1-0.4l0.1-0.2l0.3-0.3l0.2-0.3l0.3-0.7
			l0.4-0.6l0.5-0.6l0.4-0.6l0.1-0.7l-0.1-0.3l-0.3-0.7l-0.1-0.3l0.1-0.4l0.2-0.2l0.2,0.1l0,0.4l0.2-0.4l0.1-0.4l0-0.5l-0.1-0.4
			l-0.6-0.9l-0.2-0.5l0-0.5l0.1-0.2l0.1-0.2l0.1-0.2l0.1-0.2l0.1-0.2l0-0.2l0-0.9l0.1-0.2l0.1-0.1l0.3-0.1l0.5,0l0.5-0.1l3.4,0.3
			l0.4-0.1l0.2,0l0.4,0.3l0.3,0.2l0.3,0.1l0.2-0.1l0.1-0.2l1.1,1.3l0.2,2l1,1.8l1.9,1.6l1.6,0.8l0.2,1.4l1.4,1.6l1.6,0.4l0.8,1.4
			l-0.2,1.6l1,4.1l0.6,1.6h1.4l1.7-0.2l1.4,0.2l0.2,1.2l-0.8,0.8l0.2,1.2l1.2,1.2l0.7,1.8l-0.1,0.1l-0.1,0.2l-0.1,0.2l0,0.2l0,0.2
			l0,0.3l0,0.1l0,0.1l-0.2,0.6l0,0.2l0,0.3l-0.1,0.1l-0.4,0.5l-0.1,0.1L-114-95l-0.2,0.8l0,0.3l-0.1,0.2l-0.1,0.2l-0.1,0.2l-0.4,0.5
			l-0.1,0.2l-0.1,0.2l0,0.2l0.1,0.5l0,0.2l-0.1,0.1l-0.6,0.4l-0.1,0l-0.6-0.2l-0.2,0l-0.1,0l-0.1,0.1h-0.1l-0.1-0.1l-0.1-0.1
			l-0.2-0.1l-0.2-0.1l-0.2-0.1l-0.2,0l-0.1,0.1l-0.2,0.2l-0.1,0.1l-0.1,0.1l0,0.1l-0.1,0.1l-0.1,0.2l-0.3,0.1l-0.1,0.1l-0.1,0.1
			l-0.1,0.1l-0.1,0.1l-0.1,0l-0.1-0.1l-0.1-0.1l0-0.1l-0.1-0.1l-0.1-0.1l-0.3-0.1l-0.2,0l-0.1,0l-0.1,0.1l-0.1,0.1l-0.3,0.2
			l-0.2,0.1l-0.2,0l-1.4-0.6l-0.2-0.1l-0.2-0.2l-0.2-0.1l-0.2-0.1l-0.4-0.1l-0.2,0l-0.2,0l-0.6,0.3l-0.3,0.2l-0.2,0.1l-0.1,0
			l-0.1-0.1l-0.1-0.1l-0.2-0.1l-0.5-0.2l-0.4-0.3l-0.1,0l-0.1,0.1l-0.1,0.1l-0.2,0.2l-0.1,0.1l-0.2,0.2l-0.2,0.2l-0.1,0.1l-0.1,0.1
			l-0.1,0.1l-0.2,0.1l-0.4,0.1l-0.4,0.2L-130-90l-0.1,0.1l-0.3,0.4l-0.1,0.1l0,0.2l0.1,0.1l0.1,0.1l0.6,0.8l0.1,0.1l0.1,0.3l0.1,0.1
			l0.4,0.5l0.1,0.1l0.1,0.2l0.3,1.5l0.1,0.3l0,0.3l0,0.2l0.1,0.1l0.2,0.2l0.1,0.1l0,0.2l-0.1,0.2l0,0.2l0.2,0.4l0.3,0.3l0.1,0.1
			l0.1,0.1l0.1,0.1l0.1,0.5l0,0.2l-0.1,0.2l-0.2,0.4l-0.1,0.2l0,0.2l0,0.1l0.1,0.1l0.1,0.1l0.1,0.1l0.1,0l0.1,0.1l0.1,0.2l0,0.2
			l0.1,0.3l0.2,0.8l0.1,0.2l0.1,0.2l0.1,0.2l0,0.2l-0.1,0.2l-0.1,0.2l-0.2,0.3l0,0.2l0,0.2l0,0.1l0.1,0.2l0.1,0.1l0.1,0.1l0.7,0.5
			l0.1,0.1l0.1,0.1v0.2l-0.1,0.1l-0.2,0.1l-0.3,0l-0.4,0.1l-0.2,0.1l-0.2,0l-0.1,0l-0.1-0.1l-0.4-0.1l-0.3-0.1l-0.2,0l-0.2,0
			l-0.2,0.1l-0.2,0.1l-0.1,0.2l-0.1,0.3l-0.2,0.2l-0.2,0.1l-0.5,0.1l-0.2,0l-0.2,0l-0.4-0.1l-0.2-0.1l-0.3-0.2l-0.5-0.2l-0.2,0
			l-0.3,0.1l-0.1,0l-0.3-0.2l-0.3,0l-0.2,0l-0.3-0.1l-0.4,0.1l-0.2,0l-0.4-0.1l-0.1-0.1l-0.1-0.1l-0.6-0.9l-0.2-0.2l-0.1-0.1
			l-0.1-0.1l-0.1,0l-0.1,0l-0.1,0l-0.2,0l-0.2,0l-0.3,0.1l-0.2,0l-0.1,0l-0.3-0.1l-0.5-0.1l-0.7-0.2L-138.9-76.7L-138.9-76.7z"/>
	</g>
	<g id="analamanga" transform="translate(438.8037,339.7393)" inkscape:label="#g64">
		<path id="path66" inkscape:connector-curvature="0" class="st5" d="M-218.3-146.1l0.1,0.3l0,0.1l0,0.1l0.1,0.1l0.2,0.1l0.1,0
			l0.1,0.1l0.2,0.1l0.1,0l0.1,0.1l0,0.1l0,0.1l0.1,0.7l0,0.1l0.1,0.2l0.1,0.2l0.1,0.4l0.1,0.2l0.1,0.2l0,0.1l0,0.1l-0.1,0.1l0,0.2
			l0,0.2l0,0.3l0,0.3l0,0l0,0l0,1l0,0.1l0,0.1l0.2,0.4l0,0.1v0.4l0,0.2l0,0.1l0.1,0.2l0,0.1l0,0.1l0,0.1l0,0.1l-0.1,0.1l-0.1,0.1
			l-0.3,0.2l-0.1,0.1l0,0.1l0,0.1l0,0.1l0,0.6l-0.1,1.4l0,0.2l0,0.2l-0.1,0.3l-0.5,1.5l-0.2,1.1l0,1.3l0.1,0.4l0.1,0.4l0,0.1l0,0.6
			l0,0.4l0,0.8l0,0.2l-0.1,0.2l-0.1,0.1l-0.1,0.1l0,0.1l0,0.1l0,0.2l0,0.2l-0.1,0.2l-0.3,0.5l0,0.1l0,0.1l0,0.2l0,0.1l0.5,1l0,0.1
			l0,0.1l0,0.5l0,0.2l0,0.1l0.1,0.2l0,0.6l0,0.3l0,0.2l-0.1,1.1l0,0.2l0,0.1l-0.1,0.1l-0.3,0.4l-0.2,0.2l0,0.1l0,0.1l0,0.2l0,0.2
			l-0.1,0.2l-0.2,0.4l0,0.1l0,0.1l0,0.4l0,0.3l-2.1-1.6l-2.7-1.2v-2.1l0.4-2.3h-1.7l-0.8-2.7l-1.7-2.8l-0.2-0.5l-0.4-0.2l-0.5-0.3
			l-1.1-0.2l-0.7-0.2l-0.3-0.4l-0.6-0.3l-0.5-0.7l-0.2-0.8l-0.5-0.5l-0.3-0.5l-0.5-2.3l-1.6-1.5l-2.1-2.8l-1.3-3.6l-0.5-2.8l1-0.1
			l0.9-0.2l0.2,0l0.3,0l0.6,0.1l0.6,0l0.2,0l0.2-0.1l0.2,0l0.2,0l0.1,0l0.1,0.1l0.2,0.5l0,0.2l0,0.2l-0.1,0.3l0.1,0.1l0.2,0.1l0.8,0
			l0.4,0.1l0.3,0.1l0.2,0.1l0.2,0.2l0.1,0l0.1-0.1l0.2-0.3l0.1-0.1l0.2-0.2l0.1-0.1l0.2-0.1l0.6-0.1l0.2-0.1l0.5-0.4l0.2-0.1
			l0.2-0.1l0.4,0l0.4,0l0.4,0.1l0.7,0.2l0.3,0.1l0.2,0.1l0,0.1l0,0.1l0,0.2l0.1,0.3l0.1,0.1l0.1,0.1l0.5,0.2l0.1,0.1l0.1,0.1
			l0.1,0.2l0.1,0.2l0.2,0.1l0.4,0.1l0.7,0.1l0.5-0.1l0.2,0.1l0.1,0.1l0.2,0.3l0.1,0.1l0.4,0l0.6,0l2.2-0.4l0.5-0.2L-218.3-146.1z"/>
	</g>
	<g id="betsiboka" transform="translate(438.8037,339.7393)" inkscape:label="#g68">
		<path id="path70" inkscape:connector-curvature="0" class="st5" d="M-218.3-146.1l-0.9,0.2l-0.5,0.2l-2.2,0.4l-0.6,0l-0.4,0
			l-0.1-0.1l-0.2-0.3l-0.1-0.1l-0.2-0.1l-0.5,0.1l-0.7-0.1l-0.4-0.1l-0.2-0.1l-0.1-0.2l-0.1-0.2l-0.1-0.1l-0.1-0.1l-0.5-0.2
			l-0.1-0.1l-0.1-0.1l-0.1-0.3l0-0.2l0-0.1l0-0.1l-0.2-0.1l-0.3-0.1l-0.7-0.2l-0.4-0.1l-0.4,0l-0.4,0l-0.2,0.1l-0.2,0.1l-0.5,0.4
			l-0.2,0.1l-0.6,0.1l-0.2,0.1l-0.1,0.1l-0.2,0.2l-0.1,0.1l-0.2,0.3l-0.1,0.1l-0.1,0l-0.2-0.2l-0.2-0.1l-0.3-0.1l-0.4-0.1l-0.8,0
			l-0.2-0.1l-0.1-0.1l0.1-0.3l0-0.2l0-0.2l-0.2-0.5l-0.1-0.1l-0.1,0l-0.2,0l-0.2,0l-0.2,0.1l-0.2,0l-0.6,0l-0.6-0.1l-0.3,0l-0.2,0
			l-0.9,0.2l-1,0.1l-0.2,0l-0.2-0.1l-0.2-0.1l-0.1,0.1l-0.2,0.2l-0.3,0.2l-0.3,0.2l-0.1,0.1l-0.3,0.1l-0.2,0.1l-0.1,0.1l-0.2,0.1
			l-0.3,0.1l-0.4,0l-0.2,0.1l-0.1,0.1l-0.1,0.1l-0.1,0.1l-0.2,0.1l-0.4,0.1l-0.3,0l-0.2,0.1l-0.5,0.3l-0.1,0.1l-0.2,0l-0.2,0
			l-0.2,0.1l-0.2,0.1l-0.3,0.1l-0.2,0l-0.1-0.1l0-0.3l-0.1-0.1l-0.1,0l-0.3,0.1l-0.2,0.1l-0.2,0l-0.2-0.1l-0.2-0.1l-0.2-0.1
			l-0.6-0.1l-0.2-0.1l-0.1-0.1l-0.2-0.2l-0.1-0.1l-0.2,0l-0.7-1.8l-1.2-1.2l-0.2-1.2l0.8-0.8l-0.2-1.2l-1.4-0.2l-1.7,0.2h-1.4
			l-0.6-1.6l-1-4.1l0.2-1.6l2.9-0.6l1.7,0.8h3.3l0.6,1l1.2,1.6l1.7,1.4l1-0.6l0.8-1.8l1-0.6l1-1.2l1.7-0.4l1.2-2.8l0.7-2.7l2.1-0.4
			l2.3-0.2l1.9,0.2l1.7,0.8l1.4,0.6l0.6-0.8l-0.8-1.2l-1.7-1.4l1.2-1.2l1.2-1.4l1.4,0.8l1.4,0.8h1.7l0.8,0.6l1.4,0.6l2.4,0.6l0,0.3
			l0.1,0.7l0,0.1l0.2,0.4l0.1,0.2l0,0.2l0.1,0.4l0,0.6l0,0.1l-0.1,0.1l0,0.1l0,0.1l0,0.2l0.1,0.2l0.1,0.1l0.2,0.2l0.1,0.1l0.1,0.1
			l0,0.1l0,0.1l0.1,0.2l0,0.1l0,0.1l0.1,0.1l0.1,0.1l0.1,0.1l0,0.1l0,0.1l0,0.3l0.1,0.1l0.1,0.1l0.1,0l0.1,0l0.1,0.1l0,0.1l0.1,0.2
			l0,0.1l0.1,0.1l0.1,0l0.1,0l0.1,0.1l0.1,0l0,0.1l0,0.1l-0.2,0.5l0,0.1l0.1,0.1l0.1,0.1l0,0.1l0,0.4l0,0.1l0.4,0.5l0.2,0.2l0.3,0.2
			l0.1,0l0.1,0l0.1,0l0.2,0l0.2,0l0.1,0l0.1,0.1l0,0.1l0,0.3l0,0.2l0,0.1l0,0.1l0,0.1l0,0.2l0,0.1l0,0.1l0,0.1l0,0.1l0,0.2l-0.1,0.2
			l-0.3,0.6l-0.1,0.1l-0.1,0.1l-0.1,0.1l0,0.1l0,0.2l0.1,0.3l0,0.1l-0.1,0.2l-0.2,0.3l-0.1,0.1l-0.1,0.2l0,0.1l0,0.1l-0.2,0.7
			l-0.1,0.1l-0.1,0.1l-0.2,0.2l0,0.1l0,0.1l0,0.2l0,0.1l0.1,0.1l0.3,0l0.1,0l0,0.1l0,0.1l0,0.2l0,0.2l0,0.1l-0.1,0.1l-0.2,0.1
			l-0.1,0.1l-0.1,0.1l0,0.2v0.4l0,0.1l0,0.1l-0.2,0.1l-0.1,0.1l-0.1,0.2l0,0.6l-0.1,0.5l0,0.1l-0.1,0.1l-0.2,0.2l-0.1,0l-0.1,0
			l-0.1,0l-0.1,0l-0.1,0l-0.1,0l0,0l-0.1,0l-0.1,0.1l0,0.1l0,0.2l0,0.3l0,0.1l0,0.1l-0.1,0.1l-0.2,0.2l0,0.1l0,0.1l0,0.2l0,0.1
			l0,0.2l0,0.2l-0.4,0.8L-218.3-146.1z"/>
	</g>
	<g id="bongolava" transform="translate(366.6455,343.2539)" inkscape:label="#g72">
		<path id="path74" inkscape:connector-curvature="0" class="st5" d="M-176-151.1l0.2,0l0.1,0.1l0.2,0.2l0.1,0.1l0.2,0.1l0.6,0.1
			l0.2,0.1l0.2,0.1l0.2,0.1l0.2,0l0.2-0.1l0.3-0.1l0.1,0l0.1,0.1l0,0.3l0.1,0.1l0.2,0l0.3-0.1l0.2-0.1l0.2-0.1l0.2,0l0.2,0l0.1-0.1
			l0.5-0.3l0.2-0.1l0.3,0l0.4-0.1l0.2-0.1l0.1-0.1l0.1-0.1l0.1-0.1l0.2-0.1l0.4,0l0.3-0.1l0.2-0.1l0.1-0.1l0.2-0.1l0.3-0.1l0.1-0.1
			l0.3-0.2l0.3-0.2l0.2-0.2l0.1-0.1l0.2,0.1l0.2,0.1l0.2,0l0.5,2.8l1.3,3.6l2.1,2.8l1.6,1.5l0.5,2.3l0.3,0.5l0.5,0.5l0.2,0.8
			l0.5,0.7l0.6,0.3l0.3,0.4l-3.2-0.3l-2.5-0.2l-1.6,0.2l-1.6,1.4l-0.8,2.9l-1.6,2.5l-2.3,2.9l-1.6,2.3l-2.7,0.4l-2.8-0.3l0-0.1l0,0
			l0,0l0.2-0.1l0.1,0l0-0.1l0-0.1l0-0.5l0.1-0.4l0-0.5l0-0.2l0-0.1l-0.2-0.5l-0.1-0.3l-0.1-0.3l0-0.1l0-0.2l0-0.1l-0.1-0.1l-0.1,0
			l-0.1,0l-0.3,0.1l-0.2,0.1l-0.2,0.1l-0.1,0l-0.1,0l-0.1,0l-0.1,0l-0.1,0l-0.1-0.1l-0.2-0.2l-0.3-0.3l-0.1-0.1l0-0.1l-0.1-0.3
			l-0.2-0.3l-0.2-0.2l0-0.1l0-0.1l0-0.2l0-0.1l0.1-0.2l0-0.1l0-0.1l-0.1-0.1l-0.1-0.1l-0.3-0.1l-0.1-0.1l-0.1-0.1l-0.1-0.3l-0.1-0.1
			l-0.1-0.1l-0.3-0.2l-0.1-0.1l-0.1-0.1l0-0.1l-0.3-0.7l-0.1-0.2l-0.1-0.1l-0.1-0.1l-0.1,0l-0.3-0.1l-0.1,0l0-0.1l0-0.1l0.1-0.3
			l0.1-0.1l0.1-0.2l0-0.1l0-0.1l0-0.1l-0.1-0.5l0-0.1l-0.1-0.4l-0.1-0.8l0-0.2l-0.1-0.2l0-0.1l0-0.1l0.1-0.1l0.1-0.1l0.1-0.1
			l0.3-0.3l0-0.1l0.1-0.2l0.1-0.1l0.1-0.1l0.2-0.1l0.1-0.1l0-0.1l0.1-0.2l0-0.1l0.1-0.1l0.1-0.1l0.3-0.2l0.1-0.1l0.1-0.1l0-0.1
			l0.1-0.8l-0.2-2l0-0.5l0-0.1l0-0.1l0-0.1l0.2-0.2l0-0.1l-0.1-0.2l-0.4-0.7l-0.1-0.1l-0.3-0.1l0.1-0.2l0.1-0.1l0-0.1l0.1-0.1
			l0.1-0.1l0.2-0.2l0.1-0.1l0.2,0l0.2,0.1l0.2,0.1l0.2,0.1l0.1,0.1l0.1,0.1h0.1l0.1-0.1l0.1,0l0.2,0l0.6,0.2l0.1,0l0.6-0.4l0.1-0.1
			l0-0.2l-0.1-0.5l0-0.2l0.1-0.2l0.1-0.2l0.4-0.5l0.1-0.2l0.1-0.2l0.1-0.2l0-0.3l0.2-0.8l0.1-0.3l0.1-0.1l0.4-0.5l0.1-0.1l0-0.3
			l0-0.2l0.2-0.6l0-0.1l0-0.1l0-0.3l0-0.2l0-0.2l0.1-0.2l0.1-0.2L-176-151.1z"/>
	</g>
	<g id="vakinakaratra" transform="translate(359.6982,261.5088)" inkscape:label="#g76">
		<path id="path78" inkscape:connector-curvature="0" class="st5" d="M-172-35.4l0.4-0.5l0.1-0.1l0-0.1l0-0.3l0-0.1l0.1-0.1l0.1-0.1
			l0.1-0.1l0.1-0.1l0.1-0.1l0-0.1l0-0.1l0.1-0.6l0-0.1l-0.1-0.4l0-0.2l0-0.2l0-0.2l-0.3-0.8l-0.1-0.6l-0.1-0.1l-0.1-0.1l-0.1-0.1
			l0-0.1l0-0.1l0-0.2l0-0.1l0-0.1l0-0.1l0-0.1l0-0.9l2.8,0.3l2.7-0.4l3.7-0.6l1.6,0.4l1.2-0.2l1.4-1.4l1.9-1.2l1.9-0.4l1.7,0.2
			l0.6,0.8l2.1,0.4h2.1l1.6-1l0.6-1.6h1.7l-0.4,2.3v2.1l2.7,1.2l2.1,1.6v0.1l0,0.1l-0.1,0.1l-0.2,0.2l-0.1,0.1l0,0.2l0,1l0,0.2
			l0,0.2l0,0.1v0.1l0,0.4l-0.1,0.4l-0.5,0.8l-0.1,0.1l-0.2,0.2l-0.3,0.2l-0.1,0.1l0,0.1l-0.1,0.1l0,0.1l0,0.1l0,0.6l0,0.1l-0.1,0.2
			l-0.4,0.8L-142-33l-0.1,0.8l0-0.1l0-0.1l-0.1-0.1l-0.1,0l-0.1,0l-0.4-0.1l-0.1,0l-0.1,0l0-0.1l0-0.1l0-0.1l0-0.1l0.1-0.1l0-0.1
			l0-0.1l0-0.1l-0.1-0.1l-0.1,0l-0.2,0l-0.1,0l-0.1,0.1l-0.2,0.2l-0.1,0l-0.1,0l-0.5,0.1l-0.2,0.1l-0.8,0.5l-0.1,0l-0.1,0l-0.1-0.1
			l-0.1-0.2l-0.1-0.1l-0.1,0l-0.1,0l-0.1,0l-0.1,0.1l-0.1,0.1l0,0.1l0,0.1l0,0.1l-0.1,0.1l-0.1,0l-0.2,0l-1-0.3l-0.1,0l-0.2-0.2
			l-0.1,0l-0.1,0l-0.1,0l-0.2,0l-0.3,0.1l-0.1,0l0,0l-0.2,0.3l-0.1,0.1l-0.1,0l-0.1,0l-0.1-0.1l-0.1-0.1l0-0.1l0-0.1l-0.1,0l-0.1,0
			l-0.1,0l-0.1,0.1l-0.1,0.1l-0.2,0.1l-0.1,0.1l-0.1,0.1l0,0.1l0,0.1l0,0.1l0,0.3l-0.1,0.5l0,0.1l-0.1,0.1l-0.1,0l-0.3,0l-0.3,0.1
			l-0.3,0.1l-0.1,0l-0.7,0l-0.5,0.2l-0.1,0l-0.1,0l-0.3-0.1l-0.2-0.1l-0.1,0l-0.1,0l-0.1,0l-0.1,0l-0.2,0.1l-0.1,0.1l-0.1,0.2
			l-0.5,0.5l-0.4,0.3l-0.1,0.1l-0.1,0.1l-0.1,0.1l-0.1,0l-0.4,0l-0.1,0l-0.3,0.2l-0.3,0.1l-0.3-0.2l-0.3-0.2l-0.2,0.1l-0.3,0.2
			l-0.4,0l-0.3-0.1l-1-0.5l-0.3,0.1l-0.3,0.3l-0.3,0.3l-0.4,0l-0.1-0.1l-0.1-0.1l-0.1-0.1l-0.1,0l-0.2,0l-0.3-0.1l-0.3-0.1l-0.1-0.1
			l-0.1-0.1l-0.2,0l-0.2,0.1l-0.4,0.2l-0.2,0l-0.3-0.1l-0.4-0.2l-0.6-0.4l-0.3-0.3l-0.2-0.3l0.1-0.3l0.4-0.2l-0.1-0.2l-0.2-0.4
			l-0.1-0.2l0.2-0.1l0.1-0.2l0-0.3l-0.1-0.2l-0.2-0.1l-0.5-0.2l-0.2-0.2l-0.1,0.3l-0.1,0.1l-0.4,0.3l-0.4,0.5l-0.1,0l0-0.4l-0.1-0.3
			l-0.2-0.1l-0.3,0l-0.3-0.2l-0.1-0.3l-0.1-0.6l-0.2-0.2l-0.1,0l-0.3,0.1l-0.1,0l-0.1-0.1l-0.2-0.2l-0.1-0.1l-1-0.1l-0.8-0.3
			l-0.4-0.1l-0.1,0l-0.1,0l-0.2,0.1l-0.1,0l-0.1,0l-0.1,0l-0.1,0l-0.4-0.2L-172-35.4z"/>
	</g>
	<g id="amoron-i-mania" transform="translate(359.6982,261.5088)" inkscape:label="#g80">
		<path id="path82" inkscape:connector-curvature="0" class="st5" d="M-172-35.4l0.3,0.4l0.4,0.2l0.1,0l0.1,0l0.1,0l0.1,0l0.2-0.1
			l0.1,0l0.1,0l0.4,0.1l0.8,0.3l1,0.1l0.1,0.1l0.2,0.2l0.1,0.1l0.1,0l0.3-0.1l0.1,0l0.2,0.2l0.1,0.6l0.1,0.3l0.3,0.2l0.3,0l0.2,0.1
			l0.1,0.3l0,0.4l0.1,0l0.4-0.5l0.4-0.3l0.1-0.1l0.1-0.3l0.2,0.2l0.5,0.2l0.2,0.1l0.1,0.2l0,0.3l-0.1,0.2l-0.2,0.1l0.1,0.2l0.2,0.4
			l0.1,0.2l-0.4,0.2l-0.1,0.3l0.2,0.3l0.3,0.3l0.6,0.4l0.4,0.2l0.3,0.1l0.2,0l0.4-0.2l0.2-0.1l0.2,0l0.1,0.1l0.1,0.1l0.3,0.1
			l0.3,0.1l0.2,0l0.1,0l0.1,0.1l0.1,0.1l0.1,0.1l0.4,0l0.3-0.3l0.3-0.3l0.3-0.1l1,0.5l0.3,0.1l0.4,0l0.3-0.2l0.2-0.1l0.3,0.2
			l0.3,0.2l0.3-0.1l0.3-0.2l0.1,0l0.4,0l0.1,0l0.1-0.1l0.1-0.1l0.1-0.1l0.4-0.3l0.5-0.5l0.1-0.2l0.1-0.1l0.2-0.1l0.1,0l0.1,0l0.1,0
			l0.1,0l0.2,0.1l0.3,0.1l0.1,0l0.1,0l0.5-0.2l0.7,0l0.1,0l0.3-0.1l0.3-0.1l0.3,0l0.1,0l0.1-0.1l0-0.1l0.1-0.5l0-0.3l0-0.1l0-0.1
			l0-0.1l0.1-0.1l0.1-0.1l0.2-0.1l0.1-0.1l0.1-0.1l0.1,0l0.1,0l0.1,0l0,0.1l0,0.1l0.1,0.1l0.1,0.1l0.1,0l0.1,0l0.1-0.1l0.2-0.3l0,0
			l0.1,0l0.3-0.1l0.2,0l0.1,0l0.1,0l0.1,0l0.2,0.2l0.1,0l1,0.3l0.2,0l0.1,0l0.1-0.1l0-0.1l0-0.1l0-0.1l0.1-0.1l0.1-0.1l0.1,0l0.1,0
			l0.1,0l0.1,0.1l0.1,0.2l0.1,0.1l0.1,0l0.1,0l0.8-0.5l0.2-0.1l0.5-0.1l0.1,0l0.1,0l0.2-0.2l0.1-0.1l0.1,0l0.2,0l0.1,0l0.1,0.1
			l0,0.1l0,0.1l0,0.1l-0.1,0.1l0,0.1l0,0.1l0,0.1l0,0.1l0.1,0l0.1,0l0.4,0.1l0.1,0l0.1,0l0.1,0.1l0,0.1l0,0.1l0,0.8l0,0.3l-0.1,0.2
			l-0.2,0.5l-0.3,1.1l-0.1,0.4l0.1,1.4l0,0.1l0,0.1l0.1,0.1l0,0.1l0.1,0.2l0.1,0.1l0.1,0.1l0.2,0.1l0.1,0l0.1,0l0.2,0.2l0.1,0.1
			l0.1,0.1l0.1,0.1l0,0.1l0,0.1l0.1,0.1l0.1,0.1l0.1,0.1l-1.4,1.4l-1.2,0.4l-0.2,2.3l-0.2,1l-1.2,0.2l-0.8,0.8l-0.2,2.7l-1.9-0.2
			l-0.6-1l-1.2-0.4l-2.5,1l-1.2,1.7h-1.9l-2.1-1.5l-1.6-2.3l-0.4-1.2l-1.4,0.4l-1.2-0.4l-1.4,0.6l-1.4,1.2l-1.2,1.2l-2.1,0.6l-1.9,1
			l-2.1,0l0-0.1l0-0.1l0-0.1l0.1-1.5l0-0.2l0-0.2l0-0.2l-0.1-0.4l0-0.2l0-0.2l0-0.2l0-0.2l0-0.1l0.1-0.5l0-0.1l0.1-0.1l0-0.1l0-0.1
			l0-0.3l0-0.1l0-0.1l0.1-0.1l0.1,0l0.3,0l0.1,0l0.1-0.1l0-0.1l0-0.1l0-0.1l-0.1-0.8l-0.4-1.8l0-0.1l0-0.1l0-0.1l0-0.1l0-0.2l0-0.3
			l0-0.1l0-0.1l0.2-0.3l0-0.1l0-0.1l0-0.2l0-0.1l-0.1-0.7l0-0.1l0-0.1l0-0.2l0.1-0.2l0-0.1v-0.1l0-0.2l-0.3-1.1l0-0.1l0-0.3
			l-0.2-0.9l-0.1-0.3l-0.1-0.2l0-0.1l0-0.2l0-0.2l0-0.1l-0.1-0.2l0-0.1l0-0.1l0-0.1l0-0.1l0-0.3l0-0.1l0-0.1l0-0.1l0.1-0.1l0.1-0.1
			l0.1-0.1l0-0.1l0-0.1l0-0.2l0-0.1l0.1-0.2l0-0.1l0-0.1l0-0.1l-0.1-0.1l-0.2-0.1l-0.1-0.1L-172-34l-0.1-0.1l-0.1-0.2l0-0.1l0-0.1
			l0.1-0.2l0-0.1l0-0.1l0-0.4L-172-35.4z"/>
	</g>
	<g id="Alaotra-Mangoro" transform="translate(437.7793,272.9482)" inkscape:label="#g84">
		<path id="path86" inkscape:connector-curvature="0" class="st5" d="M-217.7-51.6l0-0.3l0-0.4l0-0.1l0-0.1l0.2-0.4l0.1-0.2l0-0.2
			l0-0.2l0-0.1l0-0.1l0.2-0.2l0.3-0.4l0.1-0.1l0-0.1l0-0.2l0.1-1.1l0-0.2l0-0.3l0-0.6l-0.1-0.2l0-0.1l0-0.2l0-0.5l0-0.1l0-0.1
			l-0.5-1l0-0.1l0-0.2l0-0.1l0-0.1l0.3-0.5l0.1-0.2l0-0.2l0-0.2l0-0.1l0-0.1l0.1-0.1l0.1-0.1l0.1-0.2l0-0.2l0-0.8l0-0.4l0-0.6l0-0.1
			l-0.1-0.4l-0.1-0.4l0-1.3l0.2-1.1l0.5-1.5l0.1-0.3l0-0.2l0-0.2l0.1-1.4l0-0.6l0-0.1l0-0.1l0-0.1l0.1-0.1l0.3-0.2l0.1-0.1l0.1-0.1
			l0-0.1l0-0.1l0-0.1l0-0.1l-0.1-0.2l0-0.1l0-0.2v-0.4l0-0.1l-0.2-0.4l0-0.1l0-0.1l0-1l0,0l0,0l0-0.3l0-0.3l0-0.2l0-0.2l0.1-0.1
			l0-0.1l0-0.1l-0.1-0.2l-0.1-0.2l-0.1-0.4l-0.1-0.2l-0.1-0.2l0-0.1l-0.1-0.7l0-0.1l0-0.1l-0.1-0.1l-0.1,0l-0.2-0.1l-0.1-0.1l-0.1,0
			l-0.2-0.1l-0.1-0.1l0-0.1l0-0.1l-0.1-0.3l0.5-0.7l0.4-0.8l0-0.2l0-0.2l0-0.1l0-0.2l0-0.1l0-0.1l0.2-0.2l0.1-0.1l0-0.1l0-0.1l0-0.3
			l0-0.2l0-0.1l0.1-0.1l0.1,0l0,0l0.1,0l0.1,0l0.1,0l0.1,0l0.1,0l0.1,0l0.2-0.2l0.1-0.1l0-0.1l0.1-0.5l0-0.6l0.1-0.2l0.1-0.1
			l0.2-0.1l0-0.1l0-0.1v-0.4l0-0.2l0.1-0.1l0.1-0.1l0.2-0.1l0.1-0.1l0-0.1l0-0.2l0-0.2l0-0.1l0-0.1l-0.1,0l-0.3,0l-0.1-0.1l0-0.1
			l0-0.2l0-0.1l0-0.1l0.2-0.2l0.1-0.1l0.1-0.1l0.2-0.7l0-0.1l0-0.1l0.1-0.2l0.1-0.1l0.2-0.3l0.1-0.2l0-0.1l-0.1-0.3l0-0.2l0-0.1
			l0.1-0.1l0.1-0.1l0.1-0.1l0.3-0.6l0.1-0.2l0-0.2l0-0.1l0-0.1l0-0.1l0-0.1l0-0.2l0-0.1l0-0.1l0-0.1l0-0.2l0-0.3l0-0.1l-0.1-0.1
			l-0.1,0l-0.2,0l-0.2,0l-0.1,0l-0.1,0l-0.1,0l-0.3-0.2l-0.2-0.2l-0.4-0.5l0-0.1l0-0.4l0-0.1l-0.1-0.1l-0.1-0.1l0-0.1l0.2-0.5l0-0.1
			l0-0.1l-0.1,0l-0.1-0.1l-0.1,0l-0.1,0l-0.1-0.1l0-0.1l-0.1-0.2l0-0.1l-0.1-0.1l-0.1,0l-0.1,0l-0.1-0.1l-0.1-0.1l0-0.3l0-0.1l0-0.1
			l-0.1-0.1l-0.1-0.1l-0.1-0.1l0-0.1l0-0.1l-0.1-0.2l0-0.1l0-0.1l-0.1-0.1l-0.1-0.1l-0.2-0.2l-0.1-0.1l-0.1-0.2l0-0.2l0-0.1l0-0.1
			l0.1-0.1l0-0.1l0-0.6l-0.1-0.4l0-0.2l-0.1-0.2l-0.2-0.4l0-0.1l-0.1-0.7l0-0.3l0-0.4l0-0.1l0.1-0.3l0-0.1l0.1-1l0-0.1l0-0.2
			l-0.1-0.6v-0.1l0-0.1l0.1-0.2l0.1-0.1l0.1-0.1l0.2-0.1l0.1-0.1l0.1-0.1l0-0.1l0-0.2l0-0.1l0.1,0l0.1,0l0.1,0.1l0.1,0l0,0l0.1,0
			l0.1-0.1l0.1,0h0.1l0.1,0l0.2,0.1l0.2,0l0.2,0l0.1,0l0.1,0l0.1,0l0.1,0.1l0.1,0l0.1,0l0.4,0l0.1,0l0.1,0l0.1,0l0.1,0l0.1,0
			l0.3-0.1l0.1,0l0.2-0.1l0.1,0l0.7-0.1l0.2,0l0.1,0l0.1,0l0.1,0l0.2,0l0.1,0l0.1,0l0.1,0l0.2,0.2l0.2,0.3l0.1,0.1l0.2,0.1l0.1,0.1
			l0.1,0l0.1,0l0.3,0.1l0.1,0l0.1,0.1l0,0.1l0,0.3l0,0.1l0,0.1l0.1,0l0.2,0l0.1,0l0.2,0l0.4-0.1l0.1,0l0.1,0l0.1,0.1l0.2,0.2
			l0.4,0.6l0.3,0.2l0.2,0.1l0.3,0.1l0.3,0.1l0.3,0.2l0.1,0.1l0,0.1l0,0.2l0,0.1l0.1,0l0.1,0.1l0.1,0.1l0,0.1l0,0.2l0,0.1l0.1,0.1
			l0,0.1l0,0.1l0,0.4l0,0.2l0,0.1l0,0.1l0,0.1l0.1,0.1l0.2,0.2l0,0.1l0,0.1l0,0.1l0,0.1l-0.1,0.2l-0.2,0.4l-0.1,0.2l0,0.2l0,0.1v0.2
			l0,0.2l0.1,0.2l0.1,0.3l0.5,0.7l0.1,0.1l0.1,0l0.1,0l0.1,0l0.1,0l0.1,0l0.1-0.1l0.1-0.1l0.3-0.3l1.3-0.9l0.1,0l0.1,0l0.1,0l0.2,0
			l0.3,0l0.1,0l0.3,0.1l0.1,0l0.1,0l-0.4,1.8v1.4l-1,2.4l0.4,2.6l-0.8,1.8l1,1.2l-0.8,2.1l-1.4,1l0.4,0.8l1.6,0.8l0.4,1.4l-0.6,1.6
			h-1.9l-1,0.4l1,1.2l1.4,1.6l0.2,1.6l-1.9,1.2l-1.9,0.4l-0.6,2.2v3.3l0.8,2.5l1.4,3.7v3.1l-1.4,0.4l-0.2,2.5l-2.7,0.8l0.6,3.1h-1.4
			l-0.6,3.7l-2.5-0.2l-1.2-1l-1.2,0.8l-2.2,0.4l0.1-0.4l0-0.4v-0.1l0-0.1l0-0.2l0-0.2l0-1l0-0.2l0.1-0.1l0.2-0.2l0.1-0.1l0-0.1
			V-51.6z"/>
	</g>
	<g id="ihorombe" transform="translate(404.6543,165.7803)" inkscape:label="#g88">
		<path id="path90" inkscape:connector-curvature="0" class="st5" d="M-198.3,100l0.8,1.5l1,3.8l1.4,2.7l0.2,2.5v2.1v1.3h-1.2
			l-1.6-1.1l-1.7-0.8l-1.4,0.2l-0.2,1.1l0.4,2.5l0.4,3.6l-0.4,3.2l-1.2,1.3l-1.4,0.2l-2.9-0.8l0.1-0.1l0.1-0.1l0-0.1l0-0.1l0-0.1
			l0-0.2l0-0.2l-0.1-0.3l-0.2-0.6l-0.1-0.2l-0.2-0.3l-0.3-0.4l-0.1-0.2l-0.1-0.4l-0.1-0.2l0-0.2l0-0.1l0.1-0.1l0.3-0.2l0.1-0.1
			l0.1-0.1l0.1-0.3l0.1-0.2l0.1-0.1l0-0.2l0-0.2l-0.1-0.3l-0.1-0.2l0-0.2V117l0-0.2l0.2-0.3l0.1-0.2l0-0.1l-0.1-0.8l-0.1-0.2
			l-0.1-0.1l-0.1-0.1l-1.1-0.6l-0.1-0.1l-0.1-0.1l-0.1-0.2l0-0.1l-0.3-0.5l-0.2-0.3l-0.1-0.3l0-0.1l0-0.1l-0.3-0.4l0,0l0-0.1l0-0.2
			l0-0.1l-0.1-0.3l-0.1-0.2l-0.9-2l-0.3-0.4l-0.1-0.1l-1.1-0.7l-0.3-0.3l-0.3,0.1l-0.3-0.3l-1.1-0.7l-0.4-0.1l-0.7,0l-1-0.1l-0.2,0
			l-0.8,0.2l-3,1.2l-3,1.8l-0.2,0.3l-0.3,2l0,1.4l-0.2,0.3l-0.1,0.2l0,0l-0.2,0.2l-0.1,0l-0.1,0l-0.1,0l-0.3-0.1l-0.2,0l-0.3,0
			l-0.2,0l-0.1-0.1l-0.1-0.1l0-0.1l-0.1-0.3l-0.1-0.1l-0.1-0.1l-0.1-0.2l-0.1-0.2l0-0.1l-0.1-0.1l-0.1,0l-0.3,0.1l-0.1,0l-0.3,0
			l-0.1,0l-0.6,0.1l-0.1,0l-0.2,0l-0.1-0.1l-0.1-0.1l-0.5-0.5l-0.2-0.2l-0.1-0.1l0-0.1l0-0.1l0-0.1l0-0.1l0-0.1l0-0.3l0-0.1
			l-0.1-0.2l-0.1-0.1l-0.1-0.1l0-0.1l0-0.1l0-0.2l0-0.3l0-0.1l0-0.1l0.1-0.3l0.2-0.7l0.1-0.2l0.1-0.1l0-0.1l0-0.1l0-0.1l0-0.2l0-0.1
			l0-0.1l0.1-0.2l0-0.1l0-0.1l0-0.1l0-0.1l-0.1-0.4l0-0.1l0-0.1l0-0.1l0-0.1l0-0.1l0.4-0.6l0.1-0.2l0.1-0.2l0-0.4l0-0.2l0.1-0.4
			l0.7-1.2l0.1-0.1l0.1-0.1l0-0.1l0-0.1l0-0.1l0-0.1l0-0.1l0.1-0.1l0.1-0.1l0.2-0.1l0.4-0.1l0.2-0.1l0.1-0.1l0.1-0.1l0-0.1l0-0.1
			l0-0.2l0-0.1l0.1-0.3l0-0.1l0.1,0l0.2-0.1l0.1,0l0-0.1l0-0.1l0-0.1l-0.1-0.3l0-0.1l0-0.1l0-0.2l0-0.2l0-0.1l0.1-0.2l0.1-0.3l0-0.1
			l0.1-0.1l0.1,0l0.2,0l0.1,0l0-0.1l0.1-0.2l0-0.1l0-0.1l-0.1-0.2l0-0.1l0-0.1l0.2-0.2l0.1-0.1l0-0.1l0-0.1l0-0.1l-0.1-0.2l-0.2-0.3
			l-0.1-0.2l0-0.1l0-0.1l0-0.1l0.1-0.2l0-0.1l0-0.1l-0.1-0.7l0-0.1l-0.1-0.1l-0.1-0.2l-0.2-0.4l-0.3-0.5l-0.1-0.2l-0.1-0.2l0-0.1
			l0-0.1l0.1-0.1l0.1,0l0.2-0.1l0.2,0h0.6l0.6-0.1l0.1,0l0.1-0.1l0-0.1l0-0.2l0-0.1l0-0.1l0.1-0.1l0.1,0l0.1,0l0.2,0l0.1,0l0.1,0
			l0.1-0.1l0-0.1l0.4-2.1l0-0.1l0-0.1l0-0.1l0.1-0.1l0.1,0l0.1,0l0.1,0l0.1,0l0.5,0l0.2,0l2.4,1.6l1.4,0.2l1.9-0.2l2.3,0.2l2.9,0.8
			l2.7,1.5l0.6,1.5l0.4,2.1l1.2,1.5l1.6,0.2h1.9h1.6L-198.3,100z"/>
	</g>
	<g id="haute-matsiatra" transform="translate(404.6543,165.7803)" inkscape:label="#g92">
		<path id="path94" inkscape:connector-curvature="0" class="st5" d="M-198.3,100l-1.9-0.8h-1.6h-1.9l-1.6-0.2l-1.2-1.5l-0.4-2.1
			l-0.6-1.5l-2.7-1.5l-2.9-0.8l-2.3-0.2l-1.9,0.2l-1.4-0.2l-2.4-1.6l0.2,0l0.1,0l0.1,0l0.1-0.1l0-0.1l0-0.1l0-0.2l0-0.2l0-0.1l0-0.1
			l0-0.1l0.3-0.1l0.1-0.1l0-0.1l0-0.1l0-0.1l0-0.1l-0.3-1.1l0-0.1l0-0.1l0.1-0.4l0-0.1l0-0.2l-0.1-0.5l0-0.1l0-0.1l0-0.1l0.6-0.7
			l0-0.1l0-0.1l0-0.1l0-0.1l0-0.3l0-0.1l0-0.1l0.1-0.1l0.1,0l0.2,0l0.1,0l0-0.1l0.1-0.2l0-0.1l0-0.1l0.1-0.1l0.1,0l0.1,0l0.1,0
			l0.1-0.1l0-0.1l0.1-0.1l0.2-0.1l0.2-0.1l0.2,0l0.1,0l0.1,0l0.1,0l0.3,0l0.1,0l0.1,0l0.1-0.1l0-0.1l0-0.1l0-0.1l0-0.4l0-0.2
			l-0.3-1.7l0-0.1l0-0.1l0-0.1l0.2-0.2l0.1-0.1l0.2-0.4l2.1,0l1.9-1l2.1-0.6l1.2-1.2l1.4-1.2l1.4-0.6l1.2,0.4l1.4-0.4l0.4,1.2
			l1.6,2.3l2.1,1.5h1.9l1.2-1.7l2.5-1l1.2,0.4l0.6,1l1.9,0.2l-0.6,3.1l-0.8,1.9l0.4,1.2l0.6,1.5l-1,4.8l-0.6,2.5l-0.6,1.3l0.6,1.3
			l-2.3,1.3l-1.7,1L-198.3,100z"/>
	</g>
	<g id="itasy" transform="translate(409.9756,306.8457)" inkscape:label="#g96">
		<path id="path98" inkscape:connector-curvature="0" class="st5" d="M-201.4-99.6l0.7,0.2l1.1,0.2l0.5,0.3l0.4,0.2l0.2,0.5l1.7,2.8
			l0.8,2.7l-0.6,1.6l-1.6,1h-2.1l-2.1-0.4l-0.6-0.8l-1.7-0.2l-1.9,0.4l-1.9,1.2l-1.4,1.4l-1.2,0.2l-1.6-0.4l-3.7,0.6l1.6-2.3
			l2.3-2.9l1.6-2.5l0.8-2.9l1.6-1.4l1.6-0.2l2.5,0.2L-201.4-99.6z"/>
	</g>
</g>
</svg>
