<?xml version="1.0" encoding="utf-8"?>
<!-- Generator: Adobe Illustrator 19.0.0, SVG Export Plug-In . SVG Version: 6.00 Build 0)  -->
<svg version="1.1" id="Calque_1" xmlns="http://www.w3.org/2000/svg" xmlns:xlink="http://www.w3.org/1999/xlink" x="0px" y="0px"
	 viewBox="0 0 300 300" style="enable-background:new 0 0 300 300;" xml:space="preserve">
<style type="text/css">
	.st0{fill:#FFFFFF;}
	.st1{fill:url(#XMLID_2_);}
	#XMLID_20_{
		animation: swing 2s ease infinite;
	}
	@keyframes swing {
		0%{
			fill: rgba(0,0,0,0);
		}
		50%{
			fill: rgba(255,255,255,255);
		}
		100%{
			fill: rgba(0,0,0,0);
		}
	}
</style>
<path id="XMLID_19_" class="st0" d="M177.2,193.8l-23.7-10.1l22.1-13.1c-1-4.8-2.5-9.4-4.4-13.8l-25.7,2l13.5-21.9
	c-3.1-3.7-6.6-7.1-10.3-10.2L127,140.3l1.8-25.7c-4.4-1.8-9.1-3.3-13.9-4.2L102,132.7l-10.4-23.5c-4.9,0.5-9.7,1.4-14.3,2.7
	l-1.1,25.7l-20.1-16c-4.1,2.7-7.9,5.7-11.4,9l11,23.3L30.5,149c-2.4,4.2-4.3,8.6-5.9,13.3l20.6,15.5l-24.6,7.5c0,0.7,0,1.4,0,2.1
	c0,4.2,0.3,8.4,1,12.4l25.4,4.2l-18.3,18.1c2.2,4.4,4.7,8.5,7.6,12.4l24.4-8.1l-7.8,24.5c3.9,2.9,8.1,5.4,12.5,7.5L83,239.6
	l4.4,25.3c3.8,0.6,7.6,0.8,11.5,0.8c1,0,2,0,3-0.1l7.2-24.7l15.7,20.4c4.6-1.6,9-3.6,13.2-6l-5.1-25.2l23.4,10.7
	c3.3-3.5,6.3-7.4,8.9-11.5l-16.2-20l25.7-1.4C176,203.5,176.8,198.7,177.2,193.8z M98.9,230c-23.6,0-42.7-19.1-42.7-42.7
	s19.1-42.7,42.7-42.7s42.7,19.1,42.7,42.7S122.5,230,98.9,230z">
	<animateTransform attributeName="transform" type="rotate"
                    from="0 98.855 187.466" to="360 98.855 187.466" dur="10s" repeatDur="indefinite"/>
</path>
<path id="XMLID_14_" class="st0" d="M268.9,246.2l-15.7-6.7l14.6-8.7c-0.7-3.2-1.7-6.2-2.9-9.2l-17,1.3l8.9-14.5
	c-2.1-2.5-4.4-4.7-6.8-6.8l-14.4,9.1l1.2-17c-2.9-1.2-6-2.2-9.2-2.8l-8.5,14.7l-6.9-15.6c-3.2,0.3-6.4,0.9-9.4,1.8l-0.7,17
	l-13.3-10.6c-2.7,1.8-5.2,3.8-7.5,6l7.3,15.4l-16.7-3.2c-1.6,2.8-2.9,5.7-3.9,8.8l13.6,10.3l-16.3,4.9c0,0.5,0,0.9,0,1.4
	c0,2.8,0.2,5.5,0.6,8.2l16.8,2.8l-12.1,12c1.4,2.9,3.1,5.6,5,8.2l16.2-5.4l-5.2,16.2c2.6,1.9,5.3,3.5,8.2,4.9l11.8-12.3l2.9,16.8
	c2.5,0.4,5,0.6,7.6,0.6c0.7,0,1.3,0,2,0l4.8-16.3l10.4,13.5c3.1-1.1,6-2.4,8.7-4l-3.4-16.7l15.5,7.1c2.2-2.3,4.2-4.9,5.9-7.6
	l-10.8-13.2l17-0.9C268,252.6,268.6,249.4,268.9,246.2z M217,270.1c-15.6,0-28.3-12.7-28.3-28.3s12.7-28.3,28.3-28.3
	s28.3,12.7,28.3,28.3S232.6,270.1,217,270.1z">
	<animateTransform attributeName="transform" type="rotate"
                    from="360 216.991 241.949" to="0 216.991 241.949" dur="10s" repeatDur="indefinite"/>
</path>
<g id="XMLID_20_">
	
		<radialGradient id="XMLID_2_" cx="779.0079" cy="408.908" r="221.3621" gradientTransform="matrix(0.3619 0 0 -0.2984 -58.4105 210.6318)" gradientUnits="userSpaceOnUse">
		<stop  offset="0" style="stop-color:#B3E304"/>
		<stop  offset="1" style="stop-color:#93BA07"/>
	</radialGradient>
	<path id="XMLID_23_" class="st1" d="M217.2,165.6c0,0-3.2-4.3-4.3-5.7c-3.9-5.4-8.9-11.8-12.8-19.3l-0.4,1.4h-7.1
		c-0.7-0.7-1.4-1.1-2.1-1.8c-1.4-1.4-3.2-2.5-4.6-3.9c-10.3-9.6-17.1-21-20.7-33.2c-2.1-7.8-1.8-16.4,1.4-25.7
		c2.9-8.2,7.1-16.1,11.1-22.8l0.7-1.4c3.2-5.7,6.4-11.4,8.6-17.1c1.4-3.9,1.8-7.5,1.8-11.1c-0.4-2.1-1.1-4.6-2.1-6.8l-1.1-1.1
		l6.4-8.2h0.7c0.4,0,1.1,0.4,1.4,0.4c7.8,2.1,15.3,5.7,22.8,11.1c14.6,10.7,25,23.5,30.7,37.8c7.1,17.5,5,34.2-6.4,49.9
		c2.1-0.7,4.3-1.8,6.4-2.5c1.4-0.7,3.2-1.1,4.6-1.8c1.1-0.4,2.1-0.7,3.2-1.1c2.5-0.7,4.6-1.8,6.4-2.5c3.6-1.4,5.4-3.6,6.4-6.1
		l10-1.1l0.4,0.7c0.4,0.7,0.7,1.4,1.1,2.1c2.1,3.9,3.2,8.6,3.2,13.6c0.4,7.1-1.1,13.9-4.3,20c-5,10.7-14.6,17.5-28.2,20.3l-3.6,0.7
		c-3.2,0.7-6.1,1.1-8.9,2.1c-6.1,1.4-7.5,4.3-8.2,8.6c0-0.7,0-1.1,0-1.4l-4.6,7.8h-4.3L217.2,165.6z"/>
	<path id="XMLID_21_" class="st0" d="M190.4,14.8c0.7,0,1.1,0.4,1.8,0.4c7.8,2.1,14.6,5.7,21,10.3c13.2,9.6,23.2,21.4,28.9,35.3
		c6.4,15.7,4.3,30.7-5.7,44.9c-3.6,5-7.5,9.3-11.1,14.3c-2.5,3.6-5.4,7.1-7.5,10.7c-4.3,7.8-3.2,15.3,1.4,22.8
		c1.1,1.8,2.5,3.6,3.9,5.7c1.1-3.2,1.8-6.4,2.5-9.3c2.5-7.5,6.4-14.3,12.5-20c3.6-3.2,7.8-5.7,12.5-7.8c3.6-1.8,7.1-3.6,10.7-5.4
		c3.6-2.1,6.4-4.6,8.6-8.2h-0.4l0,0c-3.9,3.9-8.9,6.8-14.6,9.3c-2.5,1.1-5,2.1-7.5,2.9c-11.1,4.3-18.5,11.4-22.8,20.7
		c-0.4,0.7-0.7,1.8-1.1,2.5h-0.4c0-1.8,0-3.9,0-5.7c0.4-3.6,1.4-7.1,3.2-10.7c2.5-5.4,6.4-9.3,12.5-12.1c4.6-2.1,10-3.9,14.6-5.7
		c3.2-1.4,6.8-2.5,10-3.9c4.3-2.1,7.8-5,9.3-9.3c0.7,1.1,1.1,1.8,1.4,2.5c1.8,3.6,2.5,7.1,2.9,11.1c0.4,6.1-0.7,11.8-3.6,17.1
		c-4.3,9.3-12.5,14.6-23.9,17.1c-4.3,1.1-8.6,1.8-12.8,2.9c-7.8,2.1-11.1,6.4-12.1,13.2c0,0.4,0.4,1.1,0.7,1.4c-1.4,0-2.5,0-4.3,0
		c-1.4-1.8-2.9-3.6-4.3-5.7c-6.4-8.6-12.5-17.5-16.8-27.5c-3.2-7.8-5.7-16.1-6.4-24.3c-0.7-7.1,0-14.3,2.5-21
		c2.1-6.8,5-13.2,7.1-19.6c2.1-6.4,3.9-12.8,3.6-19.3c-0.4-3.6-0.7-7.1-2.5-10.7c0,0.4,0,0.4,0,0.7c1.1,8.6-0.7,16.4-3.9,24.6
		c-2.9,7.1-6.1,13.9-9.3,21c-2.5,6.1-4.3,12.1-5,18.2c-0.7,5,0,10,0.7,15c1.4,8.2,4.6,16.1,8.6,23.5c0,0,0,0.4,0.4,0.4
		c0,0-0.4,0-0.4,0.4c-2.1-1.8-4.3-3.6-6.4-5.4c-9.3-8.9-16.1-18.9-18.9-30.3c-2.1-7.5-1.1-15,1.4-22.5c2.5-7.5,6.4-14.6,10.3-21.8
		c3.6-6.4,7.1-12.5,9.6-19.3c1.4-4.3,2.5-8.9,1.8-13.2c0.4-3.2-0.7-6.1-2.1-8.9C190.8,15.8,190.8,15.5,190.4,14.8 M192.9,3.7
		l-12.5,16.4l0.4,0.7c0.4,0.4,0.4,0.7,0.4,1.1c0.7,1.4,1.4,3.2,1.4,4.6c0.4,2.5-0.4,5.4-1.4,8.6c-1.8,5.4-5,10.7-8.2,16.1l-0.7,1.4
		c-3.9,7.1-8.6,15-11.4,23.9c-3.6,10.3-3.9,20-1.4,28.9c3.6,13.2,11.1,25.3,22.1,35.7c1.8,1.4,3.2,2.9,5,4.3
		c0.7,0.4,1.4,1.1,1.8,1.4l8.2,0.4c3.9,6.4,7.8,11.8,11.4,16.4c1.1,1.4,2.1,2.9,3.2,3.9l1.4,1.8l9.6,4.3h1.8h2.5l9.6-16.4
		c0.4,1.4,0.7,3.2,0.4,5c0.4-2.5,0.4-3.2,3.9-3.9c2.9-0.7,5.7-1.4,8.6-1.8c1.1-0.4,2.5-0.4,3.6-0.7c18.9-3.9,27.8-15,31.7-23.2
		c3.6-7.1,5-14.6,4.6-22.8c-0.4-6.1-1.4-11.1-3.9-16.1c-0.4-1.1-1.1-1.8-1.4-2.5l-0.4-0.7l-20.3,2.1c-0.4,0.7-0.7,1.8-3.6,2.9
		c-1.8,0.7-3.9,1.8-6.1,2.5c5.4-13.2,5-27.5-0.7-41.4c-6.1-15.3-17.1-28.9-32.8-40.3c-7.8-5.7-16.1-9.6-24.6-12.1
		c-0.4,0-1.1-0.4-1.8-0.4L192.9,3.7L192.9,3.7z"/>
</g>
</svg>
