<?xml version="1.0" encoding="utf-8"?>
<!-- Generator: Adobe Illustrator 19.0.0, SVG Export Plug-In . SVG Version: 6.00 Build 0)  -->
<svg version="1.1" id="Calque_1" xmlns="http://www.w3.org/2000/svg" xmlns:xlink="http://www.w3.org/1999/xlink" x="0px" y="0px"
	 viewBox="0 0 1920 1080" style="enable-background:new 0 0 1920 1080;" xml:space="preserve">
<style type="text/css">
	.st0{fill:url(#XMLID_2_);}
	.st1{fill:url(#XMLID_3_);}
	.st2{fill:#132B38;}
	.st3{fill:#1E3D57;}
	.st4{fill:#1C4154;}
	.st5{fill:#2F5778;}
	.st6{fill:#285173;}
	.st7{fill:#EEA886;}
	.st8{fill:#163342;}
	.st9{fill:#477EEB;}
	.st10{fill:#2D5196;}
	.st11{fill:#87BC46;}
	.st12{fill:#A09832;}
	.st13{fill:#79A83F;}
	.st14{fill:#727643;}
	.st15{fill:#4B4C37;}
	.st16{fill:#444532;}
	.st17{fill:#4D8B33;}
	.st18{fill:#B1C265;}
	.st19{fill:#79854C;}
	.st20{fill:#C7CA7F;}
	.st21{fill:#5C9E33;}
	.st22{fill:#518330;}
	.st23{fill:#6C9F44;}
	.st24{fill:#4A8A33;}
	.st25{fill:#689C2F;}
	.st26{fill:#5F7A25;}
	.st27{fill:#478B33;}
	.st28{fill:#61A23E;}
	.st29{fill:#497A2F;}
	.st30{fill:#31535F;}
	.st31{fill:#27434C;}
	.st32{fill:#81A358;}
	.st33{fill:#7AA348;}
	.st34{fill:#6D894A;}
	.st35{fill:#8FBC58;}
	.st36{fill:#86A85A;}
	.st37{fill:#B4BC5C;}
	.st38{fill:#7CA34D;}
	.st39{fill:#75934E;}
	.st40{fill:#B7D05E;}
	.st41{fill:#A1B25F;}
	.st42{fill:#989E4D;}
	.st43{fill:#868D35;}
	.st44{fill:#9CB839;}
</style>
<linearGradient id="XMLID_2_" gradientUnits="userSpaceOnUse" x1="1048.1906" y1="138.3258" x2="952.4671" y2="58.1574" gradientTransform="matrix(1 0 0 -1 0 1082)">
	<stop  offset="9.585490e-002" style="stop-color:#5D7D2E"/>
	<stop  offset="1" style="stop-color:#677D2E"/>
</linearGradient>
<path id="XMLID_89_" class="st0" d="M971.4,1048.5c-12.7,1.8-23.6-0.3-33.3-3.6c0.4-5.4-0.2-11.5-2.9-17.6
	c-2.4-5.1-3.3-9.7-3.7-14.2c1.7-2.5,5.3-6.3,12.9-10.5c12.3-6.8,9.2-16.6,9.2-16.6c-1.7,2.3-9.6,4.4-18.2,12.2
	c-1.7,1.5-2.6,3.3-3.3,4.9c0.9-6.1,2.4-11.9,2.2-17.3c-0.2-4.1-0.9-6.9-2-9.2c0-7.7-6.8-14.2-13.1-14.3c-7.9-0.3-10.5-5.8-10.5-5.8
	c-0.9,21.9,18.6,25.7,21.7,26.2c0,1.5,0,3,0,4.6c-0.4,11.2-2.8,19.8-1.3,32.1c-4.1-5.6-12-8.4-17.1-6.6c-7.4,2.5-12.3-1.6-12.3-1.6
	c8.5,19.3,26.5,17.5,31.1,16.6c0.2,0.7,0.2,1.3,0.6,2.1c1.3,4.8,1.7,9.2,1.3,12.9c-19.5-7.7-34.8-18.1-53.2-6.9
	c-29.1,17.8-20.6,33.8-42,33.9l187.2-2C1024.2,1068,1013.6,1042.8,971.4,1048.5z"/>
<linearGradient id="XMLID_3_" gradientUnits="userSpaceOnUse" x1="-1.144409e-005" y1="52.839" x2="1920" y2="52.839" gradientTransform="matrix(1 0 0 -1 0 1082)">
	<stop  offset="0" style="stop-color:#3076A1"/>
	<stop  offset="1" style="stop-color:#639C38"/>
</linearGradient>
<path id="XMLID_88_" class="st1" d="M0,1022.5c0,0,222.1,31.8,451.1,10.7c401.5-36.9,749.5,64.4,1092.9-15
	c237.9-55,375.9-35.3,375.9-35.3v95.9H0L0,1022.5L0,1022.5z"/>
<g id="XMLID_97_">
	<g id="XMLID_127_">
		<path id="XMLID_16_" class="st2" d="M1102.5,1041.6c0,0,1.5,14.7,0.9,17c-0.4,2.5-14.4,7.6-16.8,11c-2.4,3.5,0.7,8.1,2.2,8.2
			c1.5,0,25.4,1,27.3-0.8c1.7-1.6,17.7-35.3,16.8-40.4c-0.9-5.1-5.9-10.7-22.1-10.7C1094.6,1025.8,1102.5,1041.6,1102.5,1041.6z"/>
	</g>
	<g id="XMLID_125_">
		<path id="XMLID_15_" class="st3" d="M1059.4,966c0,0-13.8,7.2-19.3,11.2s-44.4,26.5-48.5,32.1c-4.1,5.6-2.4,26.2,0.9,28.7
			s17.9,4,22.1,4.8c4.2,0.8,82.9,5.6,82.9,5.6l10.9-23.9c0,0-12.2-5.1-24-5.3c-12-0.2-17.3-3.1-17.3-3.1s31.7-5.6,49.6-11.4
			c17.7-5.6,22.1-14,20.1-24.7c-2-10.7-6.4-27.7-14.4-33.1C1114.5,941.4,1059.4,966,1059.4,966z"/>
	</g>
	<g id="XMLID_123_">
		<path id="XMLID_14_" class="st4" d="M1123.2,1041.3c0,0,1.5,14.7,0.9,17c-0.4,2.5-14.4,7.6-16.8,11c-2.4,3.5,0.7,8.1,2.2,8.2
			c1.5,0,25.4,1,27.3-0.8c1.7-1.6,20.1-35.8,19.2-40.9c-0.9-5.1-7.7-11.9-24-11.9C1115.8,1024.1,1123.2,1041.3,1123.2,1041.3z"/>
	</g>
	<g id="XMLID_121_">
		<path id="XMLID_13_" class="st5" d="M1112.5,1038.8c0,0,9.9,2.5,10.7,2.5c0,0,8.8-16.3,8.8-17.3l-11.2-2.6L1112.5,1038.8z"/>
	</g>
	<g id="XMLID_119_">
		<path id="XMLID_12_" class="st6" d="M1061.3,961.2c0,0-14.7,5.9-20.6,9.4c-5.9,3.3-47.3,22.1-52.1,27.2
			c-4.8,5.1-5.7,25.9-2.6,28.5c3.1,2.6,17.3,5.8,21.4,6.9c4.1,1.2,109.4,15.5,109.4,15.5l13.8-26.2c0,0-25.6-6.3-37.6-7.4
			c-11.8-1.3-30.2-3.3-30.2-3.3s32.4-1.3,50.7-5.3c18.4-4,27.8-15.5,27.1-26.4c-0.7-10.9-8.5-24.5-14.4-31.8
			C1120.4,941.1,1061.3,961.2,1061.3,961.2z"/>
	</g>
	<g id="XMLID_116_">
		<g id="XMLID_117_">
			<path id="XMLID_11_" class="st7" d="M972.1,847c0,0,4.4,11.2,7.9,10.2c2.9-0.8,7.7,9.7,8.7,11.4c0.9,1.6,5.5-1.2,7.4-1.2
				c1.7,0,15.1,6.6,18.4,4c3.3-2.6,11.8-20.1,11.2-27.2c-0.6-7.1-16.8-25.4-27.3-29.5C987.8,810.6,964.4,827.4,972.1,847z"/>
		</g>
	</g>
	<g id="XMLID_113_">
		<g id="XMLID_114_">
			<path id="XMLID_10_" class="st8" d="M973,849.3c0,0-11.8-5.9-10.9-19.3c0.9-13.3,26-15.2,28.2-16.1c9.4-4.6,16.4-3.5,25.6,11.4
				c12.2,19.8,8.3,16.1,8.3,16.1s-8.1-6.6-12-4.4c-4.1,2.5-10.1,7.1-10.1,7.1s-5.3-9.2-10.9-5.9C985.7,841.2,975.6,843.6,973,849.3z
				"/>
		</g>
	</g>
	<g id="XMLID_111_">
		<path id="XMLID_9_" class="st7" d="M1025,841.6c0,0,5.9,9.4,12.3,11.2c6.4,1.8-14.2,19.1-14.2,19.1s-5.9-6.1-12.7-4.4
			C1003.8,868.9,1025,841.6,1025,841.6z"/>
	</g>
	<g id="XMLID_108_">
		<g id="XMLID_109_">
			<path id="XMLID_8_" class="st7" d="M1003.6,836.8c-0.7-1.3-3.7-4.9,2.9-6.3c6.6-1.3,9,10.4,8.5,11
				C1014.5,842.4,1009.9,847.7,1003.6,836.8z"/>
		</g>
	</g>
	<g id="XMLID_104_">
		<g id="XMLID_105_">
			<g id="XMLID_106_">
				<path id="XMLID_7_" class="st7" d="M948.3,989.7c0,0-4.8,1.8-7,1.8s-15.8-1.2-17.5,1c-1.7,2.1-14.7,13.8-12.9,15.5
					c1.8,1.8,3.1,0.8,4.1,0c0.9-0.8,10.9-8.4,12-8.6c0,0-8.8,8.9-7.2,11.5c1.7,2.6,4.4,2.1,6.1,2.6c1.7,0.5,4.4,2.3,7.4,1.2
					c2.9-1.2,14.2-12.2,16.9-13.8c2.8-1.6,9.9-4.1,10.1-4.6C960.3,995.5,948.3,989.7,948.3,989.7z"/>
			</g>
		</g>
	</g>
	<g id="XMLID_102_">
		<path id="XMLID_6_" class="st9" d="M1023.1,871.7c0,0-4.1,20.3-0.9,29.5c3.1,9.2,20.3,21.6,24.3,24.2c4.2,2.6,15.8,22.2,15.3,26.9
			c-0.4,4.6-0.6,8.9-0.6,8.9s68.9,19.6,80.1,3.6c0,0-31.3-57-33.2-63.3c-1.8-6.3-16.9-23.9-25.1-31c-12.3-10.9-46.1-18-46.1-18
			L1023.1,871.7z"/>
	</g>
	<g id="XMLID_100_">
		<path id="XMLID_5_" class="st10" d="M1044,924c0.7,0.7,2.9,2.3,3.5,2.8c0,0,2.4-10.2,5-21.9C1052.2,905.2,1044.7,922.6,1044,924z"
			/>
	</g>
	<g id="XMLID_98_">
		<path id="XMLID_4_" class="st9" d="M1023.3,889.2c1.7-2.8,5-18.5,19.5-15.8c14.6,2.6,16.2,16.8,12.2,25.9s-9.2,20.9-9.9,22.9
			c-0.7,2-18.2,31.8-20.6,33.6c-2.4,1.6-28,21.6-32.4,23.7c-4.4,2.1-37,20.1-37,20.1l-8.5-9.2c0,0,47.9-39.2,51.8-41.8
			c4.1-2.8,9.9-9.4,10.9-13.8C1009.9,930.1,1020.9,893.3,1023.3,889.2z"/>
	</g>
</g>
<g id="XMLID_214_">
	<path id="XMLID_87_" class="st11" d="M417.3,1002.4L417.3,1002.4c0,0,15.8,8.8,11.7,4.7c-4.1-3.9,10.3-26.3,30.3-55.8
		c19.9-29.5,6.9-42.3-5.5-76.5c-4.9-13.6-13.5-18.7-21.8-18.4c-12.5,0.3-24.1,13-20.6,26.4c5.7,22.3,13.5,43.8-1,66.2
		C396.1,971,416.9,1001.8,417.3,1002.4z"/>
	<path id="XMLID_86_" class="st11" d="M460.4,882.5c9.7-5.5,21.4-25.5,11.7-30.3c-9.7-4.7-2.1-19.2-11.7-19.2s-14.5,17.4-8.9,26.9
		C451.4,860,450.7,888,460.4,882.5z"/>
	<path id="XMLID_85_" class="st11" d="M462.8,833.4c0,0,15.1-15.1,0-18.4c-15.1-3.2-11,15.9-9.7,18.4
		C454.5,835.9,462.8,833.4,462.8,833.4z"/>
	<path id="XMLID_84_" class="st12" d="M402.9,886.4c11.7-2.4,11.7-15.9,11.7-15.9s-9.3-19.9-17.2-10.7
		C389.4,868.9,391.2,888.8,402.9,886.4z"/>
	<path id="XMLID_83_" class="st13" d="M417.3,1002.4L417.3,1002.4c0,0,23.1-48.6,11-82.8c-8.4-24-1.3-49.8,3.6-63
		c-12.5,0.3-24.1,13-20.6,26.4c5.7,22.3,13.5,43.8-1,66.2C396.1,971,416.9,1001.8,417.3,1002.4z"/>
	<polygon id="XMLID_82_" class="st14" points="457.6,1001.8 389.2,1001.8 392.2,1013.3 455.1,1013.3 	"/>
	<polygon id="XMLID_81_" class="st15" points="443,1078.9 448.7,1026.4 450.1,1013.3 397.6,1013.3 404.3,1078.9 	"/>
	<polygon id="XMLID_80_" class="st11" points="460.5,915.5 475.7,903.5 460.5,913.1 	"/>
	<polygon id="XMLID_79_" class="st11" points="443.3,837 451.5,845.6 452.3,843.6 	"/>
	<polygon id="XMLID_78_" class="st11" points="463.6,844 473.6,842.3 464.5,842.3 	"/>
	<polygon id="XMLID_77_" class="st11" points="453.6,805.5 456.6,817.1 457.8,817.1 	"/>
	<polygon id="XMLID_76_" class="st11" points="465.3,817.1 466.2,818.7 472.7,812.4 	"/>
	<polygon id="XMLID_75_" class="st11" points="460.5,815.5 462.4,816.3 460.5,808.8 	"/>
	<polygon id="XMLID_74_" class="st11" points="456,940.4 462.4,958.8 459.3,940.4 	"/>
	<polygon id="XMLID_73_" class="st14" points="398.7,870.4 385.7,860 397.6,872 	"/>
	<polygon id="XMLID_72_" class="st14" points="408.8,958.8 390,962.2 408.8,962.2 	"/>
	<path id="XMLID_71_" class="st16" d="M448.7,1026.4l1.4-13.1h-52.5l6.7,65.6H417C416,1042.8,438.4,1030.3,448.7,1026.4z"/>
</g>
<g id="XMLID_196_">
	<path id="XMLID_70_" class="st17" d="M247.8,861c0,0-40.4-57.3-56.6-83.2c-16.2-26,33.9,121.7,38.1,137.3
		C233.4,930.7,250.5,944.2,247.8,861z"/>
	<path id="XMLID_69_" class="st18" d="M286.4,949.4c18-31.2,30.6-171.6,30.6-171.6c-31.4,30.2-61.1,165.8-61.1,165.8
		S268.5,980.6,286.4,949.4z"/>
	<path id="XMLID_68_" class="st19" d="M282.4,935.3c5.4-13.3-1.8-185.4-6.1-169.8c-4.3,15.6-28.7,80.1-28.7,80.1
		C243.9,884.7,277,948.6,282.4,935.3z"/>
	<path id="XMLID_67_" class="st20" d="M241,897.1c-9.5-20.1-103.7-127.7-103.7-127.7c0.9,33.2,59.3,112.4,59.3,112.4
		S250.5,917.2,241,897.1z"/>
	<path id="XMLID_66_" class="st21" d="M286.4,947.1c-108.8-46.4-211.2-22.3-211.2-22.3c11.7,20.8,157.4,22.3,157.4,22.3H286.4z"/>
	<path id="XMLID_65_" class="st22" d="M263.6,951.2C208.3,881.6,78.1,848.1,78.1,848.1c38.5,45.5,93.8,85.4,93.8,85.4
		S318.9,1021,263.6,951.2z"/>
	<path id="XMLID_64_" class="st23" d="M274.8,943.7c-32.4-69.3-155.5-137.7-155.5-137.7c0,21.9,99.9,123.5,99.9,123.5
		S307.1,1013,274.8,943.7z"/>
	<path id="XMLID_63_" class="st24" d="M273.9,950.5C298.1,945.3,388,843.4,388,843.4c-23.4,5.2-114.1,71.8-114.1,71.8
		S249.6,955.6,273.9,950.5z"/>
	<path id="XMLID_62_" class="st25" d="M317,951c30.6,1.5,128.5-69.1,128.5-69.1c-29.3,0-96.6,20.5-129.6,31.2
		c-12.4,4.1-22.9,13.5-29.2,26.5C269.3,975.5,290.4,949.6,317,951z"/>
	<path id="XMLID_61_" class="st25" d="M298.6,927.6c27.6-15.3,85.4-131,85.4-131c-25.9,16-76.9,70.8-101.6,98
		c-9.3,10.3-14.7,24.5-15,39.3C266.4,975.3,274.5,940.9,298.6,927.6z"/>
	<path id="XMLID_60_" class="st26" d="M321.5,938.1c30.2-5.6,114-97.4,114-97.4c-28.7,6.8-91.1,42.4-121.5,60.4
		c-11.5,6.8-20.1,18.6-24.1,32.8C278.9,973.3,295.2,943,321.5,938.1z"/>
	<path id="XMLID_59_" class="st27" d="M430.3,920.3c-9.1-0.8-67.9,2.1-93.2,3.6c-10,0.6-19.6,4.8-27.2,12.4
		c-10.9,10.9-7.7,19,7.1,22.5C336.8,963.4,442,921.3,430.3,920.3z"/>
	<path id="XMLID_58_" class="st28" d="M271.4,938.7c2.2-10.7,2.5-21.8,1.2-32.6c-4.3-37.1-19.2-151.8-41-169.2
		c0,0-9.9,148.6,10.8,198.7C257.9,973.1,267.2,959.2,271.4,938.7z"/>
	<path id="XMLID_57_" class="st29" d="M271.2,959.1c12.4-13.6,62.8-145.9,62.8-145.9c-47.1,31.9-68.1,96.6-68.1,96.6
		S258.8,972.7,271.2,959.1z"/>
	<polygon id="XMLID_56_" class="st30" points="354,1002.6 356.6,985.2 153.4,985.2 164.2,1078.9 342.2,1078.9 	"/>
	<path id="XMLID_55_" class="st31" d="M354,1002.6l2.7-17.4H153.5l10.8,93.7h38.6C220.8,1026.5,327.1,1006.8,354,1002.6z"/>
	<rect id="XMLID_54_" x="137.2" y="942.2" class="st30" width="240.4" height="43.2"/>
</g>
<g id="XMLID_149_">
	<g id="XMLID_194_">
		<polygon id="XMLID_53_" class="st32" points="374.7,1035.6 367.3,908.9 368.5,908.8 375.9,1035.5 		"/>
	</g>
	<g id="XMLID_192_">
		<polygon id="XMLID_52_" class="st32" points="356,1033 338.1,689.5 339.3,689.5 357.3,1032.9 		"/>
	</g>
	<g id="XMLID_190_">
		<rect id="XMLID_51_" x="364.1" y="639.6" class="st32" width="1.2" height="400.6"/>
	</g>
	<g id="XMLID_188_">
		<polygon id="XMLID_50_" class="st32" points="380.6,797.5 381.9,797.5 377.3,1037.4 376.1,1037.4 		"/>
	</g>
	<g id="XMLID_186_">
		<path id="XMLID_49_" class="st33" d="M364,721.6c0,0-36-35.5-25.3-71c10.6-35.5,63.4-16.2,46.7,47.7
			C385.4,698.3,380,714.9,364,721.6z"/>
	</g>
	<g id="XMLID_184_">
		<polygon id="XMLID_48_" class="st34" points="375.1,703.7 373.7,703.6 376.5,665.6 378.2,660 		"/>
	</g>
	<g id="XMLID_182_">
		<polygon id="XMLID_47_" class="st34" points="357.3,704.6 356,704.6 357,644.6 358.2,654.1 		"/>
	</g>
	<g id="XMLID_180_">
		<polygon id="XMLID_46_" class="st34" points="350.6,694.8 344.4,653.6 346.6,660 351.9,694.6 		"/>
	</g>
	<g id="XMLID_178_">
		<path id="XMLID_45_" class="st35" d="M341.2,779.9c0,0-31.2-46.8-14.9-79.8c16.2-33,120.7-5.7,73.5,113.5
			c-47.2,119.1-83.8,39-83.8,39L341.2,779.9z"/>
	</g>
	<g id="XMLID_176_">
		<polygon id="XMLID_44_" class="st36" points="368.6,865 367.4,864.7 395.7,741.2 399.1,732.3 		"/>
	</g>
	<g id="XMLID_174_">
		<polygon id="XMLID_43_" class="st36" points="359.6,853.3 358.4,853.2 363.9,714.1 365.4,706.3 		"/>
	</g>
	<g id="XMLID_172_">
		<polygon id="XMLID_42_" class="st36" points="347.1,807.6 341.7,708.2 343.4,716.6 348.3,807.5 		"/>
	</g>
	<g id="XMLID_170_">
		<path id="XMLID_41_" class="st37" d="M422.9,1047.7c0,0-1.2,4.7-3.4,11.5c-0.6,1.9-1.3,3.9-2.1,6.2c-1.1,3.3-2.5,6.8-3.9,10.3
			c-0.5,1.1-1,2.1-1.4,3.3h-96.5c-0.1-0.3-0.2-0.7-0.3-0.9c-0.6-1.9-1.1-3.9-1.5-6.1c-1.4-6.8-1.9-14.8-1.1-24.2H422.9L422.9,1047.7
			z"/>
	</g>
	<g id="XMLID_168_">
		<polygon id="XMLID_40_" class="st37" points="308.1,1047.7 426.6,1047.7 429.7,1033 304.9,1033 		"/>
	</g>
	<g id="XMLID_166_">
		<path id="XMLID_39_" class="st38" d="M364.8,821.9c0,0-4.7-80.1-44.5-50.6c-39.8,29.5-49.5,145.3,44.5,180.4V821.9z"/>
	</g>
	<g id="XMLID_164_">
		<polygon id="XMLID_38_" class="st39" points="371,899 330.8,786.4 328.8,777 372.2,898.5 		"/>
	</g>
	<g id="XMLID_162_">
		<path id="XMLID_37_" class="st39" d="M377.6,906.9c-3.6-0.1-9.6-5.3-18.2-15.9c-6.7-8.2-14.9-19.6-24.6-33.9
			c-16.3-24.3-26.4-41.1-26.4-41.4l-3.6-8.6c0.2,0.2,14.9,24.8,31.1,49c27.1,40.3,37.7,49,41.8,49.2V906.9z"/>
	</g>
	<g id="XMLID_160_">
		<path id="XMLID_36_" class="st39" d="M383.6,922c-8.2,0-25.2-10.7-50.4-31.7c-18.7-15.6-35.2-31.4-35.3-31.6l5.2,2.9
			c6.2,5.9,61.3,58.8,80.5,58.8V922z"/>
	</g>
	<g id="XMLID_158_">
		<path id="XMLID_35_" class="st39" d="M327.3,916.9c1,0.7,7,1.8,22.5,4.8c8.6,1.7,29.7,5.7,38.8,6v1.5c-9.3-0.2-30.8-4.4-39.6-6.2
			c-7.2-1.5-14.4-3-19.9-4.3c-8.8-2-9.1-2.5-9.3-2.7L327.3,916.9z"/>
	</g>
	<g id="XMLID_156_">
		<path id="XMLID_34_" class="st40" d="M377.6,997.7c0,0-32.9-40-25.1-101.5c7.7-61.5,67.6-61.4,67.1-1.7
			C419.1,954.2,408.2,970.9,377.6,997.7z"/>
	</g>
	<g id="XMLID_154_">
		<polygon id="XMLID_33_" class="st41" points="380.1,992.9 379,992.6 395.4,866.8 397.7,858.3 381.3,984.7 412.8,880.9 413,884.7 
					"/>
	</g>
	<g id="XMLID_152_">
		<polygon id="XMLID_32_" class="st41" points="377.2,993.9 359.6,896.5 359.4,889.1 376.9,984.9 372.3,863.5 374.1,875.9 
			378.4,993.5 		"/>
	</g>
	<g id="XMLID_150_">
		<path id="XMLID_31_" class="st42" d="M422.9,1047.7c0,0-1.2,4.7-3.4,11.5c-0.4,0.1-0.8,0.2-1.1,0.3c-4,1-9.3,2.4-15.2,4.1
			c-12.3,3.6-27.3,8.7-39.7,15.3h-47.8c-0.1-0.3-0.2-0.7-0.3-0.9c-0.6-1.9-1.1-3.9-1.5-6.1c-1.4-6.8-1.9-14.8-1.1-24.2H422.9
			L422.9,1047.7z"/>
	</g>
</g>
<g id="XMLID_129_">
	<path id="XMLID_30_" class="st43" d="M118.2,816l1.8,23.7C120.2,832.1,119.6,824.2,118.2,816z"/>
	<g id="XMLID_133_">
		<g id="XMLID_146_">
			<path id="XMLID_29_" class="st44" d="M120.7,988.3l-1.1-0.1c0-0.5,1.9-43.4,1.4-93.9c-0.5-46.5-3.3-109.3-13.5-143.5l1-0.3
				c10.3,34.4,13.1,97.1,13.6,143.8C122.7,944.8,120.7,987.8,120.7,988.3z"/>
		</g>
		<g id="XMLID_144_">
			<path id="XMLID_28_" class="st44" d="M135.4,988.3c-0.1-2.7-12.4-276.7-27.8-359.1l1-0.2c15.4,82.5,27.7,356.6,27.8,359.3H135.4z
				"/>
		</g>
		<g id="XMLID_142_">
			<path id="XMLID_27_" class="st44" d="M129.7,997.4c-0.1-2.5-10.5-244-2.4-292.7l1,0.2c-8.1,48.7,2.3,290,2.4,292.4H129.7z"/>
		</g>
		<g id="XMLID_140_">
			<path id="XMLID_26_" class="st44" d="M129.1,992H128c0-1.4,0.1-136.5,9.6-198.1l1,0.2C129.2,855.6,129.1,990.6,129.1,992z"/>
		</g>
		<path id="XMLID_25_" class="st44" d="M211,741c0,0-10.4-82.2-36.5-43.3c-18,26.9-29.7,64.9-35.3,85.9c-2.4,9.1-3.9,18.7-4.4,28.3
			l-1.1,23C190.2,664,211,741,211,741z"/>
		<path id="XMLID_24_" class="st44" d="M224.2,642.4c0,0,10.4-78.7-48.8-43.6C118.7,632.4,125,733.4,125,733.4
			c3.4-16.8,9.6-61.9,29.8-91.1C208.5,565.2,224.2,642.4,224.2,642.4z"/>
		<path id="XMLID_23_" class="st44" d="M165.2,894.2c-33.7-7.7-35.6,25.8-35.6,25.8v12.3C132.5,911.1,165.2,894.2,165.2,894.2z"/>
		<path id="XMLID_22_" class="st44" d="M118.7,721.5c-0.1-0.5-0.1-0.8-0.2-1.2C102.8,616,70.6,577.9,50,564.1v-7.6h32.4
			c24.2,22,32.5,102.7,35.2,142.4v0.1C118.4,712.7,118.7,721.5,118.7,721.5z"/>
		<path id="XMLID_21_" class="st44" d="M54.6,671.7c0,0,52.9,79.5,63.6,144.3l-1.1-15.2C117,800.9,114.9,685.7,54.6,671.7z"/>
		<path id="XMLID_20_" class="st44" d="M77.2,844.7c0,0,41.8,50.3,44.6,60.9C121.8,905.4,105,847.6,77.2,844.7z"/>
	</g>
	<path id="XMLID_19_" class="st37" d="M170.6,966l-0.1,2.4l-0.4,10L170,982l-0.3,7.9l-0.3,7.8l-0.3,7.7l-2,55.6l-0.4,11.2l-0.2,6
		l0,0v1H93.8l-12.1-84.4L79.9,982l-1-6.6l-1.3-9.4L170.6,966L170.6,966z"/>
	<path id="XMLID_18_" class="st42" d="M170.5,968.3l-0.4,10L170,982l-0.3,7.9l-0.3,7.8c-0.2,0-0.4,0-0.6,0.1c-0.4,0-0.8,0.1-1.1,0.1
		c-3.4,0.5-7.4,1.4-11.7,2.7c-9.4,3.2-20.2,9.2-29.1,20.7c-3.6,4.6-6.9,10.1-9.7,16.7c-4.5,10.6-7.8,24-8.8,40.9H93.8l-12.1-84.4
		l-1.8-12.6l-1-6.6l41.4-3.2l1.1-0.1l3.3-0.2l3.5-0.2h0.5h0.5h0.5l4.9-0.3l1-0.1l1.6-0.1l3.3-0.2L170.5,968.3z"/>
	<polygon id="XMLID_17_" class="st37" points="175.3,950 73.7,950 73.7,981.9 179.3,981.9 	"/>
</g>
</svg>
