<?xml version="1.0" encoding="utf-8"?>
<!-- Generator: Adobe Illustrator 19.0.0, SVG Export Plug-In . SVG Version: 6.00 Build 0)  -->
<svg version="1.1" id="Calque_1" xmlns="http://www.w3.org/2000/svg" xmlns:xlink="http://www.w3.org/1999/xlink" x="0px" y="0px"
	 viewBox="0 0 1110 864" style="enable-background:new 0 0 1110 864;" xml:space="preserve">
<style type="text/css">
	.st0{fill:#FFFFFF;}
	.st1{opacity:0.75;fill:#97BF0D;}
	.st2{fill:#97BF0D;}
</style>
<rect id="XMLID_1_" class="st0" width="1110" height="864"/>
<path id="XMLID_2_" class="st1" d="M0,30c0,0,76.5-26,71.8,64C67,184,21.6,213,17.9,279S0,389,0,389V30z"/>
<path id="XMLID_4_" class="st1" d="M1110,370c0,0-56.4-126-81.9-55c-25.5,71-10.7,96,0,139c10.7,43,41.6,59,27.5,130
	s54.4,152,54.4,152V370z"/>
<path id="XMLID_3_" class="st2" d="M119.4,125c0,0,0-0.1,0-0.1c-5.6-1.2-11.9-0.8-17.6-0.8c-9.1,0-14.1,4.6-7.8,12.9
	c4.8,6.5,11.2,8.7,17.4,2.9C114.7,136.7,119.6,129.7,119.4,125z"/>
<path id="XMLID_5_" class="st2" d="M124.3,129.1c0,0-0.1,0-0.1,0c-3.7,4.3-6.3,10.1-9,15.2c-4.3,8-2.6,14.6,7.7,13
	c8-1.2,13-5.7,10.7-14C132.4,138.8,128.6,131.2,124.3,129.1z"/>
<path id="XMLID_6_" class="st2" d="M118.1,117.5C118.1,117.5,118.2,117.5,118.1,117.5c-2.7-5.1-7.2-9.6-10.9-13.9
	c-6-6.9-12.7-7.6-14.9,2.7c-1.7,7.9,0.8,14.2,9.3,15C106.2,121.7,114.7,120.8,118.1,117.5z"/>
<path id="XMLID_9_" class="st2" d="M1046,234c0,0,0-0.1,0-0.1c5.6-1.2,11.9-0.8,17.6-0.8c9.1,0,14.1,4.6,7.8,12.9
	c-4.8,6.5-11.2,8.7-17.4,2.9C1050.7,245.7,1045.8,238.7,1046,234z"/>
<path id="XMLID_8_" class="st2" d="M1041.1,238.1c0,0,0.1,0,0.1,0c3.7,4.3,6.3,10.1,9,15.2c4.3,8,2.6,14.6-7.7,13
	c-8-1.2-13-5.7-10.7-14C1033,247.8,1036.8,240.2,1041.1,238.1z"/>
<path id="XMLID_7_" class="st2" d="M1047.3,226.5C1047.3,226.5,1047.2,226.5,1047.3,226.5c2.7-5.1,7.2-9.6,10.9-13.9
	c6-6.9,12.7-7.6,14.9,2.7c1.7,7.9-0.8,14.2-9.3,15C1059.2,230.7,1050.7,229.8,1047.3,226.5z"/>
</svg>
